<?xml version="1.0" encoding="utf-8"?>
<!-- Generator: Adobe Illustrator 22.1.0, SVG Export Plug-In . SVG Version: 6.00 Build 0)  -->
<svg version="1.1" id="Layer_1" xmlns="http://www.w3.org/2000/svg" xmlns:xlink="http://www.w3.org/1999/xlink" x="0px" y="0px"
	 viewBox="0 0 64 64" style="enable-background:new 0 0 64 64;" xml:space="preserve">
<path style="fill:#36B04B;" d="M1,14.4c0,0,22.1,5.6,26.9,8.8c2.7,1.8,6.8,5,8.8,8.8c2.8,5.5,3,11.8,3,11.8s-1-2.8-3.4-5.4
	c-1.4-1.6-4.9-3.1-6.4-3.7c-5.3-2.1-15.2-3.1-19-5.4c-2-1.2-5.3-3.7-6.8-6.2C1.6,18.8,1,14.4,1,14.4z"/>
<path style="fill:#36B04B;" d="M63,14.6c0,0-15.5,2-18.5,3.9c-2.3,1.3-4.2,3.1-5,5.7c-1.2,3.9-0.2,8.5-0.2,8.5s0.3-2,1.6-3.7
	c0.8-1,3.1-1.8,4.2-2.1c3.6-1,10.8-0.9,13.2-2.2c1.3-0.7,3.3-2.2,4-4C63.3,17.8,63,14.6,63,14.6z"/>
<g id="ants">
	<path style="stroke:#000000;stroke-width:0.1;stroke-miterlimit:10;" d="M60,19c-0.3,0.1-0.6-0.1-0.9-0.2c-0.3-0.1-0.5-0.3-0.7-0.6
		c-0.3-0.4-0.8-0.6-1.2-0.8c-0.2-0.1-0.4-0.1-0.6-0.2c-0.2-0.2-0.4-0.1-0.6,0c-0.3,0.1-0.6,0.3-0.6,0.7c0,0.1-0.1,0.1-0.2,0.1
		c-0.1,0-0.3-0.1-0.4-0.1c-0.1,0-0.1-0.1-0.1-0.1c0,0,0.1-0.1,0.1-0.1c0.1,0,0.1-0.1,0.2-0.1c0.5-0.3,0.7-0.8,1.1-1.2
		c0.2,0.1,0.4,0.1,0.5,0.2l0,0.2c0,0,0,0,0,0c0,0,0.1-0.1,0.1-0.1c0,0.1,0.1,0.1,0.1,0.1c0.1,0.2,0.2,0.3,0.4,0.3c0.2,0,0.4,0,0.6,0
		c0.1,0,0.2-0.1,0.3,0.1c0.1-0.1,0.1-0.2,0-0.3c-0.1,0-0.2,0-0.3,0c-0.1,0-0.3,0-0.4,0c-0.3,0-0.5-0.1-0.5-0.4c0-0.1,0-0.1-0.1-0.1
		c-0.1-0.1-0.3-0.1-0.5-0.2c-0.1,0-0.3-0.1-0.4-0.1c0,0-0.1,0-0.1,0c-0.3,0.2-0.6,0.4-0.7,0.7c-0.1,0.2-0.3,0.5-0.6,0.6
		c-0.1-0.1-0.3-0.3-0.4-0.5c-0.1-0.1-0.1-0.2-0.1-0.3c0.1-0.5,0.1-1.1,0-1.6c0,0,0-0.1,0-0.1c0-0.5-0.3-0.7-0.7-1
		c-0.1-0.1-0.3-0.2-0.5-0.3c0,0,0-0.1-0.1-0.1c-0.1-0.2-0.1-0.4-0.1-0.5c0,0,0-0.1,0-0.1c-0.1,0-0.2,0-0.3,0
		c0.1,0.1,0.1,0.3,0.2,0.4c0,0.3,0.1,0.4,0.4,0.5c0,0,0,0,0.1,0.1c-0.4-0.1-0.6-0.4-1-0.3c0-0.3,0-0.5,0.1-0.7
		c0.1-0.2,0.3-0.5,0.4-0.7c0.1-0.2,0.1-0.4-0.2-0.6c-0.2-0.1-0.3-0.3-0.5-0.4c-0.2-0.2-0.4-0.5-0.6-0.7c0-0.1-0.1-0.1-0.2,0
		c-0.1,0.1,0,0.1,0,0.2c0.2,0.2,0.4,0.5,0.6,0.7c0.2,0.2,0.4,0.4,0.6,0.6c-0.1,0.2-0.3,0.5-0.3,0.8c-0.1,0.3-0.1,0.6-0.2,0.9
		c-0.1,0-0.2,0-0.3,0c-0.2,0-0.3,0.1-0.5,0.2c-0.1,0.1-0.2,0.2-0.4,0.2c-0.3,0.1-0.6,0.2-0.9,0.3c-0.2,0.1-0.4,0.2-0.6,0.3
		c-0.2-0.3-0.5-0.5-0.9-0.6c-0.1-0.1-0.3-0.1-0.5,0c-0.1,0.1-0.2,0.1-0.1,0.3c0,0,0.1,0,0.1,0c0.2-0.2,0.3-0.1,0.5,0
		c0.3,0.1,0.5,0.2,0.7,0.5c0.1,0.2,0.3,0.2,0.6,0.1c0.3-0.1,0.6-0.3,0.8-0.4c0.1-0.1,0.3-0.1,0.5-0.2c0,0.2,0,0.4,0,0.5
		c0,0.2,0.1,0.4,0.3,0.6c0.2,0.2,0.3,0.3,0.5,0.5c0.1,0.1,0.2,0.1,0.3,0.2c0.2,0,0.3,0,0.4-0.1c0.1,0,0.1-0.1,0.2-0.1
		c0,0.1,0,0.1-0.1,0.2c-0.1,0.2-0.1,0.4,0,0.6c0.1,0.1,0.2,0.3,0.1,0.4c0,0.1,0.1,0.1,0.1,0.2c0.1,0.1,0.2,0.3,0.4,0.4
		c-0.2,0-0.3,0-0.5,0c-0.4-0.1-0.7-0.3-1.1-0.4c-0.1-0.1-0.3-0.1-0.5-0.2c-0.1,0-0.1,0-0.2,0c-0.2,0.2-0.4,0.4-0.5,0.6
		c-0.1,0.1-0.2,0.3-0.2,0.5c0,0.1-0.1,0.1-0.2,0.1c-0.2,0-0.4,0-0.6-0.1c0,0.1,0,0.2-0.1,0.3c0.1-0.1,0.2-0.1,0.3,0c0,0,0.2,0,0.3,0
		c0.1,0,0.3-0.1,0.4-0.1c0.1,0,0.1-0.1,0.1-0.1c0.1-0.1,0-0.3,0.3-0.3c0.1,0,0.2-0.2,0.3-0.3c0-0.1,0-0.2,0.1-0.2
		c0.2,0.1,0.5,0.2,0.7,0.3c0.4,0.2,0.8,0.3,1.2,0.3c0.2,0,0.4-0.1,0.6-0.2c0,0.1,0,0.1,0,0.2c-0.1,0.1-0.1,0.2-0.2,0.3
		c-0.1,0.1-0.2,0.1-0.4,0.1c-0.4,0-0.7,0-1.1,0.2c-0.1,0.1-0.3,0.2-0.4,0.3c-0.2,0.1-0.4,0.2-0.5,0.4c0,0.1,0,0.2-0.1,0.2
		c-0.1,0.1-0.1,0.3-0.3,0.4c-0.2,0.2-0.5,0.3-0.8,0.4c-0.1,0-0.2,0-0.3,0c0,0.1,0.1,0.1,0.1,0.2c0.2-0.1,0.3-0.1,0.5-0.2
		c0.1,0,0.1-0.1,0.2-0.1c0.2,0,0.2-0.2,0.4-0.3c0.1,0,0.1-0.2,0.2-0.3c0.1-0.1,0.1-0.2,0.2-0.2c0.1,0,0.2,0,0.2,0
		c0,0-0.1-0.1-0.1-0.1c0.1-0.1,0.3-0.3,0.4-0.4c0,0,0.1,0,0.1,0c0.3,0,0.5,0,0.8-0.1c0.3,0,0.5-0.1,0.7-0.3c0,0,0,0,0.1,0
		c0.2,0.1,0.3,0,0.5-0.1c0.1,0,0.2,0,0.1,0.1c0,0.2-0.1,0.3-0.1,0.5c0,0.1,0,0.2,0,0.3c0,0,0,0.1,0,0.1c0,0.1-0.1,0.3-0.1,0.4
		c-0.3,0.5-0.2,0.9-0.1,1.4c0,0.3,0.1,0.5,0.2,0.7c0,0,0,0.1,0,0.1c0.1,0,0.1,0.1,0.1,0.2c0.1,0.6,0.1,1.2,0.2,1.9c0,0,0,0,0.1,0h0
		c0,0,0.1-0.1,0.1-0.2c0-0.2-0.1-0.4-0.1-0.6c-0.1-0.4-0.2-0.8-0.2-1.3s-0.2-0.8-0.2-1.2c0-0.3,0-0.6,0.1-0.8c0-0.2,0.1-0.4,0.1-0.5
		v0c0.2-0.2,0.2-0.5,0.3-0.8c0,0.1,0,0.1,0,0.1c0,0.1,0,0.2,0.1,0.3c0,0,0,0.1,0,0.1c-0.3,0.5-0.3,0.9-0.1,1.4
		c0.1,0.5,0.3,0.9,0.7,1.3c0.2,0.3,0.5,0.5,0.8,0.6c0.2,0.1,0.5,0,0.7-0.1c0.9-0.5,1.3-1.4,0.9-2.2c-0.1-0.3-0.3-0.7-0.6-0.9
		c0,0,0,0,0-0.1c-0.2-0.4-0.7-0.6-1.2-0.6c-0.2,0-0.4,0.1-0.6,0.1c0.1-0.1,0.2-0.2,0.3-0.3c0,0,0,0,0.1,0c0.2,0.1,0.3-0.1,0.4-0.2
		c0.1-0.1,0.2-0.2,0.3-0.3c0.1-0.2,0.3-0.2,0.5-0.3c0,0,0.1,0,0.1,0c0.4,0.2,0.8,0.4,1.2,0.6c0,0,0,0.1,0,0.1c0.1,0,0.1,0,0.2,0
		c0.1,0,0.1,0,0.1,0c0.1,0.1,0.3,0.3,0.4,0.5c0.1,0.1,0.3,0.2,0.5,0.3c0.2,0.1,0.4,0.1,0.6,0.2c0.1,0,0.2,0,0.2,0
		c0.1,0,0.1,0,0.1,0.1c0,0,0.1-0.1,0.1-0.1l0-0.1C60,19,60,19,60,19z M52.9,15.3c0.1-0.1,0.3-0.2,0.4-0.4c0.1-0.2,0-0.4-0.1-0.6
		c0.1,0.1,0.2,0.1,0.3,0.1c0,0,0.1,0,0.1,0.1c0.1,0.2,0.1,0.4,0.1,0.7c0,0.1,0,0.3,0,0.4C53.4,15.5,53.1,15.4,52.9,15.3z"/>
</g>
<g id="roaches">
	<path style="stroke:#000000;stroke-width:0.1;stroke-miterlimit:10;" d="M13.9,17.1c-0.1,0-0.1,0-0.1,0
		C13.8,17.1,13.8,17.1,13.9,17.1z M10.2,30c1-0.1,1.9-0.4,2.8-0.9c0.3-0.3,0.5-0.4,0.8-0.5c0.1,0,0.2-0.1,0.3-0.1
		c0.1,0,0.1,0,0.2-0.1c0.1,0,0.2-0.1,0.3-0.1c0.3-0.1,0.6-0.4,0.8-0.6c0.2-0.2,0.3-0.4,0.5-0.6c0,0.1,0.1,0.3-0.1,0.5
		c0,0.1,0.1,0,0.1-0.1c0,0.1,0,0.3,0,0.5c0.1,0.1,0.2,0.2,0.2,0.3c0,0,0,0,0,0.1c0,0.1,0.1,0.3,0.2,0.4l0,0c0,0,0,0.1,0.1,0.1l0,0
		c0,0,0,0,0,0.1c0,0.1,0,0.1,0.1,0.2c0,0,0,0,0,0l0,0c0,0,0,0.1,0.1,0.2c0,0.1,0,0.1,0.1,0.2c0,0.1,0,0.1,0.1,0.2
		c0,0.1,0.1,0.2,0.2,0.3h0c0.1,0,0.2,0,0.1,0c0,0,0,0,0.1,0c0,0.1,0-0.1-0.1-0.1c-0.1-0.2-0.3-0.5-0.4-0.9c0,0,0-0.1,0-0.1
		c0,0,0-0.1,0-0.1c-0.1-0.2-0.2-0.4-0.2-0.6c0-0.1-0.1-0.3-0.1-0.4c0.1-0.4,0.2-0.9,0.1-1.3c0.4-0.7,0.8-1.4,1.1-2.1
		c0.9,0.3,2.1,0.9,3,1.7c0,0.1,0,0.2,0.2,0.3c0-0.1-0.1-0.2-0.1-0.2c0.1-0.1,0.1,0,0.3,0.1c0.1-0.1-0.2-0.2-0.3-0.2
		c-0.2-0.2-0.4-0.4-0.7-0.6c0,0,0,0.1,0,0.1c-0.1,0-0.2-0.1-0.3-0.2c0.1,0,0.2,0.1,0.2,0.1c-0.2-0.3-0.7-0.5-1.2-0.8
		c-0.2-0.1-0.5-0.1-0.6-0.2c0,0,0-0.1,0-0.1c-0.1,0-0.3,0-0.3-0.1c0.1-0.2,0.2-0.4,0.2-0.6c0-0.1,0.1-0.1,0.1-0.2
		c0.1-0.3,0.1-0.6,0.2-0.9c0-0.1,0.1-0.1,0.1-0.2c0-0.1,0-0.3,0-0.4c0.1-0.2,0.2-0.3,0.3-0.4c0-0.1,0-0.1,0-0.2
		c0-0.1,0.1-0.3,0.1-0.4c0-0.2-0.2-0.4-0.1-0.6c-0.1-0.1-0.2-0.2-0.3-0.3c-0.1,0,0,0.1,0,0.1c0,0-0.1-0.2-0.1-0.1c0,0,0-0.1,0-0.1
		l0,0c-0.1,0-0.1-0.1-0.1-0.1c0-0.1,0-0.1,0-0.1c0-0.1-0.1-0.2-0.1-0.3c0.2-0.1,0.4-0.2,0.6-0.4c0.1-0.1,0-0.1,0-0.2
		c0.3-0.3,0.6-0.6,0.8-1c0.2-0.2,0.4-0.5,0.4-0.7c0.1,0,0.1-0.1,0.2-0.1c0,0-0.1,0-0.1,0c0.1-0.2,0-0.5,0-0.2l0,0c0,0,0,0,0,0.1l0,0
		c0,0.1,0,0.1-0.1,0.2c0,0-0.1,0-0.1,0.1c0,0,0,0,0.1,0c0,0-0.1,0.1-0.1,0.1c-0.1,0.1-0.2,0.2-0.2,0.4c-0.1,0-0.4,0.3-0.3,0.4
		c0,0.1-0.1,0.1-0.2,0.1c-0.3,0.5-0.7,0.8-1.1,0.8c-0.1-0.2-0.2-0.3-0.4-0.5c0,0-0.1-0.1-0.1-0.2l0,0l0,0c-0.2-0.3-0.7-0.8-1.3-1.2
		c0,0-0.1,0-0.1,0c0,0,0,0,0,0c-0.2-0.1-0.4-0.2-0.7-0.2c-0.3-0.1-0.7,0-1.1,0c0,0,0,0-0.1,0c0.4,0,0.7-0.1,1.1,0
		c0.3,0.1,0.8,0.3,1.3,0.7c0,0.1,0.2,0.1,0.2,0.2c0,0,0,0.1,0.1,0.1c0,0,0.1,0.1,0.1,0.1c0,0,0,0,0,0c0,0,0,0,0.1,0
		c0,0.1,0,0.1,0.1,0.1c0,0.1,0.1,0.2,0.2,0.2v0c0,0,0,0,0,0.1l0,0.1l0.1,0v0l0,0c0,0,0,0,0,0c0,0.1,0.2,0.3,0.2,0.2
		c-0.1,0.1,0,0.2,0.2,0.3c-0.1,0-0.1,0,0,0.1c-0.1,0.1-0.2,0.1-0.3,0.1c-0.1,0-0.3,0.1-0.3,0.3c-0.3,0-0.6,0-0.9,0l0,0
		c-0.1,0-0.4,0-0.7,0.1c0-0.2-0.1-0.4-0.3-0.5l0,0c-0.1-0.1-0.4-0.3-0.8-0.4c-0.4-0.2-1-0.3-1.3-0.4c-0.2-0.1-0.3-0.2-0.4-0.3
		c-0.1-0.1-0.3-0.3-0.5-0.4c-0.2-0.2-0.5-0.7-0.6-0.6c0,0,0,0,0,0l0,0c0,0,0,0,0,0c0,0,0.1,0,0.1,0.1c0,0.2,0.4,0.2,0.2,0.4
		c0.1,0,0.1,0,0.1,0c0,0.1,0.2,0.2,0.3,0.3c0.1,0,0.1,0.1,0.1,0.1c0.1,0.2,0.7,0.4,0.7,0.6c0.7,0.4,1.2,0.3,2,0.7c0,0.1,0,0.2,0,0.3
		c-0.3,0-0.6,0.1-0.8,0.2c-0.2,0-0.4,0.2-0.6,0.2c-0.1-0.2-0.1-0.3-0.1-0.5l0,0c0,0-0.3-0.6-0.9,0l0,0c-0.1,0-0.1,0.1-0.1,0.1
		c-0.1,0,0,0-0.1,0.1c-0.1,0.1-0.3,0.1-0.4,0.2c-0.2,0.1-0.3,0.3-0.5,0.3c0,0.1-0.3,0.3-0.5,0.4c-0.1,0.1-0.2,0.2-0.3,0
		c0.1,0.2-0.1,0.2-0.3,0.1c0,0,0.1,0.1,0.1,0.1c-0.4,0.1-1-0.1-1.6-0.3c-0.2-0.1-0.4-0.3-0.7-0.4C8,20.2,8,20.1,7.8,20
		c-0.1,0,0.1,0,0.2,0.1c-0.1,0.2-0.2,0.2-0.3,0.1c0,0.1,0.3,0.1,0.4,0c0.5,0.3,0.9,0.4,1.4,0.7c0.3,0,0.7,0.1,1,0.1c0,0,0,0.1,0,0.1
		c0,0.1,0.1-0.1,0.2,0c0,0.1,0,0.1-0.1,0.1c0,0.1,0.1,0,0.1,0c0,0,0,0.1,0,0.1c0.2-0.1,0.3-0.3,0.5-0.2c0-0.1,0.1-0.2,0.2-0.2
		c0.2-0.1,0.3-0.4,0.6-0.3c-0.1-0.1,0.1-0.2,0.1-0.2c0,0.1,0,0.1,0,0.2c0.2-0.4,0.7-0.7,1.1-0.8c0.1,0.1,0,0.2,0.1,0.3
		c-0.1,0,0-0.1-0.1,0c0,0.1,0.1,0.1,0.1,0.2c-0.1,0.1-0.1,0.2-0.2,0.1c-0.1,0.2-0.6,0.3-0.9,0.4c-0.4,0.2-0.8,0.5-1.2,0.7
		c-0.1,0.2-0.3,0.1-0.4,0.2c-0.1,0-0.2,0.2-0.3,0.3c-0.3,0.2-0.6,0.4-0.9,0.6c-0.2,0.2-0.5,0.4-0.6,0.7C8.6,23,8.5,23,8.4,23
		c0-0.1-0.1-0.2-0.1-0.1c-0.1-0.1-0.2-0.1-0.3-0.2c0.1,0.2,0.4,0.3,0.6,0.6c0,0.1,0,0.2,0,0.3c-0.1,0.1-0.1,0.3-0.1,0.3l0,0
		c-0.2,0.4-0.2,0.8,0.3,1.1l0,0c0.1,0,0.1,0,0.2,0.1c-0.2,0.1-0.5,0.4-0.6,0.6c-0.1,0.1-0.3,0.2-0.4,0.2c0,0.2,0.3,0,0.4,0.1
		c0.2-0.2,0.5-0.3,0.7-0.5c0.1,0,0.2-0.1,0.3-0.2c0.4,0.2,0.6,0.2,0.7,0.2c0.3,0.1,0.8,0,1.1,0c0.2,0,0.4,0,0.6,0c0.3,0,0.5,0,1-0.2
		c0.4-0.2,0.6-0.3,0.7-0.3l0,0c0,0.1,0.1,0.3,0.1,0.4c0,0.3,0,0.6,0.1,0.9c-0.1,0.1-0.1,0.1-0.2,0.1c0,0.1,0.1,0,0.2,0
		c0.1-0.1,0-0.2,0-0.3c0.1,0.1,0,0.4,0.1,0.5c-0.5,0.1-1.1,0-1.6-0.1c0,0-0.1,0.1-0.1,0c-0.3,0.1-0.6-0.1-0.9,0
		c-0.1,0,0.1-0.1,0-0.1c-0.1,0.2-0.4,0.1-0.4,0c-0.1,0.3-0.3,0-0.5,0c0,0.1,0.1,0.1,0.2,0.1c-0.5,0.2-1.1,0.5-1.5,1
		c-0.1,0.1-0.2,0.1-0.3,0.1c-0.1,0.2-0.2,0.2-0.3,0.3C8.2,28,8.2,28.1,8,28.2c0.2,0.1,0.4-0.1,0.5-0.3c0.1,0,0.3-0.1,0.3-0.3
		c0.1,0,0.3-0.2,0.4-0.3c0.4-0.2,0.8-0.5,1.2-0.6c0,0.1-0.2,0.1-0.3,0.2c0.1,0.1,0.3-0.1,0.4-0.1c0.3,0,0.5,0,0.9,0c0,0,0,0.1,0,0.1
		c0.1,0,0.1,0,0.1-0.1c0.1,0.2,0.4-0.1,0.5,0.2c0.3-0.1,0.9,0.1,1.3,0.1c0,0,0,0.1,0,0.1c0.1,0,0.1,0,0.1-0.1c0.2,0,0.6-0.1,0.6-0.4
		c0-0.1,0.1,0,0.1,0c0.1-0.2,0.1-0.4,0.1-0.6c0-0.3,0-0.6-0.1-0.7c0-0.2-0.1-0.4-0.2-0.6c0,0,0,0,0,0c0.2-0.1,0.4-0.3,0.5-0.4
		c0.1,0,0.1,0,0.2-0.1c0.1,0,0,0.1,0,0.1c0.1,0,0.1,0,0.1-0.1l0,0l0,0c0,0,0.2,0.1,0.2,0.2l-0.1,0.1c0.1,0,0.1-0.1,0.1-0.1
		c0,0,0.1,0.1,0.1,0.2c0.1,0.1,0.2,0.1,0.3,0.1c0.2,0.1,0.3,0.4,0.4,0.5c-0.1,0-0.2-0.2-0.2-0.2c-0.1,0.1,0.3,0.3,0.2,0.5
		c0,0,0.1,0,0.1,0c0,0.1,0,0.2,0,0.3c0,0.1,0-0.1,0.1-0.1c0,0.1,0.1,0.3,0,0.5c0.1,0.1,0.1,0.3,0,0.5c0,0,0,0,0.1,0
		c0,0.1,0,0.2,0,0.3c-0.2,0.3-0.4,0.6-0.8,1c-0.4,0.4-0.8,0.4-1,0.5c-0.1,0-0.2,0.1-0.2,0.1l0,0c0,0,0,0,0,0c0,0,0,0-0.1,0
		c-0.6,0.5-1.2,0.8-1.8,1C11.5,29.6,10.8,29.7,10.2,30z M15.1,19.2L15.1,19.2C15.1,19.2,15.1,19.2,15.1,19.2
		C15.1,19.2,15.1,19.2,15.1,19.2z M17.3,19.6c0.1,0,0.1-0.1,0.2-0.1c0.1,0,0.2,0,0.2-0.1c0,0.1,0.1,0.2,0.1,0.3
		c-0.1,0-0.1,0.1,0,0.1c-0.1,0-0.2-0.1-0.3,0C17.4,19.7,17.4,19.7,17.3,19.6z M16.9,23.5c-0.1,0-0.4-0.2-0.4-0.3c0,0,0.2,0.1,0.1,0
		c-0.1,0-0.3,0-0.3-0.1c0.3,0.1,0.5,0,0.5,0s0,0,0,0c0.3,0,0.7-0.3,0.6-0.6c-0.1,0,0,0.2-0.1,0.3c-0.2,0.1-0.3,0.1-0.5,0.2
		c-0.1,0-0.1,0-0.2-0.1c0.1,0,0.1,0,0.1,0c0.2-0.1,0.6-0.3,0.7-0.5c-0.2,0.2-0.4,0.4-0.7,0.4c0.1-0.1,0.1-0.3,0.3-0.2
		c0,0,0,0.1,0,0.1c0.3-0.3,0.7-0.7,1-0.4c0.1,0.2-0.1,0.5-0.2,0.8l0.1,0c0,0-0.1,0-0.1,0c0,0.3-0.3,0.8-0.4,1.1
		C17.2,23.9,16.7,23.7,16.9,23.5z M16.2,26.3c0-0.3,0-0.6,0-0.9c0,0,0.1,0,0.1,0c-0.1,0-0.1-0.2-0.1-0.2c-0.1-0.5-0.3-0.8-0.4-0.9
		l0,0c0-0.1-0.1-0.1-0.1-0.1c-0.1-0.1-0.2-0.3-0.3-0.4c-0.1,0-0.2,0.1-0.3,0c0.1-0.1,0.4-0.3,0.5-0.4c0.1,0,0.2-0.1,0.4-0.1
		c0.1,0.1,0.2,0.2,0.3,0.3c0.1-0.1,0.3,0.2,0.3,0.3c0-0.1,0-0.1,0.1,0c0.3,0.2,0.4,0.3,0.7,0.4C16.9,24.9,16.6,25.7,16.2,26.3z
		 M18,19.9C18.1,19.9,18,19.8,18,19.9L18,19.9z"/>
</g>
</svg>
