<?xml version="1.0" encoding="utf-8"?>
<!-- Generator: Adobe Illustrator 22.1.0, SVG Export Plug-In . SVG Version: 6.00 Build 0)  -->
<svg version="1.1" id="Layer_1" xmlns="http://www.w3.org/2000/svg" xmlns:xlink="http://www.w3.org/1999/xlink" x="0px" y="0px"
	 viewBox="0 0 800 1000" style="enable-background:new 0 0 800 1000;" xml:space="preserve">
<style type="text/css">
	.st0{fill:#323135;}
	.st1{fill:#3C3C3B;}
	.st2{fill:#FFC990;}
	.st3{fill:#AAACB5;}
	.st4{fill:#C1C3C9;}
	.st5{fill:#36B04B;}
	.st6{opacity:0.42;fill:#272728;enable-background:new    ;}
	.st7{fill:#494949;}
	.st8{opacity:0.1;fill:#050504;enable-background:new    ;}
	.st9{opacity:0.1;fill:#1D1D1B;enable-background:new    ;}
	.st10{fill:#4D4D4D;}
	.st11{fill:#FFDC64;}
	.st12{fill:#5D5360;}
	.st13{fill:#6F6571;}
	.st14{fill:#FFC850;}
	.st15{fill:#CCCCCC;}
</style>
<path class="st0" d="M475.6,769.3c0.9,2,2,3.9,3.4,5.7c4.9,6.6,12.5,11.7,19.6,13.8c0.8,0.2,1.7,0.5,2.6,0.6l0.5,0.2
	c12,2.3,24-2.9,30.6-12.5c0.6-0.8,1.2-1.7,1.7-2.6c0-0.1,0-0.2,0.1-0.2c5.2-8.8,15.8-34.3,22.3-55.1c1-3.2,1.9-6.3,2.7-9.2
	c0.3-1.1,0.6-2.3,0.9-3.4c0-0.3,0.1-0.5,0.2-0.8c2.4-9,4.7-18.5,6.9-28c6-26.1,11.2-52.7,14.8-71.7l0,0c2-10.5,3.4-18.7,4.2-23.4
	c0-0.3,0.1-0.7,0.1-0.9c0.4-2.2,0.6-3.3,0.6-3.3c0-0.3-0.9-0.6-2.7-1c-8.7-1.6-36.8-3.7-59.6-5.2c-8.1-0.5-15.6-1-21.2-1.3
	c-0.4,0-0.8,0-1.1,0c-0.9,0-1.8,0-2.7-0.1c-0.4,0-0.8,0-1.2,0c-0.4,0-0.8,0-1.1,0c-2.7-0.1-4.3-0.1-4.3,0l0,0
	c-5.5,21.2-7.7,48.9-0.1,74.5v0.1c0.7,2.4-0.5,10-2.2,18.7c-2.6,13-6.4,28.5-6.9,32c-1.2,9.1-6.2,28-7.6,35.4
	c-0.8,4.3-2.7,12.4-2.8,16.1C473.2,757.5,473.8,765.2,475.6,769.3z"/>
<path class="st1" d="M350,926.3c0,0.5,0,1.1,0.4,1.5l1.1,1.4l3.2,4c1.2,1.6,2.6,2.9,4.2,4.1l7.7,6.1l1.1,0.8l1.8,1.4l2,1.6
	c0.3,0.2,0.6,0.5,0.9,0.8l19.9,17l7.8,6.7c9.3,8,23.5,14.2,32,15.7c0.9,0.1,1.9-0.3,2.3-1.2c3.3-5.5,6.8-9.3,5.7-13.5
	c-0.6-4.9-5-10.2-10-17.1c-0.8-1.1-1.7-2.4-2.6-3.7c-4.4-6.4-9.8-11.8-11.1-15.7c-1.6-4.2-3.2-8.5-3.6-12.9l0,0
	c-0.1-1.4-0.2-2.7,0-4.1c0.1-1.7,0.4-3.3,1.1-5l-24.8-18.1l-3.3-2.4c-0.2,0.4-0.5,0.8-0.8,1.1c-1.9,2.5-4.3,4.4-6.5,5.8
	c-0.3,0.2-0.7,0.4-0.9,0.6c-2.8,1.7-5.3,2.7-5.9,3.2l-0.2,0.1C368.8,906,350.2,924.3,350,926.3z"/>
<path class="st0" d="M377.7,900.8c0.8,1.2,1.8,2.5,2.9,3.5c1,1,2.2,1.9,3.5,2.6c0.2,0.1,0.4,0.3,0.7,0.4l28.1,15.6l3.7,2
	c1.6,0.9,3.2,1.4,4.9,1.6c4.6,0.5,9.3-1.5,12.1-5.5l98.8-143.9L506,761.2l-11.7-7.1l0,0l0,0l-16.9-10.2c-1.3,1.2-2.5,2.4-3.8,3.6
	c-2.3,2.2-4.6,4.5-6.8,6.8c-24.9,25.2-47.1,54.4-67.3,86.6c-3.7,5.9-7.3,11.8-10.8,17.9c-3.5,6-6.9,12.2-10.3,18.4
	c-0.4,0.5-0.7,0.9-1,1.4C372.9,885.6,373.3,894.3,377.7,900.8z"/>
<path class="st0" d="M492.9,645L492.9,645c4.2,7.6,10.3,14.2,18.4,19.6c3.9,2.5,25.1,29.1,44.9,54.5c15.9,20.3,30.7,40,35,46.1
	c5.8,8.2,10.9,14,14.8,16.3c0.8,0.4,1.5,0.8,2.3,1.1c0.1,0.1,0.3,0.2,0.5,0.2c9.4,4.1,21.6,3.5,29.7-0.4l0.5-0.1
	c10.7-5.2,17.2-16,17.2-27.4V754c0-1.1-0.1-2.1-0.3-3.2c0-0.1-0.1-0.2,0-0.2c-1.4-13.1-9-34.9-18.6-58.8c-1.9-4.6-3.9-9.4-5.9-14.2
	c-1.1-2.5-2.1-5-3.2-7.5l-0.1-0.1c-9.6-22-20-44.1-28.3-61.1c-5.8-11.9-10.5-21.4-13.3-26.8c-0.1-0.2-0.2-0.4-0.3-0.6
	c-1.2-2.4-1.9-3.8-2.1-4.3c0-0.1-0.1-0.1-0.1-0.1c-0.7-1.5-33.5-3.8-59.5-5.3c-8.1-0.4-15.5-0.8-21.1-1c-0.4,0-0.8,0-1.1,0
	c-0.9,0-1.8-0.1-2.7-0.1c-0.4,0-0.8,0-1.2,0c-0.4,0-0.8,0-1.1,0c-2.7-0.1-4.3-0.1-4.3,0l0,0C483.5,594.8,480.5,623.3,492.9,645z"/>
<path class="st1" d="M601.3,986.3L601.3,986.3c0.3,0.5,0.8,0.8,1.2,1l7.1,1.8c0.2,0,0.5,0.1,0.7,0.2c1.8,0.4,3.7,0.7,5.6,0.8l12,0.3
	l5.2,0.1c0.4,0,0.8,0,1.3,0.1l28.2,1.9l11,0.8c13.2,0.9,29.5-2.9,37.8-7.1c0.9-0.4,1.5-1.5,1.2-2.5c-0.7-6.9-0.1-12.5-3.8-15.3
	c-3.6-3.9-10.9-5.7-19.6-8.4c-1.5-0.5-3.1-1-4.7-1.6c-8-2.7-16.1-4-19.7-6.4c-4.6-3-9.3-6.1-12.7-10.4l0,0c-0.5-0.7-1-1.3-1.5-2
	c-1-1.5-1.8-3.2-2.3-5.1l-34.3,0.3h-3.1c0.2,3.9-0.7,7.6-1.8,10.6c-0.1,0.4-0.3,0.7-0.4,1c-1.4,3.4-2.9,5.8-3.2,6.7v0.2
	C604.6,956.6,600.2,984.5,601.3,986.3z"/>
<path class="st0" d="M592.2,926.2c0,10.2,7.3,18.4,16.7,20.1c0.4,0.1,0.8,0.2,1.3,0.2c1.7,0.2,3.4,0.2,5.1,0l1.6-0.2l34.4-4.5
	c0.3,0,0.6-0.1,0.9-0.1l0,0c1.4-0.2,2.7-0.8,3.9-1.5c4-2.4,6.6-6.7,6.4-11.6l-6.4-173.5V754l-41.8,3.9l-4.1,0.4L592,760
	c-0.3,1.7-0.6,3.4-0.9,5.2C583,816,584.1,869.9,592.2,926.2z"/>
<g>
	<path class="st2" d="M725.4,620.3l0.4,3.9l-0.4,5.9l-7.3,11.1c-1,1.6-0.9,3.4,0.2,4.6l-2.4,3.6c-1.4,2.1-0.6,4.6,1.6,5.6h0.1
		c0.5,0.3,1.1,0.4,1.7,0.4c0.3,1.4,1.4,2.6,3,3.1h0.1c2.6,0.8,5.6-0.5,6.7-2.9l7.8-17c0-0.1,0-0.1,0.1-0.2c0.1-0.2,0.1-0.3,0.2-0.5
		c0-0.1,0.1-0.3,0.1-0.4s0-0.3,0-0.4c0-0.2,0-0.3,0-0.5c0-0.1,0-0.1,0-0.2l-1.5-17.7c-0.2-2.5-2.7-4.2-5.5-3.8h-0.1
		C727.4,615.7,725.1,617.9,725.4,620.3z"/>
	<path class="st2" d="M698.7,581.4l1.4,11.2c0.3,2.7,1.2,5.3,2.6,7.6l3.6,6.1c0.4,0.8,0.8,1.6,0.9,2.5l2.6,15.9c0.4,2.5,3,4,5.8,3.5
		h0.1c2.8-0.5,4.8-3,4.4-5.4l-1.7-10.7l7.1,8.8l4.8,15.7l-3.9,16.6c-0.6,2.5,1.2,4.8,4,5.1h0.1c2.8,0.3,5.5-1.4,6.1-3.9
		c0,0,4.1-19.8,4.1-19.9c0,0-1.3-13.4-2.1-17.5c-0.2-0.8-0.6-1.8-0.9-2.9c-1.4-4.4-5.8-16.6-12.7-25.4l-6.9-13.1L698.7,581.4z"/>
</g>
<path class="st2" d="M598.3,405.8l11.1,37.8l19,64.9c1.2,4,3.4,7.4,6.2,10.1c0.3,0.3,0.6,0.6,1,0.9c6,5.1,14.3,7.1,22.4,4.7l0.4-0.1
	c6.5-2,11.6-6.6,14.3-12.3c2.5-5.2,3.2-11.3,1.3-17.3l-3.5-11.9L644,391.7c-3.8-12.5-17.1-19.5-29.6-15.6l-0.4,0.1
	C601.5,380.1,594.5,393.3,598.3,405.8z"/>
<path class="st2" d="M631.9,510.1c0,0.4,0.1,0.8,0.2,1.3c0.3,2.2,0.8,4.4,1.8,6.5c0.2,0.5,0.4,0.9,0.6,1.3c0.3,0.6,0.7,1.3,1.1,1.9
	l38.4,43.1l9.5,10.7l10.3,11.6l6.2,6.2l0.1-0.1l17.8-16.9l-16.2-31.6l-19.2-37.6l-6.9-11.2c-0.7-1.1-1.4-2.1-2.3-3
	c-3.9-4.4-9.3-7.1-15-7.7c-5.1-0.6-14.9,6.9-15,6.9c0,0-5.2,3.8-6.9,6.4C633.6,502.3,631.5,504.7,631.9,510.1z"/>
<path class="st3" d="M645.5,392.6l22.7,58.6c-15.5,6-33.2,10.3-47.9,21.6l-19.9-57.4c-2.1-7.1-2.9-14-1.6-19.6
	C604.5,370.7,636.9,366,645.5,392.6z"/>
<path class="st4" d="M488.3,386.5c0.2,3.9,0.4,12.6,0.7,24.1c0.1,2.8,0.2,8.8,0.4,14.9c0.2,7.6,0.4,15.4,0.5,17.4
	c0.7,26.6-3,125.4-3,125.4c0.3,12.4-1.1,21.8-1.1,21.8l19.6,2.8l76.5,12.9l0,0l22.9,3.9c0,0,1.4-33.7,9-74.5
	c0.5-2.4,0.9-4.8,1.4-7.3c0.8-4.3,1.6-8.7,2.5-13.2c0-0.2,0-0.4,0.1-0.6c1.4-7.6,2.9-15.4,4.3-23.2c3.2-17.5,6.3-34.8,9-50.4
	c0-0.1,0-0.3,0.1-0.4c1.1-6.1,2-11.8,3-17.2v-0.1c3.9-23.5,6.2-40.1,5.4-41.6c-0.2-0.3-0.4-0.6-0.5-0.8c-0.2-0.3-0.4-0.6-0.6-0.8
	c0,0,0,0,0-0.1c-0.3-0.4-0.7-0.8-1-1.2c-1-1.4-2.2-2.6-3.5-3.8c-1.6-1.4-3.3-2.5-5.1-3.6c-0.8-0.4-1.6-0.8-2.5-1.3
	c-3.4-1.8-7-3.5-10.8-5.2c-0.3-0.1-0.7-0.3-1.1-0.5l-6-2.6h-0.1l-40.7-17.7c-2.4-0.2-5.4,0.1-8.8,0.8c-0.2,0-0.4,0-0.7,0.1
	c-2.6,0.5-5.3,1.2-8.1,1.9c-5.7,1.5-11.3,3.3-15.2,4c-16.4,3-34.3,6.8-42.2,18.7C489.6,373.7,488,379.3,488.3,386.5z"/>
<g>
	<path class="st5" d="M544.7,420.8c0,0,30.9,10.3,37.7,16.3c3.8,3.4,9.5,9.2,12.2,16.2c4,10.2,4.2,21.7,4.2,21.7s-1.4-5.2-4.8-10
		c-2-2.9-6.9-5.8-9-6.9c-7.4-3.9-21.2-5.8-26.6-10c-2.8-2.1-7.4-6.9-9.5-11.5C545.5,429,544.7,420.8,544.7,420.8z"/>
	<path class="st5" d="M631.3,421.1c0,0-21.7,3.7-25.9,7.3c-3.3,2.4-5.9,5.6-7,10.5c-1.6,7.1-0.3,15.6-0.3,15.6s0.4-3.7,2.3-6.9
		c1.1-1.9,4.4-3.4,5.8-4c5-1.9,15-1.6,18.5-4c1.8-1.2,4.6-4.1,5.6-7.3C631.8,427.1,631.3,421.1,631.3,421.1z"/>
	<g id="ants_1_">
		<path d="M627.2,429.2c-0.5,0.1-0.9-0.1-1.3-0.3c-0.5-0.2-0.7-0.6-1-1.1c-0.5-0.8-1.1-1-1.7-1.4c-0.3-0.1-0.6-0.2-0.8-0.4
			c-0.3-0.3-0.6-0.1-0.8,0c-0.5,0.2-0.8,0.6-0.8,1.2c0,0.2-0.1,0.2-0.2,0.2c-0.2-0.1-0.4-0.1-0.5-0.2c-0.1,0-0.1-0.1-0.2-0.2
			c0,0,0.1-0.1,0.2-0.2c0.1-0.1,0.2-0.1,0.3-0.1c0.7-0.5,1-1.6,1.6-2.3c0.3,0.1,0.5,0.3,0.8,0.4v0.4l0,0c0-0.1,0.1-0.2,0.1-0.3
			c0.1,0.1,0.1,0.2,0.2,0.3c0.1,0.4,0.3,0.6,0.5,0.6c0.3,0,0.6,0,0.9-0.1c0.2,0,0.3-0.1,0.4,0.2c0.1-0.2,0.1-0.4,0-0.6
			c-0.2,0-0.3,0-0.4,0c-0.2,0-0.4,0-0.5,0c-0.5,0.1-0.6-0.1-0.7-0.7c0-0.1,0-0.3-0.1-0.3c-0.2-0.1-0.5-0.3-0.7-0.4
			c-0.2-0.1-0.4-0.1-0.6-0.1c0,0-0.1,0-0.2,0.1c-0.5,0.3-0.8,0.8-1,1.3c-0.2,0.4-0.4,0.9-0.8,1.1c-0.2-0.3-0.5-0.6-0.6-0.9
			c-0.1-0.2-0.1-0.4-0.1-0.6c0.2-1,0.1-2-0.1-2.9c0-0.1,0-0.1-0.1-0.2c0-0.9-0.5-1.3-1-1.8c-0.2-0.2-0.4-0.4-0.6-0.5
			c0,0-0.1-0.1-0.1-0.2c-0.1-0.3-0.2-0.7-0.2-1c0-0.1,0-0.1,0-0.3c-0.1,0-0.3,0.1-0.4,0.1c0.1,0.3,0.2,0.5,0.2,0.8
			c0.1,0.5,0.2,0.8,0.5,1c0,0,0,0.1,0.1,0.2c-0.5-0.2-0.9-0.7-1.4-0.5c0-0.5-0.1-0.9,0.1-1.3c0.2-0.4,0.4-0.9,0.5-1.3
			c0.2-0.4,0.1-0.8-0.2-1c-0.2-0.2-0.5-0.5-0.7-0.8c-0.3-0.4-0.5-0.9-0.8-1.3c-0.1-0.1-0.1-0.2-0.3-0.1c-0.1,0.1,0,0.3,0,0.4
			c0.3,0.4,0.6,0.9,0.8,1.3c0.3,0.3,0.5,0.7,0.8,1.1c-0.2,0.4-0.4,0.9-0.4,1.4c-0.1,0.5-0.2,1.1-0.3,1.6c-0.1,0-0.3,0-0.4,0
			c-0.3,0-0.5,0.1-0.6,0.3c-0.2,0.2-0.3,0.3-0.6,0.4c-0.4,0.1-0.9,0.3-1.3,0.5c-0.3,0.1-0.6,0.3-0.9,0.5c-0.3-0.5-0.7-0.9-1.2-1.2
			c-0.2-0.1-0.5-0.2-0.6,0c-0.2,0.1-0.3,0.3-0.2,0.6h0.1c0.2-0.3,0.5-0.3,0.7-0.1c0.4,0.3,0.7,0.4,1,0.9c0.2,0.3,0.5,0.4,0.8,0.2
			c0.4-0.2,0.8-0.5,1.1-0.8c0.2-0.1,0.4-0.2,0.7-0.3c0,0.4,0,0.7,0.1,1c0,0.4,0.1,0.8,0.4,1.1c0.2,0.3,0.4,0.6,0.7,0.9
			c0.1,0.1,0.3,0.3,0.5,0.3c0.2,0.1,0.4,0.1,0.6-0.1c0.1-0.1,0.1-0.2,0.3-0.3c0,0.1-0.1,0.2-0.1,0.4c-0.1,0.4-0.1,0.7,0,1.1
			c0.1,0.2,0.2,0.5,0.2,0.8c0,0.1,0.1,0.3,0.2,0.4c0.2,0.3,0.3,0.5,0.5,0.8c-0.3,0-0.5,0-0.6-0.1c-0.5-0.2-1-0.5-1.5-0.7
			c-0.2-0.1-0.5-0.3-0.7-0.4c-0.1,0-0.2,0-0.2,0.1c-0.3,0.3-0.6,0.7-0.8,1.1c-0.1,0.3-0.3,0.6-0.3,0.9c0,0.1-0.1,0.2-0.2,0.2
			c-0.3,0.1-0.6,0-0.9-0.1c0,0.1-0.1,0.3-0.1,0.5c0.2-0.1,0.3-0.1,0.4,0c0.1,0.1,0.3,0,0.4,0c0.2-0.1,0.4-0.1,0.5-0.3
			c0.1,0,0.1-0.2,0.1-0.3c0.1-0.2,0-0.5,0.4-0.5c0.2,0,0.3-0.4,0.4-0.6c0-0.1,0.1-0.3,0.1-0.4c0.3,0.2,0.6,0.4,1,0.6
			c0.5,0.3,1.1,0.5,1.7,0.5c0.3-0.1,0.5-0.2,0.8-0.3c0,0.1,0,0.3-0.1,0.3c-0.1,0.2-0.2,0.4-0.3,0.6c-0.1,0.1-0.3,0.2-0.5,0.2
			c-0.5,0-1,0.1-1.5,0.3c-0.2,0.1-0.4,0.3-0.5,0.5c-0.2,0.2-0.5,0.4-0.7,0.7c0,0.1-0.1,0.3-0.1,0.4c-0.1,0.3-0.2,0.6-0.4,0.7
			c-0.3,0.3-0.7,0.5-1.1,0.8c-0.1,0.1-0.2,0.1-0.4,0.1c0.1,0.2,0.1,0.3,0.2,0.4c0.2-0.2,0.5-0.3,0.7-0.4c0.1,0,0.2-0.2,0.2-0.2
			c0.3,0,0.3-0.3,0.5-0.5c0.1-0.1,0.2-0.4,0.3-0.6s0.2-0.4,0.3-0.4c0.1-0.1,0.2,0,0.3,0c0-0.1-0.1-0.1-0.1-0.2
			c0.2-0.3,0.4-0.6,0.5-0.8c0,0,0.1,0,0.1-0.1c0.4,0,0.7-0.1,1.1-0.1c0.4-0.1,0.7-0.1,1-0.5c0,0,0,0,0.1,0c0.3,0.2,0.4-0.1,0.7-0.1
			c0.2-0.1,0.3,0,0.2,0.3c0,0.3-0.1,0.6-0.1,0.9c0,0.1,0,0.3,0.1,0.5v0.1c-0.1,0.2-0.1,0.5-0.1,0.7c-0.4,0.9-0.2,1.7-0.1,2.6
			c0.1,0.5,0.1,0.9,0.2,1.3c0,0,0,0.1,0.1,0.2c0.2,0.1,0.1,0.3,0.1,0.4c0.1,1.1,0.2,2.3,0.3,3.4c0,0,0,0,0.1,0l0,0
			c0-0.1,0.1-0.2,0.1-0.3c0-0.4-0.1-0.7-0.2-1.1c-0.1-0.8-0.2-1.6-0.2-2.3c0-0.8-0.2-1.4-0.3-2.2c-0.1-0.6,0-1.1,0.1-1.6
			c0.1-0.3,0.1-0.7,0.1-1l0,0c0.3-0.4,0.2-1,0.4-1.6c0,0.1,0.1,0.2,0.1,0.2c0,0.3,0,0.4,0.2,0.6c0,0,0.1,0.2,0,0.3
			c-0.4,0.9-0.4,1.7-0.2,2.6c0.2,0.9,0.5,1.7,0.9,2.4c0.3,0.5,0.6,0.9,1.1,1c0.3,0.1,0.7,0.1,1-0.1c1.3-0.9,1.8-2.5,1.2-4.1
			c-0.2-0.6-0.4-1.2-0.9-1.7l-0.1-0.1c-0.3-0.8-0.9-1.1-1.6-1.1c-0.3,0-0.5,0.2-0.8,0.3c0.1-0.2,0.3-0.4,0.4-0.6c0,0,0,0,0.1,0
			c0.3,0.1,0.4-0.2,0.5-0.4c0.1-0.2,0.3-0.4,0.4-0.6c0.2-0.4,0.5-0.4,0.7-0.5c0,0,0.1,0,0.1,0.1c0.6,0.4,1.2,0.7,1.7,1.1
			c0,0,0,0.1,0,0.2c0.1,0,0.2-0.1,0.3-0.1s0.1,0,0.2,0.1c0.2,0.3,0.4,0.6,0.6,0.9c0.2,0.2,0.4,0.4,0.7,0.6s0.5,0.2,0.8,0.3
			c0.1,0,0.2,0,0.3,0s0.1,0.1,0.2,0.1c0,0,0.1-0.1,0.1-0.2v-0.2C627.2,429.3,627.2,429.2,627.2,429.2z M617.2,422.5
			c0.2-0.2,0.4-0.4,0.6-0.7c0.1-0.3,0-0.7-0.2-1.1c0.2,0.1,0.3,0.2,0.4,0.3l0.1,0.1c0.1,0.4,0.1,0.8,0.2,1.2c0,0.3,0,0.5,0,0.8
			C617.9,422.9,617.5,422.7,617.2,422.5z"/>
	</g>
	<g id="roaches_1_">
		<path d="M562.7,425.7c-0.1,0-0.1,0-0.2,0.1C562.6,425.8,562.7,425.8,562.7,425.7z M557.6,449.6c1.4-0.3,2.7-0.7,4-1.6
			c0.4-0.5,0.7-0.7,1.1-1c0.1-0.1,0.3-0.2,0.4-0.3c0.1,0,0.2-0.1,0.2-0.1c0.2-0.1,0.3-0.2,0.5-0.3c0.5-0.3,0.9-0.8,1.1-1.1
			s0.4-0.7,0.6-1.1c-0.1,0.3,0.1,0.5-0.2,0.9c0,0.2,0.1-0.1,0.1-0.1c0,0.3,0,0.6,0,0.9c0.1,0.2,0.3,0.4,0.3,0.6v0.1
			c0.1,0.2,0.1,0.5,0.2,0.7l0,0c0,0.1,0.1,0.2,0.1,0.2l0,0c0,0,0,0.1,0.1,0.1c0,0.1,0,0.2,0.1,0.3v0.1l0,0c0,0.1,0.1,0.2,0.1,0.3
			s0.1,0.2,0.1,0.3c0,0.1,0.1,0.2,0.1,0.3c0.1,0.2,0.2,0.4,0.3,0.5l0,0c0.1,0.1,0.2,0.1,0.1,0c0,0,0,0,0.1,0.1c0,0.1,0-0.2-0.1-0.2
			c-0.1-0.3-0.5-1-0.6-1.6c0-0.1,0-0.1,0-0.2s0-0.2-0.1-0.2c-0.1-0.3-0.2-0.7-0.3-1c-0.1-0.2-0.2-0.6-0.2-0.8
			c0.1-0.8,0.3-1.6,0.2-2.3c0.6-1.3,1.1-2.6,1.6-4c1.3,0.5,2.9,1.6,4.2,3.1c0,0.2,0,0.4,0.3,0.5c0-0.1-0.1-0.3-0.1-0.4
			c0.1-0.2,0.2,0,0.4,0.2c0.1-0.3-0.3-0.4-0.4-0.4c-0.3-0.4-0.6-0.8-1-1.1c0,0.1,0,0.1,0,0.2c-0.2-0.1-0.3-0.3-0.4-0.4
			c0.1-0.1,0.2,0.2,0.3,0.2c-0.3-0.5-1-1-1.7-1.5c-0.2-0.1-0.6-0.3-0.8-0.4v-0.2c-0.1-0.1-0.4,0-0.4-0.2c0.1-0.4,0.3-0.8,0.3-1.1
			c0-0.2,0.1-0.3,0.2-0.3c0.2-0.5,0.2-1.2,0.3-1.7c0-0.1,0.1-0.2,0.1-0.3c0-0.2,0-0.5,0.1-0.7c0.1-0.3,0.3-0.6,0.5-0.8
			c0-0.1,0-0.2,0-0.3c0-0.3,0.2-0.5,0.1-0.7c0-0.3-0.2-0.7-0.2-1.1c-0.1-0.2-0.3-0.4-0.5-0.5c-0.1,0.1,0,0.2-0.1,0.2
			c0,0.1-0.2-0.3-0.2-0.3c0-0.1,0-0.1,0-0.1l0,0c-0.1,0-0.1-0.2-0.1-0.2c0-0.1,0-0.2,0-0.2c0-0.2-0.1-0.3-0.1-0.5
			c0.3-0.2,0.6-0.4,0.9-0.7c0.1-0.1,0-0.2,0.1-0.3c0.5-0.5,0.9-1.2,1.2-1.9c0.2-0.4,0.5-1,0.6-1.2c0.1-0.1,0.1-0.2,0.2-0.2
			c0,0-0.1,0.1-0.2,0.1c0.1-0.4,0-0.9,0-0.4l0,0c0,0.1,0,0-0.1,0.2l0,0c0,0.1-0.1,0.3-0.1,0.4c0,0-0.1,0-0.1,0.2c0,0,0,0,0.1,0
			c0,0-0.1,0.1-0.1,0.2c-0.2,0.1-0.3,0.4-0.3,0.7c-0.1,0.1-0.5,0.5-0.4,0.8c-0.1,0.2-0.2,0.1-0.3,0.2c-0.5,1-1,1.4-1.6,1.5
			c-0.2-0.3-0.3-0.6-0.5-0.9c0-0.1-0.1-0.2-0.2-0.3l0,0l0,0c-0.3-0.6-1-1.5-1.9-2.2l-0.1-0.1l0,0c-0.3-0.2-0.6-0.4-1-0.4
			c-0.5-0.1-1,0-1.5,0.1c0-0.1,0,0-0.1,0c0.5,0,1-0.2,1.6-0.1c0.4,0.2,1.1,0.6,1.8,1.2c0.1,0.2,0.2,0.3,0.3,0.3
			c0,0.1,0.1,0.1,0.1,0.2c0,0.1,0.1,0.1,0.2,0.3c0-0.1,0-0.1,0-0.1s0,0.1,0.1,0.1c0,0.1,0,0.3,0.1,0.2c0,0.1,0.1,0.4,0.3,0.4v-0.1
			c0,0.1,0,0.1,0.1,0.1v0.1l0.1,0.1v-0.1v0.1l0,0c0,0.2,0.2,0.6,0.3,0.4c-0.1,0.2,0,0.4,0.3,0.5c-0.1,0-0.2,0.1-0.1,0.2
			c-0.1,0.1-0.3,0.1-0.5,0.2s-0.4,0.3-0.5,0.5c-0.5-0.1-0.9,0-1.3,0.1l0,0c-0.1,0-0.5,0.1-0.9,0.1c0-0.4-0.1-0.7-0.5-1l0,0
			c-0.2-0.1-0.6-0.5-1.1-0.7c-0.6-0.3-1.4-0.5-1.8-0.7c-0.3-0.2-0.4-0.4-0.6-0.5c-0.2-0.2-0.5-0.6-0.7-0.8c-0.3-0.3-0.7-1.2-0.8-1.1
			l0,0l0,0c0,0.1,0,0.1,0,0.1c0,0.1,0.1,0.1,0.1,0.1c0,0.4,0.5,0.4,0.3,0.8c0.1,0,0.1,0,0.2-0.1c0,0.2,0.3,0.4,0.4,0.6
			c0.1,0.1,0.1,0.2,0.2,0.3c0.2,0.4,0.9,0.7,0.9,1.1c1,0.7,1.7,0.6,2.8,1.4c0,0.2,0,0.4,0,0.6c-0.5,0.1-0.8,0.2-1.1,0.3
			c-0.3,0.1-0.6,0.3-0.8,0.4c-0.1-0.3-0.1-0.6-0.2-0.9l0,0c0,0-0.4-1.1-1.3,0l0,0c-0.1,0-0.1,0.2-0.2,0.2c-0.1,0,0,0-0.2,0.1
			c-0.1,0.1-0.4,0.2-0.5,0.3c-0.2,0.2-0.4,0.6-0.7,0.6c0,0.3-0.5,0.5-0.7,0.7c-0.2,0.1-0.3,0.3-0.5,0.1c0.2,0.3-0.2,0.4-0.4,0.2
			c0,0.1,0.1,0.1,0.1,0.2c-0.6,0.2-1.5-0.2-2.2-0.6c-0.3-0.2-0.6-0.6-0.9-0.7c-0.2,0-0.3-0.2-0.5-0.4c-0.1,0,0.2,0.1,0.2,0.3
			c-0.1,0.3-0.3,0.3-0.5,0.3c0.1,0.2,0.4,0.1,0.5-0.1c0.6,0.6,1.3,0.7,1.9,1.2c0.5,0.1,1,0.2,1.4,0.2c0,0.1,0,0.2,0,0.1
			c0,0.2,0.2-0.1,0.3,0c0,0.2-0.1,0.2-0.1,0.1c0,0.1,0.2,0.1,0.2-0.1c0,0.1,0,0.1,0,0.2c0.2-0.1,0.4-0.5,0.7-0.4
			c-0.1-0.2,0.1-0.4,0.3-0.3c0.3-0.3,0.5-0.7,0.8-0.6c-0.1-0.2,0.1-0.4,0.2-0.4c0,0.1-0.1,0.3,0,0.4c0.2-0.7,1-1.3,1.5-1.4
			c0.1,0.2,0,0.3,0.1,0.5c-0.1,0.1,0-0.1-0.2-0.1c0,0.1,0.2,0.2,0.2,0.3c-0.1,0.1-0.2,0.3-0.3,0.2c-0.1,0.3-0.8,0.6-1.2,0.7
			c-0.6,0.3-1.1,1-1.7,1.3c-0.1,0.4-0.4,0.3-0.6,0.4c-0.1,0.1-0.2,0.3-0.4,0.5c-0.4,0.4-0.8,0.7-1.2,1.2c-0.3,0.4-0.6,0.8-0.9,1.2
			c-0.2-0.1-0.3-0.3-0.4-0.2c0-0.1-0.2-0.4-0.1-0.1c-0.2-0.3-0.2-0.1-0.4-0.3c0.1,0.4,0.5,0.6,0.9,1c0,0.2,0,0.4,0,0.5
			c-0.1,0.3-0.2,0.5-0.2,0.5l0,0c-0.3,0.7-0.3,1.4,0.4,2l0,0c0.1,0.1,0.2,0.1,0.2,0.1c-0.3,0.2-0.7,0.8-0.8,1.1
			c-0.2,0.2-0.4,0.3-0.6,0.3c0,0.4,0.4,0,0.6,0.1c0.3-0.3,0.7-0.5,1-0.9c0.1-0.1,0.3-0.2,0.4-0.3c0.5,0.3,0.8,0.4,1,0.4
			c0.5,0.2,1.1,0.1,1.5,0.1c0.3,0,0.6,0,0.9,0c0.4,0,0.7,0,1.4-0.4c0.5-0.3,0.8-0.5,0.9-0.6l0,0c0,0.3,0.2,0.5,0.2,0.8
			c0.1,0.6,0.1,1.1,0.1,1.7c-0.1,0.1-0.2,0.1-0.3,0.1c0,0.2,0.2,0,0.3,0c0.1-0.3,0-0.4,0-0.6c0.1,0.1,0,0.7,0.1,1
			c-0.7,0.2-1.5,0-2.2-0.1c0,0-0.2,0.2-0.2,0c-0.4,0.3-0.9-0.1-1.2,0c-0.1-0.1,0.1-0.3,0-0.3c-0.1,0.3-0.6,0.2-0.6,0
			c-0.2,0.5-0.5,0-0.7-0.1c0,0.1,0.2,0.2,0.2,0.3c-0.7,0.4-1.5,0.9-2.2,1.9c-0.1,0.1-0.3,0.1-0.4,0.2c-0.1,0.3-0.2,0.4-0.4,0.5
			c-0.2,0.3-0.2,0.6-0.4,0.7c0.3,0.1,0.6-0.1,0.7-0.6c0.2-0.1,0.4-0.3,0.5-0.6c0.2,0,0.5-0.3,0.5-0.6c0.5-0.4,1.1-1,1.7-1.1
			c0,0.3-0.3,0.2-0.5,0.3c0.2,0.1,0.4-0.1,0.6-0.2c0.5,0,0.7,0,1.2,0.1c0,0.1,0,0.1-0.1,0.2c0.2,0,0.1-0.1,0.2-0.2
			c0.1,0.3,0.5-0.2,0.8,0.3c0.4-0.2,1.3,0.2,1.8,0.1c0,0.1,0,0.2,0,0.2c0.1,0,0.1-0.1,0.1-0.1c0.3-0.1,0.9-0.2,0.9-0.8
			c0-0.1,0.1-0.1,0.1,0c0.1-0.4,0.1-0.7,0.1-1.1c0-0.6,0-1.1-0.1-1.4c0-0.4-0.1-0.8-0.2-1.2c0-0.1,0-0.1,0-0.1
			c0.2-0.2,0.5-0.5,0.7-0.7c0.1,0,0.2,0,0.2-0.1c0.1,0.1,0,0.2,0,0.3c0.1,0.1,0.1-0.1,0.1-0.1l0,0l0,0c0,0.1,0.3,0.1,0.3,0.3
			l-0.1,0.1c0.1,0.1,0.1-0.1,0.1-0.1c0,0.1,0.1,0.2,0.2,0.4c0.1,0.1,0.3,0.1,0.4,0.2c0.2,0.3,0.4,0.7,0.6,0.9
			c-0.1,0-0.3-0.3-0.3-0.4c-0.1,0.2,0.4,0.6,0.3,0.9c0,0,0.1-0.1,0.1,0c0.1,0.1,0,0.3,0,0.5s0-0.1,0.1-0.1c0,0.3,0.2,0.6,0,0.9
			c0.2,0.1,0.1,0.6,0,1c0,0,0,0,0.1-0.1c0.1,0.2,0,0.3,0,0.6c-0.3,0.6-0.6,1.2-1.1,1.8c-0.6,0.7-1.1,0.7-1.4,1
			c-0.1,0-0.2,0.1-0.3,0.2l0,0l0,0c0,0,0,0-0.1,0.1c-0.8,0.9-1.6,1.4-2.5,1.8C559.4,448.9,558.5,449,557.6,449.6z M564.4,429.7
			L564.4,429.7L564.4,429.7L564.4,429.7z M567.5,430.4c0.1-0.1,0.2-0.2,0.3-0.3c0.1,0,0.2,0,0.3-0.2c0,0.2,0.1,0.3,0.2,0.5
			c-0.1,0.1-0.1,0.2-0.1,0.3c-0.2,0-0.3-0.1-0.5,0C567.7,430.5,567.6,430.5,567.5,430.4z M566.9,437.7c-0.2,0-0.5-0.4-0.5-0.5
			c0,0.1,0.2,0.1,0.2,0c-0.1,0-0.4-0.1-0.5-0.2c0.4,0.1,0.7,0.1,0.7,0.1l0,0c0.5-0.1,1-0.6,0.9-1.2c-0.2,0.1,0,0.3-0.2,0.5
			c-0.2,0.2-0.5,0.1-0.7,0.3c-0.1-0.1-0.2-0.1-0.2-0.1c0.1,0,0.1,0,0.2,0c0.3-0.3,0.9-0.6,0.9-1c-0.3,0.3-0.6,0.8-1,0.7
			c0.1-0.2,0.2-0.5,0.4-0.4c0,0.1,0,0.1,0,0.2c0.4-0.5,0.9-1.2,1.4-0.8c0.1,0.4-0.2,0.9-0.3,1.4l0.1,0.1h-0.1
			c-0.1,0.6-0.4,1.4-0.6,2C567.4,438.4,566.7,437.9,566.9,437.7z M565.9,442.8c0-0.6-0.1-1.1,0-1.7c0,0,0.1,0.1,0.1,0
			c-0.1-0.1-0.1-0.3-0.2-0.4c-0.1-0.9-0.5-1.4-0.6-1.6V439c-0.1-0.1-0.1-0.2-0.1-0.2c-0.1-0.2-0.3-0.5-0.5-0.7
			c-0.2-0.1-0.3,0.2-0.4,0.1c0.2-0.2,0.5-0.5,0.7-0.7c0.2,0.1,0.3-0.1,0.5-0.2c0.2,0.2,0.3,0.4,0.4,0.6c0.1-0.3,0.4,0.4,0.5,0.5
			c0-0.1,0-0.2,0.1-0.1c0.4,0.3,0.6,0.5,1,0.8C566.9,440.2,566.5,441.7,565.9,442.8z M568.5,430.9
			C568.6,430.9,568.5,430.8,568.5,430.9L568.5,430.9z"/>
	</g>
</g>
<path class="st6" d="M412.8,922.9l3.7,2c1.6,0.9,3.2,1.4,4.9,1.6c4.6,0.5,9.3-1.5,12.1-5.5l98.8-143.9c0.6-0.8,1.2-1.7,1.7-2.6
	c0-0.1,0-0.2,0.1-0.2c5.2-8.8,15.8-34.3,22.3-55.1c15.9,20.3,30.7,40,35,46.1c-8.3,50.7-7.1,104.7,0.9,160.9
	c0,10.2,7.3,18.4,16.7,20.1c-1.4,3.4-2.9,5.8-3.2,6.7v0.2c-1.1,3.4-5.5,31.3-4.4,33.1v0.1c0.3,0.4,0.7,0.8,1.2,0.9l7.1,1.8
	c0.2,0,0.5,0.1,0.7,0.2l6.6-43c-1.2-3.9-2.4-7.7-3.5-11.6c-14.2-50.8-15.7-101.5-5.1-152.1c1.7-8.2,3.8-16.5,6.1-24.7
	c0.5-1.8,1-3.7,1.6-5.5c-21.2-12.3-39.6-28.3-55.9-46.8c-21.7-24.6-39.4-53.5-54.6-83.7c-3.5-11-0.3-20.2-0.2-29
	c0.1-9.4,0.1-26.9,0.1-26.9s-9.8-95-1.4-138.7l1-16.9l-23,24l8-5c0.7,26.6-3.1,146.4-3.1,146.4s-6.3,47.3,6.1,69.1v0.1
	c0.7,2.4-0.5,10-2.2,18.7l29.4,44.1c5.6,20.1-1.2,37.4-14.3,53.2c-1.1,1.3-2.2,2.6-3.4,3.9c-0.1,7.8-1.5,15.8-4,23.8
	C487.2,826.6,452.4,868,412.8,922.9z"/>
<g>
	<path class="st2" d="M561.5,350.9c9.8,22.1,47.7,31.4,51.4,13.5c0.1-0.5,0.3-4.7,0.4-10.5c0-0.1,0-0.3,0-0.4c0-0.9,0.1-1.8,0.1-2.7
		c0-0.5,0-1.1,0-1.8c0.1-2.1,0.1-4.3,0.1-6.5c0.3-14.5,0.6-30.9,0.6-30.9l-23.1-4.2c0,0,0,0.1-0.1,0l-4.5-0.8l-0.7-0.1l-4.7-0.9
		l-7-1.3l-11.7-2.1l-0.2,10.2L562,321l-0.3,15.2l-0.2,8.6v0.4l-0.1,3.1v1.4L561.5,350.9z"/>
	<g>
		<path class="st2" d="M558.7,312.6c0.3,7.2,12.3,0.8,19.6,1.5l0,0l0,0c0.1,0,0.3,0,0.4,0c0.1,0,0.2,0,0.3,0l0,0
			c-0.4,3.9,0,7.6,0.8,11.1c2.4,9.9,9.2,17.8,16.2,22.5l0,0c3.5,2.3,7.1,3.8,10.3,4.4l10,1c4.6,0.4,8.1-1.9,10.6-5.2
			c0.6-0.7,1.1-1.5,1.5-2.3c1.8-3.1,2.8-6.7,3.1-9.9c0,0-0.1-17.5,0.1-20.5l4.5-1c3-0.5,4.9-3.6,4-6.4l-4.1-11.1l-0.9-2.5
			c0,0,1.4-2.4,2.6-5.4c0.1-3.3-0.1-6.3-0.4-9.3c-0.6-5.7-2-10.6-3.9-15l0,0c-6.4-14.6-19.3-22.1-33.2-23.5
			c-8.1-0.5-18.6-1.7-28,1.9c-10.6,4.1-19.8,14.4-22,39.1C550.4,292.5,558.4,304.6,558.7,312.6z"/>
		<path class="st1" d="M559,323.4c9.2,2.6,14.3,1.1,16.9-2.2c0.3-0.4,0.6-0.8,0.8-1.2c1-1.7,1.4-3.7,1.6-5.9l0,0l0,0
			c0.6-8.5-3.8-18.9-3.8-18.9s6.4,11.7,8.8,15l0,0c5.1,0.2,5.1,0.2,9.7,0.2c4.1-39.4-2.5-57.6,40.5-45.8l0,0l0,0
			c-5.1-17.6-23.7-32.1-37.6-29.4c-8.5,1.7-16.9,3.6-24.1,6.5c-12.2,4.9-21.4,12.6-23.5,27.1C546.3,282.2,544.5,289.6,559,323.4z"/>
		<path class="st2" d="M569,297.9c-0.4,7.3,5.3,16,10,16.3c4.8,0.3,4.6-5.7,5-12.9c0.3-4.8,1.9-11.6-3.2-13.4
			C576.3,286.3,569.6,287.2,569,297.9z"/>
	</g>
	<path class="st0" d="M636.3,273.2l-35.3,3.7l0,0l-34.7,3.7l-1.1,0.1l-1.5,0.2l-16.7,1.8l0.5-17.4c1-13.5,12.6-26.5,25.9-29.2
		l21.2-4.3c18.7-3.8,35.2,9.8,39.4,28.3c0.1,0.5,0.2,1.1,0.3,1.7l0.7,4.2L636.3,273.2z"/>
	<path class="st7" d="M672.2,269.6c-3.9,6.4-10.2,9-19,9.8c-5.6,0.5-12.2,0.3-19.8,0c-8-0.3-31.2-2.4-32.4-2.5
		c10.6-5.2,20.9-9.1,34.1-10.9c0,0,8,0.5,16.6,1.2C661.5,267.9,672.2,268.9,672.2,269.6z"/>
	<path class="st8" d="M635.2,294.1l0.9,2.5c-24.5-1.8-48.4-10.3-72.5-15.8l1.5-0.2l1,0.2c0.1-0.1,0.1-0.2,0.2-0.3l34.7-3.7l0,0
		c1.2,0.1,24.4,2.1,32.4,2.5c1.4,0,2.7,0.1,4,0.1c0.3,2.9,0.5,6,0.4,9.3C636.6,291.7,635.2,294.1,635.2,294.1z"/>
	<path class="st8" d="M584.9,331.1c-1.9-1.7-3.6-3.7-5.1-5.8c2.4,9.9,9.2,17.8,16.2,22.5l0,0c3.5,2.3,7.1,3.8,10.3,4.4l10,1
		c4.6,0.4,8.1-1.9,10.6-5.2c0.6-0.7,1.1-1.5,1.5-2.3c-3.2,0.7-6.6,0.8-9.9,0.6c-6.2-0.5-12.3-2.5-18-5.1
		C595,338.5,589.5,335.4,584.9,331.1z"/>
</g>
<path class="st2" d="M384.7,565.7l19.3,5.8L444.9,464l1.3-3.9c2-5.8,2-11.8,0.6-17.2c-2-7.4-7.1-13.6-14.2-16.3l-0.5-0.2
	c-9.9-3.8-20.9,0.4-27.1,9.6c-1.5,2.1-2.7,4.5-3.5,7.1C390.6,480.6,390,522.5,384.7,565.7z"/>
<path class="st2" d="M415.6,455.2c3.5,3.1,13.1,5.4,17.8,5.7c3,0.2,12.1-0.5,12.1-0.5l12.6-9.3l19.9-14.7l16.8-12.5l11.6-8.5l0,0
	l0.9-0.6l0.9-0.7l1.1-0.8l0.6-0.4l0,0l1.4-1l0,0h0.1l0.4-0.3l0.2-0.2l1.5-1.1l0.6-0.4l1-0.8l0.8-0.6l0.8-0.7l3.2-2.4l2-1.5l1.7-1.3
	l2.9-2.1l0,0l0,0l0.3-0.2l0.6-0.5c0.2-0.2,0.3-0.3,0.5-0.4c9.9-8,11.7-22.5,3.9-32.7l-0.3-0.4c-7.9-10.4-22.8-12.4-33.2-4.4
	l-3.6,2.7l-82.4,61.1c-3.2,2.4-5.6,5.5-7.2,8.9C401.7,442.2,408.9,449.2,415.6,455.2z"/>
<path class="st4" d="M527,400.6l-50,38c-10-13.3-19.1-29-34-40l49.6-35c6.3-4,12.7-6.7,18.4-7C536.7,355.2,550.1,384.9,527,400.6z"
	/>
<path class="st9" d="M581.9,606.6L581.9,606.6L581.9,606.6l46.2,64.2c-9.6-22-20-44.1-28.3-61.1l-8.1-1.3L581.9,606.6z"/>
<path class="st2" d="M394.4,606.8c-1.8,2.3-5.9,3.9-8.7,4.7c-8.1,2.4-13.4,2.6-20.7,2.8c-8.8,0.2-7.1-20.8-5.7-21.9
	c1.4-1.1,3.4-1.5,4.9-0.6c3.5,2.1,1.8,8.7,5.6,10.2c1.3,0.5,2.7,0.1,4-0.3c3.4-1.2,7.1-3.6,7.2-7.3c0-2.5-1.6-4.6-2.7-6.8
	c-2.8-5.7-1.3-16.6,3.2-21.1s11.7-2.3,17.5,0.5c2.6,1.3,4.9,3.5,5.5,6.3C404.7,575.2,396.7,603.9,394.4,606.8z"/>
<rect x="136.3" y="853.3" transform="matrix(0.4353 -0.9003 0.9003 0.4353 -745.1525 649.1749)" class="st1" width="17.3" height="130.5"/>
<path class="st10" d="M360.1,587.2c-2.8,5.8-0.2,12.8,5.8,15.7s13.1,0.6,15.9-5.2s0.2-12.8-5.8-15.7
	C370,579.2,362.9,581.5,360.1,587.2z"/>
<path class="st11" d="M236.4,738.2l-38.1-18.3c-4.5-2.2-10.3,0.4-12.8,5.8l-14,29.1l5.4,2.6l10.9-22.7l43.5,21l-10.9,22.7l5.4,2.6
	l14-29.1C242.4,746.4,240.9,740.3,236.4,738.2z"/>
<path class="st12" d="M99.5,771.9l-33.6,88.7c-2,5.2-0.3,10.6,3.9,12.6l126.8,61c4.2,2,9.5-0.1,12.3-4.8l48.4-81.6L99.5,771.9
	L99.5,771.9z"/>
<path class="st12" d="M273.6,809.9c1.6-5-0.2-10.1-4.1-12l-138.6-66.7c-4-1.9-9-0.1-12,4.2l-7,10.5l157.8,76L273.6,809.9z"/>
<path class="st13" d="M257.3,847.9l-157.8-76c-3-1.4-4-5.5-2.3-9.1l6.2-12.9c1.7-3.6,5.6-5.3,8.6-3.9l157.8,76c3,1.4,4,5.5,2.3,9.1
	l-6.2,12.9C264.1,847.6,260.3,849.3,257.3,847.9z"/>
<path class="st12" d="M270.5,834.3l-168.7-81.2l-3.1,6.5l17.7,8.5c2.3,1.1,3,4.1,1.7,6.8l-2.3,4.9l8.2,3.9l4.7-9.7l74.8,36
	c2.3,1.1,3,4.1,1.7,6.8l-2.3,4.9l8.2,3.9l4.7-9.7l51.7,24.9L270.5,834.3z"/>
<path class="st11" d="M142.6,800.7l-21.8-10.5c-1.5-0.7-2-2.8-1.2-4.5l7.8-16.2c0.9-1.8,2.8-2.6,4.3-1.9l21.8,10.5
	c1.5,0.7,2,2.8,1.2,4.5l-7.8,16.2C146,800.5,144.1,801.4,142.6,800.7z"/>
<path class="st14" d="M145.7,794.2l-21.8-10.5c-1.5-0.7-2-2.8-1.2-4.5l-3.1,6.5c-0.9,1.8-0.3,3.8,1.2,4.5l21.8,10.5
	c1.5,0.7,3.4-0.1,4.3-1.9l3.1-6.5C149.1,794,147.2,794.9,145.7,794.2z"/>
<path class="st11" d="M229.7,842.6l-21.8-10.5c-1.5-0.7-2-2.8-1.2-4.5l7.8-16.2c0.9-1.8,2.8-2.6,4.3-1.9l21.8,10.5
	c1.5,0.7,2,2.8,1.2,4.5l-7.8,16.2C233.1,842.4,231.2,843.3,229.7,842.6z"/>
<path class="st14" d="M232.8,836.1L211,825.6c-1.5-0.7-2-2.8-1.2-4.5l-3.1,6.5c-0.9,1.8-0.3,3.8,1.2,4.5l21.8,10.5
	c1.5,0.7,3.4-0.1,4.3-1.9l3.1-6.5C236.2,836,234.3,836.8,232.8,836.1z"/>
<path class="st1" d="M195.7,969l-12.2-5.9l181-373c1.7-3.5,5.7-4.9,9.1-3.3l0.1,0.1c3.3,1.6,4.7,5.7,3,9.2L195.7,969z"/>
<g>
	<path class="st1" d="M168.8,955.9c-5.4,11.1-0.4,24.6,11.1,30.2c11.5,5.6,25.2,1.1,30.6-10s0.4-24.6-11.1-30.2
		S174.1,944.8,168.8,955.9z"/>
	<path class="st15" d="M179.3,961c-2.7,5.5-0.2,12.2,5.5,15s12.5,0.6,15.2-5c2.7-5.5,0.2-12.2-5.5-15
		C188.7,953.3,181.9,955.5,179.3,961z"/>
</g>
</svg>
