<?xml version="1.0" encoding="utf-8"?>
<!-- Generator: Adobe Illustrator 22.1.0, SVG Export Plug-In . SVG Version: 6.00 Build 0)  -->
<svg version="1.1" id="Layer_1" xmlns="http://www.w3.org/2000/svg" xmlns:xlink="http://www.w3.org/1999/xlink" x="0px" y="0px"
	 viewBox="0 0 450 1000" style="enable-background:new 0 0 450 1000;" xml:space="preserve">
<style type="text/css">
	.st0{fill:#EFEFEF;}
	.st1{fill:#2F2E29;}
	.st2{fill:#003333;}
	.st3{fill:#171716;}
	.st4{fill:#242423;}
	.st5{fill:#FED0A9;}
	.st6{fill:#A93939;}
	.st7{fill:#F2C194;}
	.st8{opacity:0.1;fill:#1D1D1B;enable-background:new    ;}
	.st9{opacity:0.14;fill:#1D1D1B;enable-background:new    ;}
	.st10{fill:#FFCFA1;}
	.st11{fill:#919190;}
	.st12{fill:#9D9D9C;}
	.st13{opacity:5.000000e-02;fill:#1D1D1B;enable-background:new    ;}
</style>
<g id="tenkeboble">
	<path class="st0" d="M240.1,244.9c0,6.7,6.7,12.2,14.9,12.2c8.2,0,14.9-5.4,14.9-12.2c0-6.7-6.7-12.2-14.9-12.2
		S240.1,238.2,240.1,244.9z"/>
	<ellipse class="st0" cx="202.7" cy="227.6" rx="29.3" ry="24"/>
	<ellipse class="st0" cx="118.8" cy="134.1" rx="98.2" ry="80.2"/>
</g>
<g id="Layer_1_1_">
	<g>
		<g>
			<g>
				<path class="st1" d="M311.4,974.3l0.1,0.8l0.3,2.7l0.5,5.1l0.2,2.3c1,0.1,2.1,0.1,3.1,0.2c7.3,0.4,14.7,0.6,20.3-2.3l0.1-5.4
					l-13.1-1.8l-2.3-0.3l-9-1.2L311.4,974.3z"/>
				<g>
					<path class="st1" d="M240.8,975.8l0.5,6.9c14.2,5.5,37.3,6.1,67.8,0.7c1.1-0.2,2.2-0.4,3.3-0.6c1.8-0.3,3.6-0.7,5.5-1.1
						c5.9-1.2,11.9-2.6,18.3-4.1v-0.3l-0.4-5.6c0-0.2,0-0.4,0-0.6l-0.1-2h-0.1l-9.6,0.7l-3.2,0.2l-9.9,0.7L240.8,975.8z"/>
					<path class="st2" d="M335.7,971.8c-2.5,1.5-7,2.9-12.7,4c-3.4,0.7-7.1,1.4-11.2,1.9c-0.4,0-0.7,0.1-1.1,0.2
						c-26.8,3.5-64.5,3.8-69.9-2.1c-0.3-4.7,7.4-9.7,21.3-15.1c1.4-0.5,2.8-1,4.3-1.6c1.1-0.4,2.1-0.7,3.3-1.1
						c1.4-0.5,2.9-1,4.4-1.5l0,0c1-0.3,2.1-0.7,3.2-1l0,0c1.5-0.5,3.1-0.9,4.7-1.4c1.9-0.6,3.8-1.1,5.7-1.7c2.1-0.6,4.2-1.2,6.4-1.8
						c10.4-2.9,18.3-3,24.1-1.6c8.5,2,12.9,7.4,15.1,12.7c1.2,2.7,1.8,5.4,2.1,7.6c0.1,0.7,0.2,1.4,0.2,2
						C335.7,971.4,335.6,971.6,335.7,971.8z"/>
				</g>
			</g>
			<path class="st3" d="M282,954.1l40,16.1l9.1,3.7l5,2l4.2,1.7l2.4-30.1L360.9,716v-0.1l7.9-100.7l4-51.6l0.9-11.9l0.2-2.8l-26.4-7
				l-32.3-8.6c0.2,0.2-0.1,2-0.5,4.9c-0.5,3-1.1,7.3-2,12.6c-2.3,15.2-5.7,39.1-7.4,67.1c-2.6,43.3-13.1,96-16.8,148.7
				C281.8,862.7,282,954.1,282,954.1z"/>
			<g>
				<path class="st1" d="M403.2,978.9l0.1,0.8l0.3,2.6l0.6,5.1l0.3,2.3c1,0,2.1,0.1,3.1,0.2c7.3,0.3,14.7,0.4,20.3-2.6v-5.4
					l-13.1-1.6l-2.3-0.3l-9-1.1H403.2z"/>
				<g>
					<path class="st1" d="M332.6,981.6l0.6,6.9c14.3,5.2,37.4,5.5,67.8-0.3c1.1-0.2,2.2-0.4,3.3-0.6c1.8-0.4,3.6-0.7,5.5-1.1
						c5.8-1.3,11.9-2.7,18.2-4.4v-0.3l-0.5-5.6c0-0.2,0-0.4,0-0.6l-0.2-2h-0.1l-9.6,0.8l-3.2,0.3l-9.9,0.8L332.6,981.6z"/>
					<path class="st2" d="M427.4,976.1c-2.5,1.6-7,3-12.6,4.2c-3.4,0.8-7.1,1.5-11.2,2.1c-0.4,0-0.7,0.1-1.1,0.2
						c-26.8,4-64.5,4.8-69.9-1c-0.4-4.7,7.2-9.8,21-15.4c1.4-0.5,2.8-1.1,4.3-1.6c1-0.4,2.1-0.8,3.2-1.2c1.4-0.5,2.9-1,4.4-1.6l0,0
						c1-0.4,2.1-0.7,3.2-1.1l0,0c1.5-0.5,3-1,4.6-1.5c1.9-0.6,3.8-1.2,5.7-1.8c2.1-0.6,4.2-1.2,6.4-1.9c10.4-3,18.2-3.3,24.1-2
						c8.5,1.9,13,7.2,15.3,12.5c1.2,2.7,1.8,5.4,2.2,7.5c0.1,0.7,0.2,1.4,0.3,2C427.4,975.7,427.4,975.9,427.4,976.1z"/>
				</g>
			</g>
			<path class="st4" d="M367.4,963l41.6,11.1l9.5,2.5l5.2,1.4l4.3,1.2l-1.3-30.2l-11.4-161.5l1.5-70.4l-4.3-101l-2.2-51.7l-0.5-12
				l-0.1-2.8l-27-3.8l-33.1-4.7c0.2,0.2,0.2,2,0.1,5S310.2,559,310,564.4c-0.5,15.4-3.1,74.3,38.2,88c2.9,48.5-2.4,77.7,0.6,136.2
				C353.2,877.2,367.4,963,367.4,963z"/>
		</g>
		<polygon class="st5" points="156.4,409.9 157.9,310.8 159.5,409.9 		"/>
		<path class="st6" d="M368,355.6l-73.2-1.6c2,16.8-0.4,34-2.5,51.3c21.4,2.5,42.2,3,62.4,1.2L368,355.6z"/>
		<path class="st7" d="M185.4,308.5c-8.2-4.2-15.2-14.6-31.3-17.7c-7,3.9-4.5,26.9-12.2,36.4c7.1,7.2,30.6,6.6,38.8,2.1L185.4,308.5
			z"/>
		<path class="st7" d="M385.7,346.4c-12.4,18.5-50.3,35.7-50.3,35.7l-0.4-20.6l-0.5-31.7l-0.7-41.2c4.2,0.8,26.1-5.2,44.5-5.1
			L385.7,346.4z"/>
		<path class="st8" d="M359.3,308.5c-0.3,3.3-0.6,6.6-0.8,9.9c-0.3,4.3-0.7,8.6-1.5,12.8c-2.6,12.6-9.8,24.2-20,32.2l-4.3-31.4
			C341.1,323.7,350,315.9,359.3,308.5z"/>
		<path class="st6" d="M422.3,601.5c-15.1,4.1-31.9,6.4-49.2,6.7c-4.6,0.1-9.2,0.2-13.9,0c-4.6-0.2-9.4-0.4-14-0.9
			c-9.9-0.9-19.8-2.4-29.4-4.5c-4.7-1.1-9.4-2.3-13.9-3.6v-0.3c-0.8-7.2-0.5-42.5-0.1-54.2c1.5-38.2,2.6-67.6,7.7-115.5
			c1.8-17,17.7-49.6,27.6-61.7l0.2-0.1l10-5.2l38-19.8c8.9,9,15.6,27.2,20.5,50.7c10.9,51.7,13.8,129.3,15.9,192.9
			C422,591.3,422.1,596.5,422.3,601.5z"/>
		<path class="st9" d="M421.6,601.5c-14.8,3.8-31.4,6.2-48.5,6.7c-4.6,0.1-9.2,0.2-13.9,0c-4.6-0.1-9.4-0.4-14.1-0.8
			c-9.9-0.8-19.7-2.3-29.3-4.5c-4.7-1-9.4-2.3-13.9-3.6V599c0-6.7,18.3,5.9,42.6-65.8c2-8.4,17.3-67.1-37.1-57.8
			c3.5-3.5,90.5-80.1,93.7-81.3c1.6-0.6,3.2-0.9,4.7-0.9c10.9,51.7,13.8,129.3,15.9,192.9C419.4,592.9,418.9,598.5,421.6,601.5z"/>
		<g>
			<path class="st10" d="M385.2,313.1c-0.5,1.3-1.6,2.1-3.1,2.5c-1.8,0.4-4.2,0.3-6.8,0c-6-0.8-13-2.7-16.9-2.2
				c1,15.3-15.2,30.4-36.5,35.5c-8.9,0.4-13.3-9.5-13.8-16.9c0,0,0-12.6-0.1-15.6l-4.2-1c-1.7-0.4-2.9-1.5-3.4-3
				c-0.4-1-0.5-2.1-0.1-3.2l5.9-16.5c0,0-1.2-2.3-2.2-5.1c0.3-29.2,17.9-42.5,36.9-43.8c16.2-0.4,47-3.3,49.4,40.6
				C390.3,293.9,388.6,304.2,385.2,313.1z"/>
			<path class="st4" d="M391.7,272.8c-2.2-10.5-22.1-12.4-36-11.1c-11.1,1.1-18.4,12.1-15.1,22.8c1.9,6.3,4.1,13.9,4.8,24.8
				c4.4,0.2,4.4,0.2,9.2,0.2c2.3-3,8.7-13.9,8.7-13.9s-15.8,34.3,13.6,27.1C394,316.7,396,293.8,391.7,272.8z"/>
			<path class="st10" d="M368.4,298.3c0.1,6.9-5.5,14.9-10,15s-4.1-5.5-4.3-12.4c-0.1-4.5-1.4-11,3.5-12.5
				C361.9,287.1,368.2,288.2,368.4,298.3z"/>
		</g>
		<path class="st10" d="M194.7,311.2c-9.4-5.2-12.7-8.6-14.5-10.4c-3.6,2.2-7.6,4.5-10.7,7.3c-0.7,0.7-1.6,1.4-2.6,1.3
			c1.4,4.1,4.9,7.8,9.1,9.1c6.5,2,5.1,8.5,4.8,10.7c3.3-0.8,5.8,0.3,8.9,1L194.7,311.2z"/>
		<path class="st10" d="M152.6,299c2.7-0.4,4.6-3,4.1-5.7l0,0c-0.4-2.7-3-4.6-5.7-4.1l-10.6,1.7c-2.7,0.4-4.6,3-4.1,5.7l0,0
			c0.4,2.7,3,4.6,5.7,4.1L152.6,299z"/>
		<path class="st10" d="M153.7,308.8c2.9-0.5,5-3,4.6-5.7l0,0c-0.4-2.7-3.2-4.5-6.1-4.1l-11.5,1.8c-2.9,0.5-5,3-4.6,5.7l0,0
			c0.4,2.7,3.2,4.5,6.1,4.1L153.7,308.8z"/>
		<path class="st10" d="M155.2,318.7c2.9-0.5,5-3,4.6-5.7l0,0c-0.4-2.7-3.2-4.5-6.1-4.1l-11.5,1.8c-2.9,0.5-5,3-4.6,5.7l0,0
			c0.4,2.7,3.2,4.5,6.1,4.1L155.2,318.7z"/>
		<path class="st10" d="M155.5,326.9c2.4-0.4,4.1-2.5,3.8-4.8l0,0c-0.4-2.2-2.6-3.8-5.1-3.4l-9.6,1.5c-2.4,0.4-4.1,2.5-3.8,4.8l0,0
			c0.4,2.2,2.6,3.8,5.1,3.4L155.5,326.9z"/>
		<path class="st10" d="M155.2,289.5c-2-1.3-3.9-3.2-6.3-3c-3.1,0.3-4.6,4.4-3.3,7.2c1.3,2.8,4.2,4.5,7.1,5.6c2.9,1.1,6,2,8.3,4
			c2.6,2.3,3.9,5.6,6,8.3c2.6,3.3,6.7,5.7,10.9,5.2s8-4.4,7.5-8.6c-3-5-6.3-10.3-11.5-13C168.1,292.4,160.7,293.1,155.2,289.5z"/>
		<path class="st10" d="M295.5,366.9c0.1,12.7-1.7,25.5-3.2,38.4c-12.8-1.5-37.7-4.1-50.9-7c-8.7-2.5-34.6-30.9-51.3-53.4
			c-4.1-5.6-7.7-10.9-10.3-15.2l14.9-18.5l63.8,41.9l36.3,0.9C295.3,358.3,295.5,362.6,295.5,366.9z"/>
		<g>
			<path class="st11" d="M169.2,413.2c1.2,5.3-0.4,11,1.1,16.3c0.4,1.5,0.6,3.1,0,4.6c-0.4-0.2-0.6-0.4-0.7-0.7
				c0.1,0.5,0.2,0.9,0.2,1.7c-0.7-0.2-1-0.5-1.2-0.8c0.1,0.6,0.3,0.9,0.5,1.6c-0.6-0.1-1.4-0.2-1.7-1c0.1,0.3,0.2,0.7-0.1,0.8
				c-0.7-0.8-0.8-2.4-0.7-3.4c0-0.6,0.1-1.2,0.1-1.8c0.1-1.8,0.2-3.6,0.3-5.4c0,0,0,0,0-0.1c0-0.9,0.1-1.8,0.1-2.7
				c0.1-1.7-0.5-5.3-0.4-7c-1.1,0.6-5.8-4-6.3-2.9c0.5-1.3,0-2,0.5-3.3c0.2-0.4,0.1-1.4,0.3-1.8
				C161.8,406.6,169.1,412.7,169.2,413.2z"/>
			<path class="st11" d="M166.4,458.5c0.4,0.1,1.3,0.3,1.6,0c-0.4-0.4-0.9-1.4-1.3-1.9c-0.3-0.4-0.6-0.7-1-1l0,0l0.1-11l-3.9-6.8
				l-0.3-0.6c-2,2-4.1,4-3.6,7.2c0.8,0.2,1.9,1,3.6,2.6c1.1,1,0.9,8.5,2,10.9c0,0.3,0,0.6,0.1,0.9c0.3,1.1,0.7,2.2,1,3.3
				c0.4-0.4,0.6-1,0.7-1.4c0.5,0.7,1,1.4,1.6,2c0-0.6-0.6-1.6-0.8-2.1c0.2,0.1,1,0.6,1.3,0.6C167.3,460.3,166.7,459.4,166.4,458.5z"
				/>
			<path class="st12" d="M160.3,396.4c1.2,0,2.3,0.5,3.3,1.1c0.6,0.4,1.2,1,1.6,1.6c0.9,1.3,1.6,2.9,2.1,4.9c0.7,2.8,1,6.3,0.9,10.9
				l-0.1,0.8L168,417v0.1l-1.6,19.5l0.8,1.8l3.9,6.8l-0.1,11c0,0-1.8,2.9-1.9,2.8c-1.3-1.6-1-10.3-2.2-11.4
				c-6.2-5.8-4.8-1.7-6.5,6.5c-0.5,2.4,0.1,5.6-0.7,8.1c-0.5,1.8-1.6,3.2-4.2,3.8c-1.5,0-5.9-6.6-7.9-14.4c-0.1-0.5-0.3-1-0.4-1.5
				V450c-0.1-0.5-0.1-1.1-0.1-1.5c0-0.9,0.3-1.6,0.6-2.4c1.2-2.8-1.7-7.3-2.8-11.6c-3.8-9-3.9-18.3-2-25.3
				c0.8-2.5,0.2-9.4,15.3-12.7C159,396.4,159.7,396.3,160.3,396.4z"/>
			<path class="st12" d="M143.9,447.4c-0.1-0.2-0.2-0.4-0.2-0.6c0-0.7,0.5-1.4,1.2-1.6s1.4,0,2.1,0.3c0.6,0.3,1.2,0.8,1.7,1.3
				c0.6,0.5,1.3,1,2,1.3c0.4,0.2,1,0.4,1,0.8c0,0.2,0,0.3-0.1,0.5c-0.3,0.8-0.6,1.5-0.8,2.3c-1-1-2.4-1.4-3.7-1.9
				C145.8,449.4,144.5,448.7,143.9,447.4z"/>
			<path class="st12" d="M144.3,450.4c-0.1-0.7,0.4-1.4,1-1.7s1.4-0.3,2.1-0.3c1.2,0,2.3,0.1,3.5,0.1c0.5,0.9,0.6,2,0.3,2.9
				c-1.4,0-2.7,0.1-4.1,0.1c-0.5,0-1.1,0-1.6-0.1C144.9,451.3,144.4,450.9,144.3,450.4z"/>
			<path class="st12" d="M173.5,412.7c2,5.1,1.3,10.9,3.5,15.9c0.7,1.4,1,3,0.7,4.5c-0.4-0.1-0.7-0.3-0.8-0.5
				c0.2,0.4,0.4,0.9,0.5,1.6c-0.7-0.1-1.1-0.3-1.3-0.6c0.2,0.6,0.4,0.9,0.7,1.5c-0.6,0-1.5,0-1.9-0.7c0.1,0.3,0.3,0.7,0,0.8
				c-0.8-0.7-1.1-2.2-1.2-3.3c-0.1-0.6-0.1-1.2-0.2-1.8c-0.2-1.8-0.3-3.6-0.5-5.4c0,0,0,0,0-0.1c-0.1-0.9-0.2-1.8-0.3-2.7
				c-0.2-1.7-1.3-5.2-1.5-6.9c-1,0.7-6.3-3.1-6.7-1.9c0.3-1.4-0.3-2,0-3.4c0.1-0.4-0.2-1.4,0.1-1.8
				C165.1,407.4,173.3,412.3,173.5,412.7z"/>
			<path class="st12" d="M172.8,461.6c-0.2-0.9-0.7-1.8-1.1-2.6c0.4,0.1,1.3,0.3,1.6,0c-0.4-0.4-0.9-1.4-1.3-1.9
				c-0.6-0.8-1.5-1.3-2.3-1.9c-0.2,0.5-0.3,1.1-0.4,1.6c-0.1,0.7-0.3,1.4-0.1,2.1c0.1,0.4,0.4,0.8,0.7,1.2c0.8,1,1.5,2.1,2.4,3
				c0-0.6-0.6-1.6-0.8-2.1C171.7,461.1,172.5,461.6,172.8,461.6z"/>
			<path class="st12" d="M169,458c-0.2,0.4-0.1,0.9,0,1.3c0.3,1.1,0.7,2.2,1,3.3c0.6-0.5,0.8-1.3,0.8-1.8c0-0.6-0.1-1.2-0.4-1.8
				C170.1,458.5,169.6,458.1,169,458z"/>
			<path class="st4" d="M151.4,452.6c0.2,2.1,1.1,1.6,1.4,1.3c0.5-0.5-0.3,0.9-1,0.9s-1.1-0.2-1.1-1
				C150.6,453.1,151.3,451.9,151.4,452.6z"/>
		</g>
		<path class="st13" d="M295.5,366.9c0.1,12.7-1.7,25.5-3.2,38.4c-12.8-1.5-37.7-4.1-50.9-7c-8.7-2.5-34.6-30.9-51.3-53.4
			c8.9,7.6,15.2,14.4,26,23.4c11.4,9.6,14.5,19.4,29.2,21.8c4.2,0.7,26.1,4.6,29.7,2.5c3-1.7,5.1-4.6,7.1-7.4
			C286.7,379.1,291.1,373,295.5,366.9z"/>
		<g>
			<g>
				<path class="st6" d="M78.5,155.2l-1.9-33.6V82.7h14.6v38.8l-1.9,33.6L78.5,155.2L78.5,155.2z M91,161.7v14.1H76.9v-14.1H91z"/>
				<path class="st6" d="M111,155.2l-1.9-33.6V82.7h14.6v38.8l-1.9,33.6L111,155.2L111,155.2z M123.5,161.7v14.1h-14.1v-14.1H123.5z
					"/>
				<path class="st6" d="M143.6,155.2l-1.9-33.6V82.7h14.6v38.8l-1.9,33.6L143.6,155.2L143.6,155.2z M156.1,161.7v14.1H142v-14.1
					H156.1z"/>
			</g>
			<g>
				<path class="st6" d="M78.5,155.2l-1.9-33.6V82.7h14.6v38.8l-1.9,33.6L78.5,155.2L78.5,155.2z M91,161.7v14.1H76.9v-14.1H91z"/>
				<path class="st6" d="M111,155.2l-1.9-33.6V82.7h14.6v38.8l-1.9,33.6L111,155.2L111,155.2z M123.5,161.7v14.1h-14.1v-14.1H123.5z
					"/>
				<path class="st6" d="M143.6,155.2l-1.9-33.6V82.7h14.6v38.8l-1.9,33.6L143.6,155.2L143.6,155.2z M156.1,161.7v14.1H142v-14.1
					H156.1z"/>
			</g>
		</g>
		<g>
			<g>
				<path class="st10" d="M338.3,642.3l0.6,3.9l1.8,5.6l9.3,8.9c1.3,1.3,1.6,3,0.9,4.5l3,2.9c1.7,1.7,1.7,4.3-0.1,5.9l-0.1,0.1
					c-0.4,0.4-0.9,0.7-1.5,0.9c0,1.4-0.7,2.9-2.1,3.8l-0.1,0.1c-2.2,1.4-5.3,0.9-6.9-1.1L332,663.2l-0.1-0.1
					c-0.1-0.1-0.2-0.3-0.3-0.4c-0.1-0.1-0.1-0.3-0.2-0.4c-0.1-0.1-0.1-0.3-0.1-0.4c-0.1-0.2-0.1-0.3-0.1-0.5c0-0.1,0-0.1,0-0.1
					l-2.8-17.5c-0.4-2.5,1.5-4.7,4.2-5.1h0.1C335.3,638.3,337.9,639.9,338.3,642.3z"/>
				<path class="st10" d="M353.6,598l1.4,11.2c0.3,2.7,0.1,5.4-0.6,8l-1.9,6.9c-0.2,0.8-0.3,1.7-0.2,2.6l1.4,16
					c0.2,2.5-1.8,4.6-4.5,4.8h-0.1c-2.7,0.2-5.1-1.7-5.3-4.2l-1-10.8l-4.4,10.3l-0.7,16.4l7.5,15.1c1.1,2.3,0,4.9-2.4,5.9h-0.1
					c-2.5,1-5.4,0-6.5-2.3l-8.5-18.2c0,0-2-13.3-2.2-17.5c0-0.8,0.1-1.9,0.2-3c0.3-4.6,1.4-17.5,5.7-27.7l3.2-14.4L353.6,598z"/>
			</g>
			<path class="st10" d="M404.4,402.9l-1.3,39.4l-2.2,67.6c-0.2,4.2-1.4,8-3.4,11.3c-0.2,0.4-0.4,0.7-0.7,1.1
				c-4.3,6.4-11.5,10.5-19.5,10.1h-0.4c-6.5-0.3-12.2-3.5-16.1-8.4c-3.6-4.4-5.6-10.2-5.3-16.4l0.4-12.4l3-94.6
				c0.6-13,11.1-23.1,23.5-22.5h0.4C395.4,378.8,405,389.9,404.4,402.9z"/>
			<path class="st10" d="M398.2,512.2c0.1,0.4,0.1,0.8,0.2,1.3c0.3,2.2,0.3,4.4-0.1,6.7c0,0.5-0.2,1-0.3,1.5
				c-0.1,0.7-0.3,1.4-0.6,2.1l-25.2,51.3l-6.3,12.7l-6.8,13.8l-4.3,7.5h-0.1l-20.4-11.9l7.4-34.6l8.8-41.2l3.7-12.5
				c0.4-1.2,0.8-2.4,1.4-3.5c2.6-5.2,6.9-9.2,12-11.2c4.5-1.9,15.3,2.9,15.4,3c0,0,5.7,2.4,7.9,4.4
				C394.8,505.2,397.3,507,398.2,512.2z"/>
		</g>
		<path class="st6" d="M358.2,399.3l-2,41c15.8,1.6,32.8,4.7,49.3,11.5l3.1-41.7C408.8,370.9,359.2,367,358.2,399.3z"/>
	</g>
</g>
</svg>
