<?xml version="1.0" encoding="utf-8"?>
<!-- Generator: Adobe Illustrator 22.1.0, SVG Export Plug-In . SVG Version: 6.00 Build 0)  -->
<svg version="1.1"
	 id="svg3062" inkscape:version="0.48.2 r9819" sodipodi:docname="norway.svg" xmlns:cc="http://creativecommons.org/ns#" xmlns:dc="http://purl.org/dc/elements/1.1/" xmlns:inkscape="http://www.inkscape.org/namespaces/inkscape" xmlns:rdf="http://www.w3.org/1999/02/22-rdf-syntax-ns#" xmlns:sodipodi="http://sodipodi.sourceforge.net/DTD/sodipodi-0.dtd" xmlns:svg="http://www.w3.org/2000/svg"
	 xmlns="http://www.w3.org/2000/svg" xmlns:xlink="http://www.w3.org/1999/xlink" x="0px" y="0px" viewBox="0 0 476.6 513"
	 style="enable-background:new 0 0 476.6 513;" xml:space="preserve">
<style type="text/css">
	.st0{opacity:0.5;fill:#C0C0C0;enable-background:new    ;}
	.st1{fill:#C0C0C0;}
	.st2{fill:#36B04B;}
</style>
<sodipodi:namedview  bordercolor="#666666" borderopacity="1" fit-margin-bottom="0" fit-margin-left="0" fit-margin-right="0" fit-margin-top="0" gridtolerance="10" guidetolerance="10" id="namedview3135" inkscape:current-layer="svg3062" inkscape:cx="182.40463" inkscape:cy="138.85778" inkscape:pageopacity="0" inkscape:pageshadow="2" inkscape:window-height="716" inkscape:window-maximized="1" inkscape:window-width="1366" inkscape:window-x="-8" inkscape:window-y="-8" inkscape:zoom="1.73" objecttolerance="10" pagecolor="#ffffff" showgrid="false">
	</sodipodi:namedview>
<path id="ostfold" inkscape:connector-curvature="0" class="st0" d="M126.7,489.2c-0.7-2.3-2.1-4.8-3.1-5.4s-1.8-1.7-1.8-2.4
	c0-0.9-1.3-1.2-4-1.1c-2.2,0.1-4.1,0-4.4-0.2c-0.9-1-1.4-9-0.6-9.5c0.5-0.3,0.9-1.4,0.9-2.5c0-1.2,0.7-1.9,1.9-1.9
	c1.1,0,2.4-1.2,3.2-2.9c1.2-2.7,1.6-2.9,6.3-2.6c2.8,0.1,5.2,0.8,5.4,1.4c0.6,1.8,3.6,1.3,5.5-0.9c1.8-2.1,4.7-2.7,4.7-0.9
	c0,0.6-1.3,2.3-3,3.9c-2.9,2.7-3,3-2.4,9.3c0.5,5.9,0.3,7.1-2.1,11.9C129.1,493.7,128.2,494.2,126.7,489.2L126.7,489.2z"/>
<path id="path1604" inkscape:connector-curvature="0" class="st1" d="M114.3,459.9c0.8-6,1.2-6.8,3.1-6.8c2.3,0,5.5-3.3,5.5-5.7
	c0-3.3-2.1-7.3-3.9-7.4c-1.3-0.1-1.3-0.2,0.2-0.6c1-0.3,1.8-1.1,1.8-1.9s0.9-2.3,2-3.4c2.5-2.5,2.5-3.2,0-5.5
	c-2.6-2.3-2-2.8,3.8-3.1l4.8-0.2l1.8,4.7c1,2.6,2.7,7.1,3.7,10.1s2.3,5.9,2.8,6.5c1.1,1.3-0.7,11.6-2,11.6c-0.5,0-1.7,1-2.8,2.1
	c-1.8,1.9-2.2,2-3.5,0.6c-0.9-0.9-3.5-1.5-6.8-1.5c-5,0-5.4,0.2-6.6,2.9c-0.7,1.6-2,2.9-2.8,2.9
	C113.8,465.1,113.7,464.2,114.3,459.9L114.3,459.9z"/>
<path id="path1602" inkscape:connector-curvature="0" class="st1" d="M109.4,450.3c0.4-1.5,1.3-3.4,2.1-4.3c1.3-1.3,1.6-1.3,2.9,0.5
	s1.3,2-0.6,2.7c-1.1,0.4-2.3,1.4-2.6,2.3C110.2,454.2,108.8,453.2,109.4,450.3z"/>
<path id="oslo" inkscape:connector-curvature="0" class="st1" d="M117.7,448.2c-3.4-3.6-3.4-7.2,0.1-7.2c2,0,4.5,5.2,3.7,7.5
	C120.7,450.4,119.7,450.3,117.7,448.2L117.7,448.2z"/>
<path id="hedmark" inkscape:connector-curvature="0" class="st1" d="M139.8,457.9c0-0.4,0.5-2.8,1-5.5c0.9-4.1,0.7-5.3-1-8.8
	c-1.1-2.2-2-4.5-2-5.1s-1.1-3.7-2.5-6.8s-2.5-6.4-2.5-7.3s-1.7-3.9-3.8-6.7c-5-6.7-6.7-13.8-4.3-18.1c0.9-1.6,2.7-3.4,4-4
	c2-0.9,2.2-1.4,1.5-5.5c-0.4-2.5-0.7-5.6-0.6-7c0.1-1.4-0.1-4-0.4-5.8c-0.4-2.9-0.8-3.3-3.2-3.1c-4.1,0.3-7.2-1.1-7.2-3.2
	c0-1,0.4-1.9,1-1.9c1.9,0,1-3.8-1.1-4.3c-1.7-0.5-2-1-1.4-3.6c0.5-2.2,0.1-3.8-1.4-5.9c-2.6-3.6-2-5.3,3-8.1
	c2.9-1.6,4.5-3.6,6.4-7.7c1.4-3,2.9-5.5,3.3-5.5c0.4,0,2.3,0.9,4.2,2.1c1.9,1.1,4.3,1.8,5.4,1.6c2.7-0.7,6.7,1,6.7,2.8
	c0,0.8,1.1,3.1,2.5,5.2s2.5,4.3,2.5,5c0,1.6,3.1,2.7,5.2,1.9c0.8-0.3,2.1,0.1,2.8,1s2.1,1.5,3.1,1.5s2.1,0.8,2.4,1.7
	c0.7,1.7-4.3,17.5-5.7,18.1c-1.3,0.6-0.8,3.1,1.8,8.2c1.4,2.7,3.2,5,4,5s2.4,1.9,3.5,4.3l2.1,4.3l-2.5,5.7c-2.4,5.5-2.7,5.7-7.1,6.4
	c-2.5,0.4-4.5,1.2-4.5,1.8c0,0.6,0.9,5.4,2,10.6c1.8,9,1.8,9.9,0.3,17.5c-1.4,6.9-2.2,8.6-5.6,12.2c-3.1,3.2-4.5,4.1-6.2,3.7
	c-1.6-0.4-2.7,0.1-3.8,1.7C140.5,457.5,139.8,458.2,139.8,457.9L139.8,457.9z"/>
<path id="oppland" inkscape:connector-curvature="0" class="st1" d="M114.7,435.8c-2-1.9-2.8-3.8-3.3-8.3
	c-1.2-10.5-1.5-11.5-3.9-11.1c-1.2,0.2-2.6,1.3-3.1,2.6c-1.2,2.8-1.4,2.8-4.7-0.2c-1.6-1.5-2.9-4-3.3-6.4c-0.5-3.2-1.3-4.2-3.8-5.3
	c-1.7-0.7-5.2-3.6-7.7-6.3s-5.2-5.7-6-6.6c-2.6-2.7-4-6.6-2.7-7.9c0.6-0.6,1.7-1.1,2.4-1.1c1.5,0,2.8-4.4,1.9-5.9
	c-0.4-0.6,0.2-1.1,1.4-1.1c1.1,0,2.1-0.3,2-0.8c-0.1-2.9-1.6-5.3-4-6.2c-2-0.8-2.7-1.7-2.3-3c0.8-3.1-1.5-6-4.6-6
	c-2.8,0-2.9-0.1-3.2-6c-0.3-5.2-0.1-6.1,1.7-6.9c5.3-2.4,7.3-2.9,9.8-2.4c1.6,0.3,2.7,0.1,2.7-0.6c0-0.6,1-2,2.2-3.1
	c2.5-2.3,9.4-2.8,14.8-0.9c5.7,2,12.6,7.2,12.2,9.3c-0.2,1,0.5,3,1.6,4.5c1.4,1.8,1.8,3.7,1.5,5.9c-0.4,2.7-0.1,3.4,1.6,3.8
	c2.1,0.6,3,2.3,1.1,2.3c-0.6,0-1,1.2-1,2.8c0,2.1,0.7,3.1,3,4.1c1.6,0.7,3.9,1,5,0.7c1.3-0.4,2.1-0.2,2.1,0.7c0.1,0.7,0.2,4,0.4,7.3
	c0.1,3.3,0.5,6.9,0.9,8c0.5,1.5,0,2.3-1.6,3c-1.2,0.5-3,2.4-4,4.2c-2.7,4.7-0.8,13.5,4.4,20l3.8,4.8l-2.7,0.6
	c-1.5,0.3-4,0.4-5.5,0.1c-3.8-0.6-4.7,2.1-1.8,5.2c1.8,1.9,1.9,2.4,0.7,2.9c-0.8,0.3-1.8,1.7-2.2,3.1
	C119.4,438.8,118,438.9,114.7,435.8L114.7,435.8z"/>
<path id="buskerud" inkscape:connector-curvature="0" class="st0" d="M91,463c-1.3-3.3-4.2-16.9-4.2-19.6c0-1.2-0.4-2.5-1-2.8
	s-1-1.9-1-3.5c0-3.4-4-7-7.7-7c-1.3,0-3.5-0.7-4.9-1.6c-2-1.3-3.2-1.4-6.6-0.6c-6.9,1.7-9.9-1-5.8-5.4c1.5-1.6,2.1-3.7,2.2-8.1
	c0.1-3.2-0.1-6.6-0.6-7.5c-0.6-1.1-0.1-1.9,1.8-2.7c1.4-0.6,3.1-2.3,3.7-3.6c0.9-2.1,1.6-2.4,4.5-1.9c2.6,0.4,3.4,0.2,3.4-1
	c0-0.8,0.6-2,1.3-2.5c0.9-0.8,2.7,0.6,6.7,5.3c3,3.5,6.9,6.8,8.7,7.4c2.7,1,3.3,1.8,3.9,5.2c0.4,2.4,1.7,5,3.3,6.5
	c2.9,2.7,6.2,3.3,6.2,1.1c0-1.6,2.8-4.2,3.6-3.4c0.3,0.3,1.1,4.4,1.8,9.1c1.1,7.3,1.6,8.9,4,10.7c2.4,1.9,2.5,2.3,1.2,3.6
	c-0.8,0.8-1.5,1.9-1.5,2.4s-0.6,0.9-1.4,0.9c-2,0-3.4,2-4.1,6.1c-0.6,3-0.4,3.7,1.2,4.1c1.5,0.4,1.8,1.2,1.5,4.6
	c-0.4,4.2-2.2,5.9-2.2,2.1c0-3-4.3-4.7-7.6-2.9c-1.9,1-2.5,2-2.1,3.7c0.2,1.3,0.1,2.3-0.3,2.3s-2.1,0.3-3.8,0.6
	C92.4,465.2,91.7,465,91,463L91,463z"/>
<path id="vestfold" inkscape:connector-curvature="0" class="st0" d="M93.2,482.9c-0.3-0.4,0-2.5,0.6-4.6s1-5.7,1.1-8
	c0-4,0.2-4.3,3.1-4.9c2.5-0.5,3-1,2.5-2.8c-0.7-2.9,2.6-5.1,5.4-3.6c2.1,1.1,2.7,3,1,3c-1.3,0-1.3,3.7,0,4.2
	c1.4,0.5-0.4,7.1-3.3,12.2c-2.2,3.7-3.2,4.5-6.2,4.8C95.3,483.5,93.5,483.4,93.2,482.9L93.2,482.9z"/>
<path id="telemark" inkscape:connector-curvature="0" class="st0" d="M77.6,483.1c-0.8-2.2-1.8-3.1-3.5-3.1c-1.3,0-2.3,0.6-2.3,1.4
	c0,2-3,2.9-3.6,1.1c-0.3-0.8-1.4-1.5-2.4-1.5s-2.7-0.9-3.8-2.1c-1.3-1.4-2.6-1.9-4-1.4c-1.5,0.5-2.1,0.2-2.1-1
	c0-0.9-0.5-2.6-1.2-3.8c-0.7-1.2-1.2-3.8-1.3-5.8s-0.9-4.4-1.8-5.3c-2-2-2.2-3.2-0.6-3.7c0.7-0.2,0.8-2.4,0.4-6.5
	c-0.6-5.6-1-6.3-3.6-7.3c-3.3-1.4-3.5-2.5-1.2-7.4c1-2.2,2.4-3.5,3.5-3.5c1,0,3-1.1,4.3-2.5c2.1-2.1,2.8-2.3,4.8-1.4
	c1.6,0.7,3.5,0.7,6.2,0c3.1-0.9,4.3-0.8,6.1,0.4c1.2,0.8,3.3,1.5,4.7,1.5c3.7,0,7.7,3.6,7.7,7c0,1.6,0.4,3.1,1,3.5
	c0.6,0.3,1,1.6,1,2.8c0,2.6,2.9,16.2,4.1,19.4c0.5,1.2,1.6,2.3,2.4,2.3c1.1,0,1.5,1.1,1.4,4.3c-0.1,2.3-0.4,5.4-0.9,6.8
	c-0.7,2.2-0.9,2.3-1.5,0.8c-0.9-2-4.5-2.4-4.5-0.5c0,0.7,0.7,2.3,1.5,3.5c1.5,2.1,1.4,2.2-2.6,3.3c-2.2,0.6-4.8,1.4-5.6,1.7
	C79.2,486.1,78.4,485.2,77.6,483.1L77.6,483.1z"/>
<path id="aust-agder" inkscape:connector-curvature="0" class="st0" d="M51.3,506c0-2.2-0.5-4.4-1-4.8c-0.6-0.4-1.8-1.9-2.8-3.4
	s-2.6-2.8-3.7-2.8c-2.4,0-2.7-3.5-0.4-4.4c1-0.4,1.4-1.3,1.1-2.7c-0.3-1.2,0-2.3,0.9-2.6c1.5-0.6,1.8-3.1,0.8-5.8
	c-0.4-1.2-2-1.6-5.6-1.6c-3.8,0-4.8-0.3-4.1-1.3c1.7-2.2,3.6-9.6,2.9-11.3c-0.4-0.9-1.5-1.9-2.6-2.2c-2.8-0.7-2.6-5.4,0.5-9.1
	c1.4-1.6,2.5-3.6,2.5-4.4s1.1-2.4,2.4-3.6c2-1.9,2.7-2,4.9-1.1c2.1,0.9,2.6,2.1,3.1,6.3c0.4,3.1,0.2,5.3-0.4,5.5
	c-1.6,0.5-1.1,3.9,0.7,5.7c1,1,1.7,3.1,1.6,5.3c-0.1,2,0.5,4.5,1.3,5.6s1.4,2.8,1.4,3.9c0,1.4,0.6,1.8,2.3,1.5
	c1.3-0.2,3.1,0.5,4.1,1.4s2.4,1.7,3.3,1.7c0.9,0,2.1,0.7,2.8,1.6c1.4,1.9,5.5,1,5.5-1.2c0-2.9,2.6-1.3,4.4,2.8
	c1.4,2.9,1.6,4.3,0.8,4.6c-0.6,0.2-1.2,1-1.2,1.8s-1.1,1.9-2.5,2.4s-2.5,1.3-2.5,1.8s-1.5,1.5-3.3,2.4s-4.4,3.2-5.8,5.2
	s-3.3,3.6-4.3,3.6s-2.5,0.7-3.3,1.5C52.6,511.2,51.3,510.4,51.3,506L51.3,506z"/>
<path id="vest-agder" inkscape:connector-curvature="0" class="st0" d="M34.8,512.2c-4.9-1.5-10-5-10-7c0-0.6-0.7-1.1-1.5-1.1
	s-1.5,0.7-1.5,1.5c0,1.3-0.3,1.3-2,0.3c-2.5-1.6-2.5-2.5,0-3.3c2.1-0.7,2.7-3.4,1-5.1c-0.7-0.7-0.5-2.3,0.6-4.9
	c0.9-2.2,1.4-5.2,1.1-7.1c-0.8-4.9,4.4-15,8.9-17.1c1.9-0.9,3.4-2.2,3.4-3c0-1.7,1.5-1.7,3,0.1c0.9,1.1,0.9,2.3-0.1,5.3
	c-0.7,2.1-1.6,4.2-2.1,4.7c-2,2.4-0.7,3.5,4.1,3.5c4.1,0,5,0.3,5.6,2.1c0.4,1.4,0.1,2.5-1.1,3.4c-1.1,0.8-1.5,1.9-1.1,3
	c0.4,1,0.1,1.9-0.8,2.3c-0.8,0.3-1.5,1.8-1.5,3.5c0,2.2,0.5,2.9,2,2.9c1.1,0,2.8,1.2,3.7,2.8c1,1.5,2,3,2.3,3.3c2.3,1.9,1.8,7-0.7,7
	c-0.8,0-1.4,0.5-1.4,1s-1.6,1-3.5,1s-3.5,0.5-3.5,1C39.8,513.2,38.4,513.3,34.8,512.2z"/>
<path id="path7728" inkscape:connector-curvature="0" class="st0" d="M33.3,436.1c-2.2,0.2-5.5,1.3-5.5,2.2c0,0.3-0.9,1.7-2,2.9
	c-1.5,1.8-2.7,2.2-5,1.7c-1.6-0.3-5.9-0.3-9.5,0c-5.5,0.5-6.6,0.9-6.6,2.5c0,1,0.4,1.8,0.9,1.8s1.2,1,1.6,2.3c0.4,1.4,0.9,1.8,1.2,1
	c0.6-1.5,3.3-1.7,3.3-0.3c0,0.5,0.6,1,1.4,1c0.9,0,1.4-0.9,1.3-2.8c-0.2-2.2,0.3-2.8,2.2-3.1c2.1-0.3,2.3-0.1,1.7,2.4l-0.7,2.7
	l3.9-3.1c4.6-3.6,8.2-4.1,8.2-1.1c0,1.1-0.5,2-1,2c-2.1,0-7.6,4.5-7.2,5.8c0.5,1.4-3.2,7.1-5.4,8.5c-0.7,0.4-1.3,2.1-1.3,3.8
	c0,2-0.5,2.9-1.5,2.9c-0.8,0-1.5-0.3-1.5-0.8c0-0.4-1.3-1.6-2.9-2.5L6,464.2l-1.1,5c-1.2,5.6-1.3,11.6-0.3,14.3
	c0.4,1,3.2,4.4,6.2,7.7s6,5.9,6.5,6c1.7,0.1,4.7-9.3,3.9-12.3c-1.1-4.2,4.7-15.3,9.1-17.4c3.2-1.5,3.4-2,3.4-6.4
	c0-3.6,0.6-5.5,2.5-7.7c1.4-1.6,2.5-3.6,2.5-4.4s1.1-2.5,2.5-3.8c2.7-2.6,3.4-5.6,1.1-4.7c-0.8,0.3-3,0.9-5,1.2
	c-3.8,0.7-4.9-0.9-2.3-3.4c1-1,1-1.4-0.1-2.1C34.6,436.1,34,436,33.3,436.1z M2.5,449.5c-0.2,0.1-0.6,0.6-1.2,1.7
	c-2,3.5-1.9,3.8,1.3,4.3c1.5,0.2,3.2,0.5,3.8,0.5s0-0.7-1.3-1.8s-2.3-2.7-2.3-3.7C2.8,449.8,2.7,449.4,2.5,449.5z M12.4,458.9
	c-0.5,0.1-1.6,0.4-2.6,1c-1.4,0.7-1.8,1.3-1,1.3c1.7,0,4.7-1.7,4-2.3C12.7,458.9,12.6,458.9,12.4,458.9L12.4,458.9z"/>
<path id="path1571" inkscape:connector-curvature="0" class="st0" d="M31.8,385.5c-0.7,0-1.6,0.1-2.7,0.3c-2.6,0.3-5.5,1.5-6.5,2.5
	s-2.6,1.9-3.5,1.9c-1,0-1.2,0.3-0.5,0.6c0.7,0.3,1.3,1.4,1.3,2.4c0,3.2-4,2.1-5.3-1.4c-0.7-1.9-2.8-1.8-3.4,0.2
	c-0.2,0.7,0.3,1.2,1.2,1.2s1.6,0.9,1.6,2.1c0,1.6-0.5,2-2,1.6c-2.5-0.6-2.7,0.8-0.3,1.8c4,1.7,7.2,1.3,8.8-1.1
	c1.9-3,5.5-3.2,5.5-0.4c0,1.1-0.4,2-0.9,2s-1.2,1.4-1.6,3.1c-0.8,3.8-2.7,4.6-5.6,2.6c-2-1.4-2.3-1.4-4,0.8c-1.3,1.7-1.7,3.3-1.2,6
	c0.6,3.8,2,4.7,3,2.1c0.3-0.8,1.5-1.5,2.6-1.5c1.5,0,1.9,0.5,1.5,2c-0.3,1.1-0.1,2,0.5,2c1,0,0.6,2.6-0.9,6.7
	c-0.6,1.6-0.5,1.7,1,0.5c0.9-0.8,1.7-2.4,1.7-3.7c0-1.5,1.2-3.1,3.3-4.6c1.8-1.3,3.8-3.1,4.6-4.1c1.1-1.5,2.8-1.8,10.3-1.8
	c6.9,0,8.9,0.3,8.9,1.4c0,0.8-1.4,1.7-3.1,2c-2.2,0.4-3.4,1.4-4.2,3.6c-0.7,1.8-1.9,3-2.9,3c-2,0-2.2-0.8-0.8-4.5
	c0.9-2.4,0.8-2.6-1.3-1.9c-3.1,1-8.9,6.2-7.7,6.9c0.5,0.3,1,1.3,1,2.2c0,1.1-0.7,1.4-2.5,1.1s-2.5,0-2.5,1.1c0,2.2-3,5.2-5.1,5.2
	c-2.5,0-3.2,1.6-1.4,3.3c1.7,1.7,2,4.7,0.5,4.7c-0.5,0-1,0.7-1,1.5c0,1.5-4,2.2-4,0.8c-0.1-3.5-8.2-6.7-9.3-3.7
	c-0.3,0.9-0.4,2.7,0,4c0.6,2.3,0.9,2.3,9.3,2.2c7.1-0.2,9-0.5,10.4-2.1c1-1,1.8-2.2,1.8-2.5c0-1.1,6.7-3.1,8.4-2.5
	c1.9,0.7,2.1,3.5,0.4,5.3c-1,1-0.7,1.1,1.8,0.6c5.8-1.4,7.2-2.3,8.5-5.3c0.8-1.9,2-3.1,3.2-3.1c2.3,0,7.8-5.1,7.8-7.2
	c0-0.8,0.8-2.3,1.9-3.2c2.3-2,3.5-9.8,2.1-12.9c-0.6-1.2-3.1-3.1-5.6-4.3c-5.2-2.3-7.9-5.2-8.8-9.5c-0.7-3-1.6-3.5-6.5-3.1
	c-2.1,0.2-2.8-0.5-3.8-3.3C34,386,33.8,385.4,31.8,385.5z M8.3,405.7c-0.1,0-0.2,1-0.3,2.9c0,2.8,0.2,4,0.4,2.8s0.2-3.5,0-5
	C8.5,405.9,8.4,405.7,8.3,405.7z M9.2,419.2c-0.3,0.1-0.4,0.3-0.4,0.8s0.9,1.1,2,1.4c2.5,0.7,2.6,3.7,0.1,3.7
	c-1.8,0-3.6,4.2-2.3,5.5c1,1,1.9,0.5,3-2c0.6-1.4,1.8-2.5,2.7-2.5c2.7,0,1.7-3.9-1.4-5.5C10.7,419.5,9.7,419.1,9.2,419.2z"/>
<path id="path1600" inkscape:connector-curvature="0" class="st0" d="M32.5,341.3c-0.1,0-0.3,0.1-0.4,0.4c-0.4,0.6-1.4,1.3-2.2,1.6
	c-0.9,0.3,0.6,1.3,3.5,2.3c2.7,1,5.4,2.2,5.9,2.7s1.9,0.8,3,0.8s3.4,0.7,5,1.5s3.6,1.3,4.3,1c2.2-0.8,6.2,0.5,6.2,2.1
	c0,1-1.5,1.4-5.9,1.4c-3.3,0-6.2-0.5-6.6-1s-1.6-1-2.8-1s-4-0.9-6.2-2s-4.7-2-5.6-2s-2.7-1.1-4.1-2.3c-1.4-1.3-3-2.1-3.7-1.9
	c-2,0.7-1.2,2,1.8,3.1c3.6,1.3,4.1,4.2,0.7,4.2s-4,1.2-1.6,3.1c2.9,2.2,1.9,7.9-1.3,7.9c-4.7,0-5.4,6.4-1.3,11.6
	c2.2,2.7,2.6,2.9,9.4,2.6c4.6-0.2,7.1,0.1,7.1,0.8c0,0.6,0.9,1.1,1.9,1.1s2.2,0.7,2.5,1.5s1,1.5,1.6,1.5s1-0.7,1-1.5
	s0.6-1.5,1.3-1.5s1.7-1.5,2.3-3.3c0.7-2.2,1.6-3.3,3.2-3.6c2.6-0.4,3.1,2.1,0.8,4.4c-1.3,1.3-1.3,1.7,0.2,3.4c0.9,1.1,2.4,2,3.4,2
	c0.9,0,1.9,0.5,2.1,1.2c0.8,2.4,2.8-0.4,2.8-4c0-4.3,1.4-6.2,4.7-6.2c2.8,0,3,2.1,0.3,3.8c-1.1,0.7-2,2.3-2,3.7c0,1.8,0.5,2.5,2,2.5
	c1.1,0,2,0.6,2,1.4c0,0.9-1.7,1.6-4.9,2.1c-5.1,0.7-6,1.8-6.1,7.3c0,1.3-0.6,2.3-1.5,2.3c-0.8,0-1.5-0.6-1.5-1.3
	c0-0.9-0.8-1.2-2.5-0.9c-3.4,0.6-3.4-2.5,0-3.8c2.7-1,2.5-3-0.7-6.2c-1.5-1.5-1.9-1.6-2.4-0.4c-0.9,2.4-6.5,2.9-8.8,0.7
	c-2.4-2.2-9.3-4.4-9.8-3c-0.2,0.5-1.7,1.2-3.3,1.5c-2.3,0.4-3.7,0-5.9-2c-1.6-1.4-3.1-2.3-3.3-2.1c-0.7,0.7-1.1,7.6-0.4,8
	c0.4,0.2,4-0.2,8.1-1c10.6-1.9,10.7-1.9,12.2,2.1c0.9,2.6,1.7,3.4,3,3c3.6-1.2,6.6,0.6,7.8,4.5c1.2,4.1,2.3,5.3,7.4,8.1
	c1.8,1,3.4,1.8,3.7,1.9c1.5,0.2,6.9-4.1,7.5-6c0.6-1.8,1.2-2.1,3.8-1.6c2.8,0.5,3.3,0.3,4.4-2.3c1-2.2,1-3.5,0.1-5.5
	c-1.3-2.8,0.1-5.7,2.6-5.7c1.7,0,2.5-2.3,1.8-4.9c-0.4-1.6-0.1-2.1,1.5-2.1c3.1,0,1.7-3.6-2-5.1c-2.3-0.9-2.9-1.7-2.5-3.3
	c0.8-3.2-1.1-5.7-4.4-5.7c-2.9,0-3-0.1-3-5.3c0-6.9-0.9-8.2-4.3-6.7c-2.2,1-3,0.9-5.7-1c-1.7-1.2-3.1-2.5-3.1-2.9
	c0-0.9-6.8-0.6-9.3,0.4c-1.1,0.5-2.5,0.1-3.7-1c-1-0.9-2.4-1.4-3-1c-1.7,1-7-1.5-7-3.4C32.8,341.6,32.7,341.3,32.5,341.3z
	 M15.5,372.7c-0.3,0.1-0.9,0.5-1.5,1.3c-1,1.2-2.4,2.2-3,2.2s-1.4,0.5-1.8,1.1c-0.5,0.8,0.1,0.9,1.7,0.4c2.8-0.9,4.9-2.9,4.9-4.6
	C15.8,372.7,15.7,372.7,15.5,372.7z"/>
<path id="path2364" inkscape:connector-curvature="0" class="st0" d="M92.3,295.6c-2.8,0-3.1,0.5-1.3,2.3c1.8,1.8,3.8,1.5,3.8-0.6
	C94.8,296.1,94,295.6,92.3,295.6z M97.2,303.5l-0.1,0.1c-0.3,0.3,0.1,1.2,0.8,2s1.5,1.3,1.8,1.1s-0.1-1.2-0.8-2.1
	C98.2,303.8,97.5,303.4,97.2,303.5L97.2,303.5z M91.3,305.1c-0.9,0-1.3,0.5-0.9,1s1,1,1.6,1s0.9-0.5,0.9-1S92.1,305.1,91.3,305.1z
	 M104.6,308.4c-0.3-0.1-0.7,0.3-1.7,1.2c-1.1,1-2.7,1.5-3.5,1.2s-2.2-0.3-3.1,0c-1.3,0.5-1.3,0.9,0.4,2.5c1.1,1,2.5,1.9,3.1,1.9
	c1.5,0,1.3,1.9-0.4,3.6c-2.9,2.9-5.2,1.7-6.8-3.3c-1.3-4-2-4.8-4.8-5.6c-4.5-1.2-8-0.2-8,2.3c0,2.3-2.2,2.6-4,0.5s-4-1.9-4,0.5
	c0,1.1,0.4,2,1,2s1,0.6,1,1.4c0,1.4-2.7,2.5-7,2.7c-2.1,0.1-1.9,0.3,1,1c1.9,0.5,4.7,0.6,6.3,0.3c2.1-0.4,2.8-0.2,2.8,1.1
	c0,1.5,0.8,1.6,6,1c6-0.7,6-0.7,6,1.9c0,1.6-0.6,2.6-1.5,2.6c-0.8,0-1.5,0.5-1.5,1c0,1.6-5.5,1.2-11.2-0.9
	c-8.7-3.1-20.4-4.9-19.2-2.9c0.3,0.4,1.1,0.8,1.9,0.8c2,0,1.8,2.8-0.3,3.3c-1,0.3,0.2,0.5,2.7,0.6c4.5,0.1,7,2,7.1,5.3
	c0,0.9,1.4,2.1,3,2.7c2,0.7,3,1.7,3,3.1c0,2.1-2.4,2.8-3.5,1.1c-0.9-1.5-2.5-1.2-2.5,0.5c0,0.8-0.6,1.6-1.3,1.6c-1,0.1-1,0.2,0,0.6
	c0.7,0.3,1.3,1.2,1.3,2c0,1-0.8,1.4-2.8,1.2c-2.4-0.3-2.7-0.7-2.5-3.3c0.1-1.6,0.7-3.1,1.3-3.3c1.3-0.4,1.3-2.5-0.1-5.5
	c-1-2.2-1.6-2.4-6.3-2c-5.6,0.5-9.7,2.5-9.7,4.9c0,0.8,0.7,1.7,1.5,2.1c2.3,0.9,1.8,3.4-0.8,3.4c-3.2,0-5.1-1.5-4.4-3.4
	c0.5-1.2,0-1.6-1.8-1.6c-1.3,0-3.1-0.2-3.9-0.6c-1.1-0.4-1.4-0.1-1,1.5c0.4,1.5,0.1,2.1-1.1,2.1c-0.9,0-1.6,0.4-1.6,0.9
	c0,1.2,3.9,2.5,6.6,2.2c1.1-0.1,2.7,0.5,3.4,1.3s1.8,1.2,2.4,0.8s3.1-0.8,5.4-0.9c3.4-0.1,4.9,0.4,7.3,2.7c3.4,3.1,2.6,3.2,16.6-2
	c1.7-0.7,4.1-0.9,5.3-0.5c1.2,0.4,2.1,0.2,2.1-0.4s1-1.9,2.2-3.1c2.5-2.3,11.6-2.8,16.5-1c2.5,0.9,3.1,0.8,5.2-1.7
	c2-2.3,2.1-2.9,0.9-3.8c-2.1-1.5-4-5.5-3.4-7c0.3-0.7,2.6-1.6,5.1-2c3.5-0.5,4.6-1.1,4.6-2.5c0-1,0.5-2,1.2-2.3
	c0.6-0.2,1.2-1.9,1.3-3.8s0.3-4.1,0.6-4.9c0.3-0.9-0.4-1.6-1.8-1.8c-1.2-0.2-2.3,0-2.3,0.6c0,0.5-1.8,0.9-4,0.9c-3.6,0-4-0.2-4-2.5
	C104.8,309.1,104.8,308.5,104.6,308.4z M67.9,314.1c-0.6,0-1.3,0.5-1.6,1s-0.1,1,0.4,1s1.3-0.5,1.6-1S68.5,314.1,67.9,314.1z
	 M50.8,322.1c-0.5,0-1,0.5-1,1s0.5,1,1,1s1-0.5,1-1S51.4,322.1,50.8,322.1z M51.8,328.1c-0.6,0-0.8,0.5-0.4,1s0.8,1,1.1,1
	s0.4-0.5,0.4-1S52.3,328.1,51.8,328.1z M45.8,328.6c-1.7-0.1-4,0.9-4,2.2c0,0.8-1,1.4-2.3,1.4c-2.2,0-2.2,0.1-0.3,1.5
	c2.5,1.9,2.6,1.9,6-1.1c1.7-1.5,2.5-2.9,2-3.4C46.9,328.7,46.4,328.6,45.8,328.6z M31,334.2c-0.4,0-0.8,0.3-1.2,0.9
	c-0.6,0.9-0.5,1.7,0.3,2.2c0.7,0.4,1.3,0.1,1.5-0.8C32,335.1,31.6,334.2,31,334.2z"/>
<path id="path10047" inkscape:connector-curvature="0" class="st0" d="M147.1,267.4c-0.8,0-2,0.9-4.4,3.1c-2.4,2.1-4.7,4.6-5.2,5.6
	s-1.8,2-3,2.3c-1.6,0.5-1.8,0.8-0.8,1.5c2.4,1.5,0.9,4.4-2.8,5.4c-3.8,1-6.8,3.3-5.7,4.4c0.4,0.4,1.2,0.2,1.9-0.5
	c1.7-1.7,6.8-1.5,6.8,0.3c0,0.8-0.6,1.5-1.3,1.5s-2.2,0.9-3.2,2c-1.8,2-1.8,2.1,0.6,4.6l2.4,2.6l1.4-3.6c0.8-2,2-3.6,2.7-3.6
	s2.5-2,3.9-4.5c1.5-2.5,3-4.5,3.4-4.5c2,0,5.2-4.3,4.6-6.2c-0.3-1.1-0.1-3.3,0.6-5c1-2.5,1-3.2-0.3-4.6
	C148,267.7,147.6,267.4,147.1,267.4z M110.6,283c-0.1,0-0.4,0.4-0.8,1.2c-0.7,1.1-2.3,1.8-4.7,1.8l-3.7,0.1l2.8,1.1
	c3.3,1.3,4,5.7,0.8,5.7c-2.8,0-5.2,1.1-4.5,2.1c0.3,0.5,3.7,0.9,7.5,0.9c4,0,6.9,0.4,6.9,1c0,0.5,0.9,1,2,1s2,0.7,2,1.5
	s-0.4,1.5-0.9,1.5s-0.7,0.9-0.4,1.9c0.3,1.3-0.2,2-1.8,2.5c-3.6,1-3.8,0.8-3.8-2.3c0-2.2-0.4-2.8-1.5-2.4c-0.8,0.3-1.5,1.3-1.5,2.2
	s-0.7,2.5-1.5,3.6c-2.4,3.2-1.8,5.1,1.5,5.1c1.7,0,3-0.4,3-0.8s1.5-0.7,3.3-0.5c2.8,0.3,3.2,0.7,3,2.8c-0.2,1.4-0.2,3.7-0.2,5.2
	s-0.6,3.4-1.5,4.2c-0.8,0.8-1.5,2.2-1.5,3c0,1-1.5,1.7-4.3,2.2c-2.3,0.4-4.6,0.9-5,1.2c-1,0.6,1.1,4.6,2.9,5.6c1.9,1.1,1.7,3-0.7,6
	l-2,2.6l4.1,2.7l4.1,2.7l3.7-2.1c2.6-1.5,4.5-3.7,6.4-7.7c3-6.2,4.4-6.7,9.4-3.7c1.7,1.1,4,1.7,5,1.4c2.6-0.7,7.3,1.3,7.3,3.1
	c0,0.8,1.1,3.1,2.5,5.2s2.5,4.3,2.5,5c0,1.4,1,1.7,4.6,1.4c1.1-0.1,2.7,0.5,3.4,1.4c1.8,2.1,4.3,2,3.7-0.2
	c-1.6-5.9-1.7-9.6-0.2-11.8c1-1.5,1.3-3.4,0.9-5c-0.5-1.9,0-3.2,1.6-4.9c2-2.1,2.1-2.7,1.1-6.4c-0.9-3.5-1.5-4.1-3.8-4.1
	c-3.4,0-5.1-1.1-6.6-4.1c-0.7-1.3-3-3.3-5.2-4.4s-4.1-2.3-4.3-2.8s-1-0.8-1.8-0.8s-1.4-0.7-1.4-1.5c0-1.1-1.1-1.5-3.9-1.5
	c-2.2,0-4.1-0.6-4.4-1.3c-0.4-0.9-1.1-0.6-2.5,1c-2.2,2.5-6.2,3-6.2,0.8c0-0.8,0.6-1.6,1.3-1.8c0.9-0.3,0.8-1.1-0.5-3
	c-1-1.5-1.8-3.7-1.8-4.9c0-2.2-0.1-2.2-1.4-0.4c-1.8,2.4-6,1.5-9.2-1.9c-1.2-1.3-2.9-2.4-3.8-2.4c-1.7,0-2.2-3.5-0.6-4.5
	c0.6-0.3,1-1.4,1-2.3C110.8,283.4,110.7,283,110.6,283z M102.6,300c-1.8,0-2,0.2-0.8,1c1.9,1.3,3,1.3,3,0
	C104.8,300.5,103.8,300,102.6,300z"/>
<path id="nord-trondelag" inkscape:connector-curvature="0" inkscape:label="#path1596" class="st0" d="M170.7,239.1
	c-1.6,0-2.9,0.4-2.9,1s0.9,1,2,1s2,0.7,2,1.5s-0.4,1.5-1,1.5s-1,0.6-1,1.4c0,3.3-9.6,2.9-10.2-0.4c-0.3-1.6-0.6-1.7-3.2-0.7
	l-2.9,1.2l4.7,2.3c3.5,1.7,5.5,2.2,8.1,1.7c3-0.6,3.4-0.4,3.4,1.3c0,1.1-0.6,2.2-1.3,2.5s-0.2,0.6,1,0.6c3.1,0.1,2.8,2.7-0.3,3.5
	c-2.8,0.7-5.4-0.8-5.4-3c0-0.8-0.6-1.1-1.5-0.8c-2,0.8-0.1,4.4,2.6,5.1c2,0.5,2.7,3.3,0.9,3.3c-0.6,0-1.5,1.1-2,2.5
	c-1.9,4.9-6,4-8.4-1.8l-1.1-2.7L151,263c-3,2.5-3.1,2.9-1.6,4.2c1.2,1,1.5,2.2,1,4.4c-0.4,1.7-0.6,4.5-0.6,6.3
	c0.1,3-2.9,7.3-5.1,7.3c-0.4,0-2,2-3.4,4.5c-1.5,2.5-3.2,4.5-3.9,4.5s-1.6,0.7-1.9,1.6c-0.7,1.9,1.4,1.4,8.1-1.8
	c4.5-2.1,5.5-3.8,2.3-3.8c-3.4,0-2.2-2.8,1.8-4.1c2.1-0.7,4.8-2.1,6.2-3.1s3-1.8,3.8-1.8c1.9,0,1.7,3-0.4,4.6
	c-1.1,0.8-1.3,1.3-0.5,1.3c1.6,0,1.6,5.1-0.1,7.3c-0.7,1-2.6,1.8-4.2,1.8c-2.9,0-10,2.7-7.7,2.8c1.5,0.1,1.7,4.7,0.3,5.6
	c-1.5,0.9-1.2,2.5,0.4,2.5c0.8,0,1.6,0.3,1.8,0.8s2.1,1.6,4.3,2.8s4.5,3.1,5.2,4.4s1.8,2.8,2.5,3.3c2.4,1.5,5.8,1,5.8-0.9
	c0-2.2,2.2-7.2,3.3-7.2c0.4,0,0.8-1.5,0.8-3.3c0-3.2,3.6-8.3,10.8-15.4c1.2-1.2,2.3-2.6,2.3-3s1.6-1.4,3.6-2.1c3-1.1,4.7-1.1,9.5,0
	c3.2,0.7,5.9,1.7,5.9,2.2s1,0.7,2.2,0.5c2.9-0.4,5.4-5.1,6.3-11.6c0.6-4.9,0.5-5.3-1.7-6.1c-3.4-1.3-5.1-3.8-4.4-6.4
	c0.3-1.2,3.1-5.6,6.1-9.8s5.5-7.8,5.5-8.3c0-0.4-1.1-0.8-2.5-0.8s-2.5-0.4-2.5-1s-3.1-1-7.4-1c-6.7,0-7.7,0.3-10.1,2.6
	c-2.3,2.3-3.2,2.5-6.8,2c-6.3-1-10.7-3.6-11.4-6.8C173.7,239.6,173,239.1,170.7,239.1z M158.1,258.6c-0.3,0.1-0.3,1,0.2,2.5
	c0.4,1.1,1.1,2.1,1.6,2.1s0.4-1.1-0.3-2.5C159,259.1,158.4,258.5,158.1,258.6z M152.9,289.1c-0.5,0-1.1,0.9-1.4,2
	c-0.6,2.4,0.8,2.7,1.7,0.4C154,289.4,154,289.1,152.9,289.1z"/>
<path id="path1565" inkscape:connector-curvature="0" class="st0" d="M263,76.1c-1.4-0.1-11.2,12.3-11.2,14.3c0,0.4,0.7,0.8,1.5,0.8
	c1.7,0,2.1,3.5,0.5,4.5c-0.6,0.3-1,2.2-1,4.1c0,2.8-0.5,3.6-2.5,4.4c-1.4,0.5-2.5,1.1-2.5,1.3c0,1.1,2.5,7.3,3.4,8.5
	c0.9,1.1,1.4,0.9,2.9-1c1.2-1.4,1.4-2.5,0.8-2.7c-1.7-0.6-1.4-6.2,0.4-6.2c0.9,0,1.5-0.9,1.5-2.3c0-1.3,0.4-2.7,0.9-3.3
	c0.5-0.5,1.1-2.5,1.3-4.4c0.3-3,0-3.5-1.9-3.8c-2.8-0.4-3-3.2-0.2-3.2c1.5,0,2.6-1.4,4.3-5.3C262.5,78.9,263.4,76.3,263,76.1
	C263.1,76.1,263,76.1,263,76.1z M247.3,87c-0.3,0-0.5,0.5-0.5,1.5c0,0.8-1,1.6-2.3,1.8l-2.3,0.4l2.3,0.2c2.4,0.1,2.9,1.6,1.3,4.1
	c-0.8,1.3-1.5,1.3-4.6,0.2c-2-0.7-3.8-1.2-3.9-1s-0.6,2.1-0.9,4.3l-0.7,4l1.9-2.3c2.2-2.6,7.1-3.1,7.1-0.8c0,0.8-0.5,1.5-1.1,1.5
	c-1.4,0-3.8,3-3.8,4.8c0,0.7,0.6,1.3,1.5,1.3s1.5-0.9,1.5-2.4c0-1.9,0.7-2.6,3-3.1c2.5-0.6,3-1.1,3.1-3.8c0.1-1.7,0-3.6-0.1-4.2
	s-0.3-2.2-0.4-3.8C248.4,88.1,247.8,87,247.3,87z M285,107.4c-2.1,0-2.2,0.4-1.7,2.5s0.1,2.9-1.7,3.7c-1.8,0.8-2.4,2-2.6,5.3
	c-0.4,5.5-2.7,5.7-3.6,0.3c-0.5-3.1-1-3.8-2.2-3.3c-0.9,0.3-2,0.1-2.4-0.6s-1.7-1.1-2.9-0.9c-2.1,0.3-2,0.5,0.8,3.5
	c1.7,1.8,3,3.9,3,4.8c0,2.9-3.6,1.6-6.6-2.4c-3.4-4.6-4.3-5-3.7-1.5c0.3,1.4,0.9,2.5,1.5,2.5s0.8,0.9,0.5,2c-0.4,1.6,0,2,1.9,2
	c1.5,0,2.4,0.6,2.4,1.5c0,0.8-0.5,1.5-1,1.5s-2.1,1.1-3.4,2.5s-2.8,2.5-3.3,2.5c-1.3,0-2.5-7.2-1.7-10.8c0.6-2.6,0.5-2.7-1-0.8
	c-0.9,1.1-1.6,2.3-1.6,2.8c0,1.2-2.8,1-3.2-0.3c-0.2-0.7-1.3-0.7-3.3,0.1c-2,0.8-2.5,1.3-1.5,1.6c0.8,0.3,2.2,0.7,3,1
	s2.5,0.5,3.8,0.4c1.6-0.2,2.3,0.3,2.3,1.8c0,1.6-0.8,2.1-4.3,2.4c-2.3,0.3-5.3,0.8-6.5,1.2c-1.7,0.6-2.3,0.3-2.3-0.9
	c0-2.8-5.5,3.6-5.6,6.6L238,141l3.5-2.4c6.5-4.4,10.2-4.3,10.2,0.3c0,2.1-0.4,2.5-2.8,2.3c-5-0.3-5.4-0.1-4.7,2.3
	c1,3.1,2.4,3.8,6.2,3.1c2.6-0.5,3.3-0.3,3.3,1.1c0,0.9-0.9,1.9-2,2.2c-1.5,0.4-1.9,1.1-1.4,2.9c0.9,3.6-2.7,3.1-4.9-0.6
	c-1-1.6-2.6-3.2-3.7-3.6s-2-1.2-2-2c0-1.1-0.5-1.1-2.4-0.2c-2.3,1.1-2.3,1.2-0.5,1.9c2.6,1,2.6,4.8,0,4.8c-1.1,0-2.2-0.6-2.5-1.3
	c-0.5-1-0.7-1-1.2,0c-0.9,1.9-4.2,1.5-4.8-0.5c-0.4-1.4-0.5-1.3-0.6,0.4c-0.1,1.2,0.4,2.6,1.1,3.1c2,1.6,6.6,2.3,7.3,1.3
	c1-1.6,3.3-1.2,5.5,1c1.1,1.1,2.9,2,4,2c1.3,0,2,0.7,2,2c0,2.9-2.3,3.4-6.1,1.4c-1.8-0.9-5.7-1.7-8.6-1.8s-5.3-0.5-5.3-0.9
	c0-0.5-0.4-0.6-1-0.2c-1.9,1.2-1,2.3,2.5,3.5c5.9,1.9,4.4,3.8-3,3.8c-5,0-6.5-0.3-6.5-1.4c0-0.8-0.4-1.4-0.9-1.4s-0.7,0.9-0.4,1.9
	c0.3,1.3-0.2,2.1-1.6,2.6c-1.7,0.6-1.9,1-1,2.7c0.6,1.1,0.8,2.7,0.5,3.4s-0.1,1.4,0.4,1.4s1,0.7,1,1.5c0,0.9-0.9,1.5-2.5,1.5
	c-2.1,0-2.5-0.5-2.5-3c0-4-1.8-3.8-3.5,0.3c-2.3,5.6-2.3,6.2,0.8,5.8c2.2-0.3,2.8,0.1,2.8,1.9c0,1.3-0.8,2.4-2,2.7
	c-1.1,0.3-2,0.9-2,1.4s-0.7,0.9-1.5,0.9s-1.5-0.6-1.5-1.4s-0.5-1.7-1-2.1c-0.7-0.4-0.8,0.3-0.4,1.9c0.4,1.8,0.1,3.1-1.1,4.3
	c-1.7,1.7-1.6,1.8,2.7,2.5c2.4,0.4,6.5,0.7,9.2,0.8c3.5,0.1,4.8,0.5,4.8,1.6s-1.1,1.5-4,1.5s-4,0.4-4,1.5c0,0.8-0.7,1.5-1.5,1.5
	s-1.5-0.7-1.5-1.5c0-1.1-0.8-1.3-3.3-0.9c-1.8,0.3-3.7,1-4.2,1.5s-1.8,0.9-2.9,0.9c-1.7,0-1.8-0.5-1.2-3.7c0.7-3.6,0.6-3.7-1.2-2
	c-1.1,1-2.4,1.7-3.1,1.7s-1.2,0.8-1.2,1.8s-1.1,2.4-2.5,3.2c-1.6,0.9-2.1,1.6-1.4,2.1c0.7,0.4,0.9,2.2,0.6,4.6
	c-0.5,3.5-0.5,3.6,0.5,1.2c0.6-1.5,2.2-3.1,3.5-3.7c1.3-0.6,2.3-1.5,2.3-2.1c0-2.1,3.6-0.9,4.8,1.7c2.4,5.1,0.7,8.7-2.2,4.7
	c-2.5-3.4-5.5,0.4-5.6,6.8c0,1.8-0.6,2.8-1.5,2.8c-0.8,0-1.5-0.7-1.5-1.5c0-1.7-1.6-2-2.5-0.4c-0.4,0.6-0.1,1.8,0.7,2.8
	c2.8,3.5,3.9,6.3,3.3,8.7c-0.6,2.6-3.4,3.5-3.4,1.2c0-1.6-2.8-7.4-3.9-8.1c-0.4-0.3-0.7,1.8-0.7,4.5c0,3.7-0.5,5.3-2,6.4
	c-1.8,1.4-1.8,1.5,1.2,1.5c2.7,0,3.2,0.5,3.8,3.2c0.7,3.4-0.4,4.8-3.8,4.8c-1.5,0-1.8-0.5-1.3-2.8l0.6-2.8l-2.6,2.9l-2.6,2.9
	l2.9,1.8c1.6,1,4,2,5.3,2.3c4.4,0.8,4.9,0.7,7.4-1.8c2.3-2.3,3.3-2.5,11-2.5c5,0,8.4,0.4,8.4,1s1.1,1,2.5,1c1.7,0,2.9-0.9,4-3
	c0.9-1.6,1.9-3,2.4-3s1.1-2.8,1.5-6.3c0.4-3.4,1.1-8.5,1.6-11.3s1.2-8.1,1.5-11.8l0.6-6.8l3.4,0.6c2.5,0.5,4.6,0,8.4-1.9
	c4.7-2.4,4.9-2.7,4-5.1c-1.3-3.5-1.2-5.4,0.3-5.5c2.2-0.1,5.5-3.5,8.1-8.5c1.4-2.7,4.4-6.7,6.6-8.8c5.2-5,6-9.4,3.2-16.1
	c-2.4-5.5-2-8.1,1.3-8.9c1.7-0.4,3-2.3,5-7.3c2.2-5.4,3.7-7.5,7.6-10.5c4.5-3.5,8-4.8,8-3c0,0.4,1.2,1.5,2.8,2.4
	c2.1,1.3,3,1.3,3.9,0.4c2.3-2.5,3.1-5.3,3.7-12.1c0.7-8.5-0.4-10.9-5.1-11.2C285.6,107.4,285.3,107.4,285,107.4L285,107.4z
	 M240.8,110.6c-3.4,0-9,4-9,6.5c0,1.4,2.1,1.3,3.9-0.3c0.9-0.7,3.1-1.9,4.9-2.7c2.8-1.1,3.5-1.1,4.3,0.1s0.9,1.2,0.9-0.1
	C245.8,111.5,244.4,110.6,240.8,110.6z M228.6,113.1c-1.5,0-2.8,0.4-2.8,1s-1,0.9-2.3,0.8c-1.9-0.3-2.3,0.2-2.6,3
	c-0.2,1.8,0,3.2,0.5,3c5.2-2.5,6.3-3.3,6.3-4.4c0-0.7,0.8-1.7,1.8-2.3C231.1,113.3,230.9,113.2,228.6,113.1z M217.2,119.8
	c-0.5,0-1.3,0.3-2.4,1c-3,1.8-5.9,6-5.9,8.5c0,0.8,0.6,0.5,1.5-0.7c0.8-1.1,1.9-2.4,2.4-2.8s1.9-1.7,3-2.8
	C217.9,121,218.3,119.8,217.2,119.8z M204.4,135.1c-0.8,0-1.7,0.4-2.1,1s0.3,1,1.4,1s2.1-0.4,2.1-1S205.2,135.1,204.4,135.1z
	 M178.4,215.1c-1.7,0-3.8,2.4-2.9,3.3c1.2,1.2,3.1,0.7,3.7-0.9C180.1,215.3,180,215.1,178.4,215.1z"/>
<path id="path1477" inkscape:connector-curvature="0" class="st0" d="M324.2,37.4c-0.2,0.1-0.3,0.6-0.3,1.4c0,1.2,0.3,1.4,0.6,0.6
	c0.3-0.7,0.3-1.6-0.1-1.9C324.4,37.4,324.3,37.3,324.2,37.4z M315.3,39.2c-0.3,0-0.5,0.9-0.5,2s-0.5,2-1,2c-1.8,0-1,1.5,1.8,3.2
	c1.5,0.9,2.8,1.7,2.9,1.8c0.6,0.3,3.3-1.3,3.3-1.9C321.8,45.4,316.1,39.2,315.3,39.2z M340.8,40.7c-0.3,0.1-0.8,0.4-1.5,0.9
	c-1.6,1.2-1.7,1.5-0.4,1.5c0.9,0,2.8,1.4,4.3,3c1.6,1.8,3.7,3,5.2,3c1.8,0,2.5,0.5,2.5,2c0,1.1-0.5,2-1,2c-0.7,0-0.7,0.6,0,1.9
	c1.4,2.5,1.3,5.1-0.1,5.1c-0.6,0-2.9-2-5.1-4.5s-4.7-4.5-5.6-4.5c-1.3,0-1.3,0.3-0.4,1.2c2,2,1.4,3.8-1.2,3.8
	c-1.5,0-2.6-0.7-2.9-1.8s-0.5-0.9-0.6,0.8c-0.1,1.4-1.3,3.8-2.6,5.3s-2.5,3.7-2.5,5s-0.7,2.6-1.5,2.9s-1.5,1.5-1.5,2.7
	c0,3.1-3.2,7.9-5.2,7.9c-2.3,0-2.2-1.8,0.2-5.5c1.1-1.7,2-4.6,2.1-6.5s0.7-5.3,1.5-7.5c2.3-6.4,1.7-7.3-2.1-3.3
	c-3.6,3.9-4.7,8.8-2,8.8c0.8,0,1.5,0.7,1.5,1.5s-0.8,1.5-1.8,1.5c-1.1,0-2.5,1.4-3.5,3.5c-1.6,3.4-4.7,4.8-4.7,2.1
	c0-0.8,0.9-3.4,2-5.8c4.5-10,1.8-12-5.8-4.2c-3.1,3.2-6.6,6.3-7.6,6.9c-1.8,1-1.8,1.1,0.3,3.3c2.7,2.7,2.7,3.8,0.2,5.2
	c-2.9,1.5-4.1,1.3-4.1-0.9c0-2.5-2-3.7-3.1-1.9c-0.5,0.8-0.9,3.1-0.9,5.1c0,3.2-0.4,3.8-2.3,3.8c-5.3,0-9.3,6.5-4.7,7.7
	c2.3,0.6,2.7,3.3,0.5,3.3c-0.8,0-1.5,0.6-1.5,1.4s-1.6,2.1-3.5,3.1c-1.9,0.9-3.5,2.1-3.5,2.6c0,1.4-2.8,1.2-3.2-0.2
	c-0.2-0.7-1.7,0.1-3.7,1.8c-3.9,3.5-3.4,5.5,1,4.7c1.9-0.4,2.9-0.2,2.9,0.5c0,1.7,3,1.4,3.7-0.4c0.3-0.8,1.2-1.5,2-1.5
	s1.4-0.4,1.4-0.9s2-0.9,4.5-0.8c3.5,0.1,4.6,0.5,5.1,2c0.4,1.4,0.9,1.6,1.7,0.8c1.7-1.7,3.5-1.3,4.2,0.8c0.4,1.4,1.9,2.1,5.3,2.6
	c2.6,0.4,7.2,1.9,10.2,3.5l5.5,2.8l2.2-2.7c1.9-2.3,2-2.8,0.8-3.8c-1.9-1.5-1.8-2.4,0.4-4.8c1-1.1,2.2-4.3,2.6-7.1
	c0.6-4.3,0.4-5.3-1.4-6.9c-3-2.7-2.6-4.6,0.9-4.6c1.6,0,4.1-0.5,5.4-1.1c2-0.9,2.8-0.8,4.1,0.5c2.4,2.4,2.7,2,2-2.3
	c-0.6-3.4-0.4-4.1,1.8-5.5c3.6-2.4,7.2-1.1,9.8,3.6c2.3,4,2.8,4.3,6.5,3.3c3.2-0.9,3.7-4.6,1.2-9.8c-1.8-3.7-1.9-4.7-0.9-6
	c0.7-0.9,2.1-1.6,3.1-1.6c2,0,4.4-3.5,3.4-5c-0.3-0.5-1.2-1-2-1c-0.9,0-1.7-1.7-2.1-5c-0.4-3.1-1.2-5-2-5c-1.3,0-1.6-0.8-2.8-6.1
	c-0.5-2.1-1.3-2.7-4.6-3.3c-2.8-0.4-4.3-1.3-4.8-2.7C341.6,41,341.3,40.6,340.8,40.7L340.8,40.7z M330.1,41.2
	c-0.6,0-1.3,0.4-2.1,1.2c-1.8,1.8-1.5,4.6,0.5,5.1c1,0.3,2,0.5,2.3,0.6s1.2-0.3,2-0.9c1-0.6,1.1-1,0.3-1c-0.7,0-1.3-1.2-1.3-2.5
	C331.8,42,331.1,41.2,330.1,41.2z M303.7,46.2c-0.3,0-0.8,0.1-1.3,0.3c-0.8,0.3-1.6,1.1-1.6,1.6c0,0.7,0.7,0.6,2-0.2
	C304.4,47,304.7,46.1,303.7,46.2z M309.3,47.5l-3,2.8c-1.6,1.6-2.4,2.8-1.8,2.8c0.7,0,1.3,0.7,1.3,1.5s-0.9,1.5-2,1.5
	c-1.4,0-1.8,0.5-1.4,1.6c0.7,1.9-2.3,4.3-5.7,4.5c-1.7,0.1-2,0.3-0.8,0.6c2.7,0.7,2.1,3.3-0.8,3.3c-1.5,0-2.3,0.4-1.9,1
	c1.6,2.6,8.2-1.1,11-6.3c1.1-2,2.5-3.7,3.1-3.7s1.9-1.1,2.8-2.5c1.8-2.8,4.6-3.4,4.6-1c0,1.8,1.2,1.9,2.8,0.3
	c1.6-1.6,1.5-2.8-0.3-2.8c-0.8,0-2.9-0.8-4.8-1.8L309.3,47.5z M286.8,66.8c-0.1,0-0.2,0-0.3,0.1c-2.9,1.8-4.7,3.9-4.7,5.4
	c0,0.9-0.9,1.9-2,2.2c-1.6,0.4-1.9,1-1.4,3.1c0.6,2.2,0.3,2.6-1.7,2.7c-1.7,0.1-1.9,0.2-0.6,0.6c2.5,0.6,2.2,3-0.5,3.8
	c-1.9,0.6-2,0.8-0.5,1.2c1,0.3,1.8,1,1.8,1.6s0.5,0.2,1-1c1.1-2.7,4-4.3,7.8-4.3c2.8,0,3.1-0.4,4-4.9c0.9-4,0.8-5.5-0.5-8
	C288.4,67.7,287.5,66.7,286.8,66.8z M266.1,89.5c-0.2,0-0.3,0.2-0.3,0.5c0,0.7-0.9,2.6-2.1,4.2s-1.6,2.9-1,2.9s1.1,0.5,1.1,1
	c0,1.4-6,7-7.6,7c-0.7,0-1.4,0.9-1.4,2.1c0,2,0.1,2,3.1-0.5c1.7-1.4,4.1-2.6,5.3-2.6c2.6,0,7-7,4.9-7.8c-1.6-0.5-1.6-2.9,0-3.5
	c0.9-0.3,0.8-1-0.5-2.3C266.8,89.8,266.3,89.5,266.1,89.5z M280.1,94c-0.7,0.1-1.7,0.8-3.2,2.2c-3.8,3.4-3.1,3.8,1.7,1.2
	c2.1-1.1,2.9-2.1,2.4-3C280.8,94.1,280.5,93.9,280.1,94z M264.5,107.6c-0.3,0-0.9,0.4-2.1,1.3c-1.3,1-2.2,2.1-2,2.4
	c0.8,1.4,4.4-0.5,4.4-2.3C264.8,108.1,264.8,107.6,264.5,107.6z"/>
<path id="path10041" inkscape:connector-curvature="0" class="st0" d="M422.9,0c-0.5,0-0.7,0.9-0.4,2c0.3,1.2,0,2-0.7,2
	c-1.4,0-4.1,2.5-4.1,3.8c0,0.5,1,0.9,2.2,0.8c3-0.1,3.5,2.8,0.9,5.5c-1.3,1.3-2.2,4.3-2.7,8c-0.5,4.4-1.1,6-2.5,6.4
	c-1,0.3-2.1,1.2-2.4,2S411.9,32,411,32c-1.4,0-1.6-0.8-1.1-5.5c0.3-3.1,0.2-5.5-0.4-5.5c-1.5,0-1.1-1.9,1-4.8c2.5-3.5,1.8-8.7-1-7.2
	c-1,0.5-2.8,3-4,5.5s-2.6,4.5-3.2,4.5s-0.7,0.9-0.3,2c0.8,2.5-2.2,10.6-4.2,11.4c-0.9,0.4-1.2,1.4-0.8,3c0.8,3.3-2,8.4-5.1,9.2
	c-3.2,0.8-3.6,0.4-3.8-3.8c-0.1-3.1,0.1-3.3,2.7-3.1c2.1,0.1,2.6-0.1,1.9-1c-0.5-0.7-0.9-3.9-0.9-7.2c0-5.5,0.3-6.2,3.3-9
	c3.3-3,5.7-9.5,3.5-9.5c-0.6,0-1.1-0.9-1.1-2c0-1.4,1-2.3,3.3-2.9c1.8-0.5,2.5-1,1.5-1s-1.8-0.7-1.8-1.4s-1.1-1.8-2.4-2.4
	c-2.1-0.9-2.6-0.8-3.9,1.1c-1.1,1.7-1.2,2.6-0.3,4.1c0.8,1.4,0.8,2-0.2,2.3c-0.7,0.3-1.3,1.3-1.3,2.4s-0.5,1.9-1.1,1.9
	c-1.4,0-5.3-2.1-6.1-3.3c-1.2-1.8-2.6,0.2-2.1,2.8c0.4,2.1,0.2,2.5-1.4,2.3c-1-0.2-2,0-2.2,0.4c-0.7,2,0,2.7,2.3,2.7
	c2,0,2.5,0.5,2.5,2.6s-0.4,2.5-2,2.1c-2.8-0.7-5,3.1-2.6,4.5c0.9,0.5,1.6,1.6,1.6,2.5c0,1.2-0.7,1.4-3.4,0.9c-3-0.6-3.7-0.3-5.5,2.3
	c-1.1,1.6-2.5,4.1-3.1,5.5s-1.4,2.6-1.8,2.6s-0.8,1.6-0.9,3.5s0.2,3.5,0.8,3.5c1.4,0,1.1,3-0.5,4.6c-2.6,2.6-4.4,1.7-4.3-2.1
	c0.1-2-0.4-3.9-1-4.3c-1.6-1-2.8-6.2-1.4-6.2c0.6,0,1.1-1.3,1.1-3c0-3.6,2.7-4.2,3.2-0.8c0.3,1.9,0.7,1.5,2.6-2.3
	c2.4-5,2.8-7.5,1.3-8.4c-0.5-0.3-1,0-1,0.7s-1.3,1.9-2.9,2.6c-1.7,0.7-3.1,2.3-3.5,3.8c-0.4,1.8-1.3,2.5-3,2.5
	c-2.9,0-4.3,1.8-2.1,2.6c1.7,0.7,2.2,3.4,0.6,3.4c-0.5,0-1,0.7-1,1.5s-0.7,1.5-1.5,1.5s-1.5-0.8-1.5-1.9c0-1.1-0.9-2.1-2.2-2.5
	c-2.6-0.7-2.4-0.8-3.3,2.1c-0.6,1.9-0.3,2.3,1.8,2.3c2.5,0,2.8,0.4,4.1,6.3c0.3,1.5,1.2,2.8,2,2.8c0.9,0,1.6,1.8,2,4.9
	c0.5,3.7,1.1,5,2.6,5.4c3.4,0.9,1.7,7.7-1.8,7.7s-4.2,2-2,6.3c2.8,5.6,1.9,10.3-2.2,11.2c-3.1,0.7-3.5,1.5-2.1,4.3
	c0.5,1,1.7,3.7,2.7,6c1.3,3.3,2.3,4.3,4,4.3c1.3,0,2.6,0.4,2.9,1s1.7,1,3.1,1s2.5,0.6,2.5,1.3c0,0.7,0.5,0.5,1.1-0.5
	s2.1-1.8,3.4-1.8c1.7,0,2.6-0.7,3.1-2.5c0.7-2.6,4.6-4.6,5.2-2.7c0.8,2.4,3.2,3.9,7.2,4.5c3,0.5,4.3,1.2,4.7,2.7c0.3,1.1,0.7,2,1,2
	c1.2,0,4.2-4.7,4.3-6.7c0.1-3.8,1.2-5.4,4.8-6.9l3.5-1.5l-0.7-8.6c-0.9-11.4,0.9-23.1,4-26.1c1.2-1.2,3-3.6,3.9-5.3
	c1.5-2.9,2-3.2,4.9-2.6c2.5,0.5,3.5,0.2,4.6-1.4c0.8-1.1,1.8-2,2.3-2s2-0.9,3.4-2c2.7-2.1,6.3-2.7,6.3-1s8.2,9,10.2,9
	c1,0,1.8,0.5,1.8,1s0.9,1,2,1c1.3,0,2.7,1.4,4,4c2.6,5.1,2.5,6.1-0.5,12c-2.9,5.8-3.2,9.8-0.8,11.5c2.4,1.7,4.2-0.8,4.3-5.8
	c0-3,0.9-4.6,3.9-7.8c2.1-2.2,4.4-4,5-4s1.4-1.2,1.7-2.8s0.8-3.3,1-4c0.5-1.5,4.1-1.7,4.9-0.3c0.5,0.8,3.5,0,5.3-1.5
	c0.2-0.1-0.5-1.9-1.4-3.9c-1.7-3.6-4.4-4.9-4.4-2.1c0,2.5-2.5,1.7-3.7-1.3c-1-2.6-1.1-2.5-1.8,2.5c-0.6,4.3-1.1,5.3-2.8,5.3
	c-1.5,0-1.8-0.5-1.4-2c0.6-2.3-0.8-2.7-1.7-0.5c-0.6,1.6-4.7,2.1-4.7,0.7c0-0.5,0.5-2.3,1.2-4.1c0.9-2.5,0.8-3.4-0.2-4
	c-0.7-0.4-1-1.4-0.7-2.3c0.4-1.1-1.1-1.8-6.5-2.8c-6.2-1.2-9.2-3-7.5-4.6c0.3-0.3,3.1,0,6.3,0.5c7.7,1.4,14.1-0.1,16.3-4
	c1.6-2.8,4.9-4.9,7.7-4.9c1.5,0,1.9-2.6,0.8-5.4c-0.3-0.9-1.4-1.6-2.4-1.6s-2.3-0.7-3-1.5c-0.8-1-2.2-1.3-4.3-0.8
	c-2.9,0.6-3,0.5-2.4-1.9c0.5-1.8,0.1-3-1.3-4.3c-1.8-1.6-2-1.6-2-0.2c0,1-0.8,1.7-2,1.7s-2-0.7-2-1.7c0-1.5-0.1-1.5-1.8,0
	c-2.7,2.5-4,2-4.4-1.6c-0.4-4.1-3.9-5-7.2-1.8c-1.9,1.8-2.2,3-2,9.3c0.2,8.2-0.7,11.8-3.2,11.8c-1.3,0-1.5-0.6-1.1-3
	c0.5-2.5,0.3-3-1.4-3c-2.5,0-2.5-1.5,0.1-4.8l2-2.6l-3-1.5c-3.8-1.8-4.2-5.2-0.6-5.2c1.7,0,2.9-0.9,4-3.2c0.9-1.7,1.6-3.2,1.6-3.3
	s-1.1,0-2.5,0.3c-2,0.4-2.5,0.1-2.5-1.6c0-1.8-0.5-2-3.5-1.5c-2.3,0.4-3.5,0.2-3.5-0.6C423.8,0.5,423.4,0,422.9,0z M384.8,3
	c-0.5,0-1,0.5-1,1s0.5,1,1,1s1-0.4,1-1S385.4,3,384.8,3z M376.6,6.3c-0.1-0.1-0.4,0.3-0.8,1.2c-0.5,1.1-0.9,2.3-0.9,2.8
	c0,0.4,0.4,0.8,0.9,0.8s1-1.2,0.9-2.8C376.7,7,376.7,6.4,376.6,6.3z M366.5,15.6c-0.3,0-0.7,0.2-1.2,0.7c-0.8,0.8-1.5,2-1.5,2.7
	c0,0.8-0.9,1-2.5,0.6c-2-0.5-2.5-0.3-2.5,1.4c0,2.2-2.5,2.8-3.3,0.8c-0.4-1-0.5-1-0.6,0c0,0.7-1.4,1.3-3.1,1.3c-1.6,0-3,0.5-3,1
	s0.7,1,1.5,1s1.5,0.9,1.5,2c0,4.2,8.1,1.4,12.5-4.3C366.6,19.6,367.6,15.6,366.5,15.6z M372.4,19.2c-0.2,0-0.4,0.2-0.6,0.5
	c-0.7,0.7-0.5,2,0.6,4.2c1.8,3.5,3.4,3.4,3.4-0.4c0-1.5-0.6-2.4-1.5-2.4c-0.8,0-1.5-0.5-1.5-1.2C372.8,19.3,372.7,19.1,372.4,19.2z
	 M461.4,47c-0.9,0-1.6,0.7-1.6,1.6c0,1.8,2.2,1.4,2.8-0.4C462.8,47.5,462.3,47,461.4,47z"/>
<g>
	<path class="st2" d="M120.2,409.3c0,0,10.2,2.6,12.5,4.1c1.2,0.8,3.2,2.3,4,4.1c1.3,2.6,1.4,5.5,1.4,5.5s-0.5-1.3-1.6-2.5
		c-0.6-0.7-2.2-1.5-3-1.7c-2.5-1-7-1.5-8.8-2.5c-0.9-0.6-2.5-1.7-3.2-2.9C120.5,411.4,120.2,409.3,120.2,409.3z"/>
	<path class="st2" d="M148.9,409.4c0,0-7.2,0.9-8.6,1.8c-1.1,0.6-2,1.4-2.3,2.6c-0.6,1.8-0.1,3.9-0.1,3.9s0.1-0.9,0.7-1.7
		c0.4-0.5,1.4-0.9,1.9-1c1.7-0.5,5-0.4,6.1-1c0.6-0.3,1.6-1.1,1.8-1.8C149.1,410.9,148.9,409.4,148.9,409.4z"/>
</g>
<g>
	<path class="st2" d="M102.1,433.2c0,0,10.2,2.6,12.5,4.1c1.2,0.8,3.2,2.3,4,4.1c1.3,2.6,1.4,5.5,1.4,5.5s-0.5-1.3-1.6-2.5
		c-0.6-0.7-2.2-1.5-3-1.7c-2.5-1-7-1.5-8.8-2.5c-0.9-0.6-2.5-1.7-3.2-2.9C102.3,435.3,102.1,433.2,102.1,433.2z"/>
	<path class="st2" d="M130.7,433.3c0,0-7.2,0.9-8.6,1.8c-1.1,0.6-2,1.4-2.3,2.6c-0.6,1.8-0.1,3.9-0.1,3.9s0.1-0.9,0.7-1.7
		c0.4-0.5,1.4-0.9,1.9-1c1.7-0.5,5-0.4,6.1-1c0.6-0.3,1.6-1.1,1.8-1.8C130.9,434.8,130.7,433.3,130.7,433.3z"/>
</g>
</svg>
