<?xml version="1.0" encoding="utf-8"?>
<!-- Generator: Adobe Illustrator 22.1.0, SVG Export Plug-In . SVG Version: 6.00 Build 0)  -->
<svg version="1.1" id="Layer_1" xmlns="http://www.w3.org/2000/svg" xmlns:xlink="http://www.w3.org/1999/xlink" x="0px" y="0px"
	 viewBox="0 0 1900 1000" style="enable-background:new 0 0 1900 1000;" xml:space="preserve">
<style type="text/css">
	.st0{fill:#EFEFEF;}
	.st1{fill:#010202;}
	.st2{fill:#313C53;}
	.st3{fill:#242D3D;}
	.st4{fill:#D6D6D6;}
	.st5{fill:#669898;}
	.st6{opacity:0.34;}
	.st7{clip-path:url(#SVGID_2_);fill:#9BBABC;}
	.st8{clip-path:url(#SVGID_4_);fill:#9BBABC;}
	.st9{fill:#9BBABC;}
	.st10{fill:#737373;}
	.st11{fill:#C14B18;}
	.st12{fill:#3C3C3B;}
	.st13{fill:#36B04B;}
	.st14{fill:#343A40;}
</style>
<path class="st0" d="M1775.3,248.5c16.4,15.4,65.1,333.6,48.3,404.8c22.5,40.4,27.5,190.6,7.5,201.7c-52.9,29-141.2,45.8-149.5,29.7
	c-7.9-16.4,12.5-170.6-131.6-178.8c-169.1-9.3-167.4,189.9-167.4,189.9l-911.9,7.5c0,0-5.4-193.5-168.1-193.5
	c-171.3,5-145.9,193.5-145.9,193.5s-61.1,5-67.2,0c-6.4-5-30-108-30-108s-9.3-40.8,0-66.9c9.7-25.7,37.5-40.8,37.5-40.8
	s-16.8-42.6,0-59.4c24.3-54,252.5-138,287.9-188.1s227.9-183.3,300.8-192.6C758.6,238.2,1749.2,223.9,1775.3,248.5"/>
<path class="st1" d="M328.5,915.4c2.1-2.5,6.4-2.5,8.9,0s2.5,6.4,0,8.9s-6.4,2.5-8.9,0S326,918,328.5,915.4"/>
<path class="st1" d="M289.2,913.7c3.6,0,6.4,2.5,6.4,6.4c0,3.6-2.9,6.4-6.4,6.4s-6.4-2.9-6.4-6.4
	C282.8,916.5,285.6,913.7,289.2,913.7"/>
<path class="st2" d="M303.1,709.1c162.3,0,168.1,157.9,168.1,157.9h-314c0,0-0.4-15.2-0.7-35.3C160.4,785.9,185.1,712,303.1,709.1"
	/>
<path class="st3" d="M310.3,741.7c68.3,0,123.7,55.4,124.1,123.4c0,67.9-55.8,123.4-124.1,123.4c-68.7,0-124.1-55.1-124.1-123.4
	C186.2,797.1,242,741.7,310.3,741.7"/>
<path class="st4" d="M310.3,786.4c43.6,0,79,35.4,79,78.7s-35.4,78.7-79,78.7s-79-35-79-78.7C231.2,821.8,266.6,786.4,310.3,786.4"
	/>
<path class="st2" d="M310.3,825c22.2,0,40,18.2,40.1,40.1c0,22.2-17.9,40.1-40.1,40.1s-40.1-17.9-40.1-40.1
	C270.2,842.9,288.1,825,310.3,825"/>
<path class="st2" d="M252.7,883.3c2.5-2.5,6.4-2.5,8.9,0s2.5,6.4,0,8.9s-6.4,2.5-8.9,0S250.2,885.8,252.7,883.3"/>
<path class="st2" d="M257,836.4c3.6,0,6.4,2.5,6.4,6.4c0,3.6-2.9,6.4-6.4,6.4c-3.6,0-6.4-2.9-6.4-6.4
	C250.6,839.3,253.4,836.4,257,836.4"/>
<path class="st2" d="M284.9,806c2.1-2.5,6.4-2.5,8.9,0s2.5,6.4,0,8.9s-6.4,2.5-8.9,0S282.4,808.5,284.9,806"/>
<path class="st2" d="M332.8,804.2c3.6,0,6.4,2.9,6.4,6.4c0,3.6-2.9,6.4-6.4,6.4s-6.4-2.9-6.4-6.4
	C326.4,807.1,329.2,804.2,332.8,804.2"/>
<path class="st2" d="M360.3,838.2c2.5-2.5,6.4-2.5,8.9,0s2.5,6.4,0,8.9s-6.4,2.5-8.9,0S357.8,840.7,360.3,838.2"/>
<path class="st2" d="M365,881.5c3.6,0,6.4,2.9,6.4,6.4c0,3.6-2.9,6.4-6.4,6.4s-6.4-2.9-6.4-6.4C358.5,884.3,361.4,881.5,365,881.5"
	/>
<path class="st2" d="M328.5,915.4c2.1-2.5,6.4-2.5,8.9,0s2.5,6.4,0,8.9s-6.4,2.5-8.9,0S326,918,328.5,915.4"/>
<path class="st2" d="M289.2,913.7c3.6,0,6.4,2.5,6.4,6.4c0,3.6-2.9,6.4-6.4,6.4s-6.4-2.9-6.4-6.4
	C282.8,916.5,285.6,913.7,289.2,913.7"/>
<path class="st2" d="M1552.2,706.2c144.1,6.4,123.4,132.5,131.6,145.9l-298.9,9C1384.9,861.2,1383.4,698.6,1552.2,706.2"/>
<path class="st3" d="M1535.4,741.7c68.7,0,124.1,55.4,124.1,123.4s-55.8,123.4-124.1,123.4c-68.7,0-124.1-55.1-124.1-123.4
	C1411.3,797.1,1467.1,741.7,1535.4,741.7"/>
<path class="st4" d="M1535.4,786.4c43.6,0,79,35.4,79,78.7s-35.4,78.7-79,78.7s-79-35-79-78.7
	C1456.4,821.8,1491.8,786.4,1535.4,786.4"/>
<path class="st2" d="M1535.4,825c22.2,0,40.4,18.2,40.1,40.1c0,22.2-17.9,40.1-40.1,40.1s-40.1-17.9-40.1-40.1
	S1513.2,825,1535.4,825"/>
<path class="st2" d="M1476,883.3c2.5-2.5,6.4-2.5,8.9,0s2.5,6.4,0,8.9s-6.4,2.5-8.9,0S1473.5,885.8,1476,883.3"/>
<path class="st2" d="M1480.7,836.4c3.6,0,6.4,2.5,6.4,6.4c0,3.6-2.9,6.4-6.4,6.4c-3.6,0-6.4-2.9-6.4-6.4
	C1474.3,839.3,1477.1,836.4,1480.7,836.4"/>
<path class="st2" d="M1508.2,806c2.5-2.5,6.4-2.5,8.9,0s2.5,6.4,0,8.9s-6.4,2.5-8.9,0C1505.7,812.5,1505.7,808.5,1508.2,806"/>
<path class="st2" d="M1558.3,804.2c3.6,0,6.1,2.9,6.4,6.4c0,3.6-2.9,6.4-6.4,6.4s-6.4-2.9-6.4-6.4
	C1551.8,807.1,1554.7,804.2,1558.3,804.2"/>
<path class="st2" d="M1585.8,838.2c2.5-2.5,6.4-2.5,8.9,0s2.5,6.4,0,8.9s-6.4,2.5-8.9,0C1583.3,844.6,1583.3,840.7,1585.8,838.2"/>
<path class="st2" d="M1590.5,881.5c3.2,0,6.1,2.9,6.4,6.4c0,3.6-2.9,6.4-6.4,6.4c-3.6,0-6.4-2.9-6.4-6.4
	C1584,884.3,1586.9,881.5,1590.5,881.5"/>
<path class="st2" d="M1553.6,915.4c2.5-2.5,6.4-2.5,8.9,0s2.5,6.4,0,8.9s-6.4,2.5-8.9,0S1551.1,918,1553.6,915.4"/>
<path class="st2" d="M1512.9,913.7c3.2,0,6.1,2.5,6.4,6.4c0,3.6-2.9,6.4-6.4,6.4s-6.4-2.9-6.4-6.4
	C1506.4,916.5,1509.3,913.7,1512.9,913.7"/>
<path class="st0" d="M1662,653.3l162,0.4c22.5,40.4,27.5,190.6,7.5,201.7c-52.9,29-141.2,45.8-149.5,29.7
	c-7.9-16.4,12.5-170.6-131.6-178.8C1381.2,697,1383,896.1,1383,896.1l-911.9,7.5c0,0-5.4-193.5-168.1-193.5
	c-171.3,5-145.9,193.5-145.9,193.5s-61.1,5-67.2,0c-6.4-5-30-108-30-108s-9.3-40.8,0-66.9C69.6,703,97.5,688,97.5,688l48.3-22.5
	l13.9,28.6c0,0,63.7-53.6,142-57.2c78-3.6,142,37.2,142,37.2l974.1-20.7c0,0,57.2-35,134.5-31.5C1629.4,625.4,1662,653.3,1662,653.3
	L1662,653.3z"/>
<path class="st5" d="M656.8,290.7c57.2-12.5,139.5-20,160.6,0s12.5,173.8-16.1,206c-29,32.5-270.3,75.8-336.5,52.2
	c-65.8-23.6-53.3-73.3-42.2-100.5C433.6,420.9,599.6,303.3,656.8,290.7"/>
<g class="st6">
	<g>
		<g>
			<g>
				<g>
					<defs>
						<rect id="SVGID_1_" x="551.3" y="278.2" width="257.5" height="276.1"/>
					</defs>
					<clipPath id="SVGID_2_">
						<use xlink:href="#SVGID_1_"  style="overflow:visible;"/>
					</clipPath>
					<path class="st7" d="M805.2,283.9c1.4,0.4,2.5,0.7,3.2,1.1L583.5,551.8l0,0c-11.1,1.1-22.2,1.8-32.5,2.5l169.1-273.9l0,0
						c6.4-0.4,13.2-1.1,19.7-1.4c0.4,0,0.4,0,0.4,0c2.1-0.4,3.9-0.4,6.1-0.4c0.4,0,0.4,0,0.7,0c1.8,0,3.6,0,5.4,0c0.4,0,0.7,0,1.1,0
						c1.8,0,3.6,0,5.4,0c0,0,0.4,0,0.7,0c1.8,0,3.6,0,5.4,0c0.4,0,0.4,0,0.7,0C781.2,278.9,795.2,280.4,805.2,283.9L805.2,283.9"/>
				</g>
			</g>
		</g>
	</g>
</g>
<g class="st6">
	<g>
		<g>
			<g>
				<g>
					<defs>
						<rect id="SVGID_3_" x="627.5" y="291.8" width="196.3" height="254.6"/>
					</defs>
					<clipPath id="SVGID_4_">
						<use xlink:href="#SVGID_3_"  style="overflow:visible;"/>
					</clipPath>
					<path class="st8" d="M818.8,291.8c1.8,2.5,3.6,6.1,5,10.7L630.3,546.1c-1.1,0-1.8,0.4-2.9,0.4L818.8,291.8z"/>
				</g>
			</g>
		</g>
	</g>
</g>
<path class="st9" d="M99.3,627.9c8.9-19.7,44.7-43.3,88.3-67.6c-0.7,19-3.9,42.9-13.6,61.1c-11.1,21.5-51.1,34.3-81.2,41.1
	C91.1,650.1,91.1,635.8,99.3,627.9"/>
<g>
	<path class="st10" d="M822,559.3c11.8,0,21.1,9.3,21.1,21.1c0,11.8-9.7,21.1-21.1,21.1h-51.5c-11.8,0-21.1-9.7-21.1-21.1
		c0-11.8,9.7-21.1,21.1-21.1H822"/>
	<path class="st11" d="M1767.8,321.1c-2.1-17.2,6.1-33.6,19.7-42.9c16.8,69.4,41.1,238.5,41.5,329.3c-14.7-5.7-25.7-19-27.9-35.4
		L1767.8,321.1"/>
	<path class="st10" d="M455.8,432.3c12.5,0,22.5,8.2,22.5,18.6v82.6c0,10.4-10,18.6-22.5,18.6h-33.3c-12.5,0-22.5-8.2-22.5-18.6
		v-82.6c0-10.4,10-18.6,22.5-18.6H455.8"/>
</g>
<polygon class="st3" points="1339.5,809.2 1322.1,833.6 533.1,839.6 518.4,815 "/>
<path class="st0" d="M906.4,290.7c21.1-20,761-23.6,803.5,0c48.6,45.1,59,165.9,50.4,250.3c-17.2,15.4-527.1,39.7-738.1,14.7
	c-57.9-7.2-93.7-52.2-99.8-59C893.9,464.5,885.3,310.8,906.4,290.7"/>
<path class="st12" d="M952.6,363.5l-0.1,0.4c0.2-0.3,0.3-0.5,0.5-0.7C953,363.2,952.9,363.4,952.6,363.5z"/>
<g>
	<path class="st13" d="M1262.8,310.5c0,0,96.6,24.4,117.7,38.7c11.9,8,29.7,21.9,38.3,38.5c12.4,24.2,13,51.5,13,51.5
		s-4.3-12.2-14.9-23.8c-6.2-6.8-21.4-13.7-28.1-16.3c-23.2-9.2-66.3-13.8-83.1-23.6c-8.6-5-23.2-16.2-29.7-27.2
		C1265.3,329.9,1262.8,310.5,1262.8,310.5z"/>
	<path class="st13" d="M1533.6,311.2c0,0-67.7,8.7-81,17.2c-10.2,5.6-18.4,13.4-22,24.8c-5.1,16.8-1,37-1,37s1.2-8.7,7.1-16.2
		c3.5-4.5,13.6-8.1,18.1-9.4c15.7-4.5,47-3.7,57.8-9.4c5.5-2.9,14.5-9.8,17.5-17.3C1535,325.3,1533.6,311.2,1533.6,311.2z"/>
	<g id="ants">
		<path d="M1520.7,330.4c-1.5,0.3-2.7-0.4-4.1-0.8c-1.5-0.4-2.3-1.5-3.2-2.6c-1.5-1.9-3.5-2.5-5.4-3.4c-0.8-0.4-1.8-0.5-2.4-0.9
			c-1-0.7-1.8-0.4-2.6-0.1c-1.5,0.4-2.5,1.4-2.6,2.9c-0.1,0.5-0.3,0.6-0.8,0.4c-0.6-0.2-1.2-0.3-1.7-0.6c-0.3-0.1-0.3-0.3-0.6-0.4
			c0.2-0.1,0.3-0.3,0.6-0.4c0.3-0.2,0.7-0.3,0.9-0.4c2.2-1.3,3.2-3.7,5-5.4c0.8,0.4,1.6,0.7,2.4,1l-0.1,1c0.1,0,0.1,0,0.2-0.1
			c0.2-0.2,0.3-0.5,0.5-0.7c0.2,0.3,0.4,0.4,0.5,0.7c0.3,0.9,0.8,1.4,1.6,1.5c0.8,0.1,1.8,0,2.7-0.2c0.5-0.1,1-0.4,1.2,0.5
			c0.4-0.6,0.3-1.1,0.1-1.4c-0.5,0.1-0.9,0-1.3,0.1c-0.6,0.1-1.2-0.1-1.7,0.1c-1.5,0.2-2-0.3-2.1-1.7c0.1-0.3-0.2-0.6-0.4-0.7
			c-0.7-0.3-1.5-0.7-2.2-0.9c-0.6-0.2-1.2-0.3-1.8-0.4c-0.1,0-0.4,0.1-0.5,0.2c-1.4,0.8-2.5,1.9-3.3,3.2c-0.6,1-1.2,2.1-2.5,2.7
			c-0.7-0.7-1.4-1.4-1.9-2.2c-0.3-0.4-0.5-1-0.4-1.5c0.5-2.3,0.5-4.6-0.2-7c-0.1-0.2-0.1-0.4-0.2-0.5c0.1-2.2-1.5-3.2-3.1-4.2
			c-0.7-0.5-1.2-1-2-1.1c-0.1,0-0.2-0.3-0.3-0.4c-0.3-0.8-0.5-1.6-0.7-2.4c-0.1-0.2-0.1-0.4-0.1-0.6c-0.4,0.1-0.9,0.2-1.1,0.2
			c0.3,0.7,0.6,1.2,0.7,1.9c0.2,1.1,0.6,2,1.6,2.4c0.1,0,0.1,0.2,0.3,0.4c-1.6-0.5-2.8-1.8-4.4-1.3c-0.1-1.1-0.2-2.2,0.4-3.2
			s1.1-2,1.6-3.2c0.6-0.9,0.3-1.9-0.8-2.5c-0.8-0.6-1.4-1.1-2.1-1.8c-0.9-1-1.7-2.1-2.5-3.2c-0.2-0.3-0.4-0.4-0.8-0.2
			c-0.4,0.3-0.1,0.6,0.2,0.9c0.9,1,1.8,2,2.6,3.1c0.9,0.8,1.6,1.8,2.5,2.7c-0.5,1-1.1,2.1-1.4,3.4c-0.4,1.3-0.6,2.6-0.9,3.8
			c-0.4-0.1-0.9,0-1.3-0.1c-0.9,0-1.5,0.3-2,0.8c-0.6,0.6-1.1,0.8-1.8,1c-1.4,0.3-2.7,0.8-4,1.2c-0.9,0.3-1.8,0.8-2.8,1.1
			c-0.9-1.2-2.3-2.1-3.8-2.8c-0.6-0.3-1.4-0.4-2,0c-0.5,0.3-0.8,0.6-0.7,1.4c0.1,0,0.3-0.1,0.4-0.1c0.7-0.8,1.5-0.7,2.3-0.2
			c1.1,0.6,2.3,1,3.1,2.1c0.6,0.8,1.5,0.9,2.5,0.4c1.3-0.6,2.4-1.3,3.6-1.8c0.7-0.3,1.4-0.5,2.1-0.7c0.2,0.9,0.2,1.6,0.2,2.3
			c0.1,1,0.4,1.9,1.1,2.5c0.8,0.7,1.4,1.5,2.1,2.1c0.5,0.3,1,0.6,1.5,0.8c0.7,0.2,1.3,0.2,1.9-0.4c0.3-0.2,0.4-0.4,0.9-0.6
			c-0.2,0.4-0.2,0.6-0.4,0.9c-0.5,0.9-0.5,1.6,0.1,2.5c0.3,0.5,0.7,1.2,0.6,1.9c-0.1,0.3,0.3,0.7,0.5,0.9c0.5,0.7,1.1,1.2,1.7,1.9
			c-0.9,0-1.5,0.1-2-0.2c-1.6-0.6-3.1-1.1-4.7-1.7c-0.7-0.3-1.5-0.7-2.2-0.9c-0.3-0.1-0.5,0.1-0.8,0.2c-0.9,0.7-1.8,1.7-2.4,2.7
			c-0.5,0.7-0.9,1.3-1,2.2c-0.1,0.3-0.4,0.4-0.8,0.5c-0.9,0.2-1.8,0-2.8-0.3c-0.1,0.4-0.2,0.8-0.3,1.3c0.5-0.3,0.9-0.4,1.3-0.1
			c0.2,0.2,0.8,0.1,1.2-0.1c0.6-0.2,1.1-0.4,1.6-0.7c0.3-0.1,0.3-0.5,0.5-0.7c0.3-0.5,0.2-1.2,1.1-1.2c0.5-0.1,0.8-0.9,1.1-1.4
			c0.2-0.4,0.2-0.7,0.4-1c1,0.5,2,1,3.1,1.4c1.7,0.8,3.3,1.3,5.2,1.1c0.9-0.2,1.6-0.4,2.6-0.8c-0.2,0.4-0.1,0.6-0.2,0.8
			c-0.3,0.5-0.5,1-0.9,1.5c-0.4,0.3-1,0.5-1.6,0.5c-1.7-0.1-3.3,0.2-4.7,0.7c-0.7,0.3-1.2,0.8-1.7,1.1c-0.8,0.5-1.7,0.9-2.1,1.8
			c-0.2,0.4-0.2,0.7-0.4,1c-0.3,0.7-0.7,1.4-1.2,1.8c-1.1,0.7-2.2,1.3-3.3,1.9c-0.3,0.2-0.8,0.2-1.1,0.2c0.2,0.4,0.3,0.7,0.5,0.9
			c0.8-0.4,1.5-0.7,2.2-1.1c0.3-0.1,0.6-0.4,0.8-0.5c0.8,0.1,1.1-0.8,1.7-1.1c0.4-0.2,0.6-0.9,0.9-1.3c0.3-0.5,0.6-0.9,1-1.1
			c0.3-0.2,0.7-0.1,1,0c-0.1-0.2-0.3-0.3-0.4-0.4c0.6-0.7,1.1-1.3,1.7-2c0.2-0.1,0.3-0.1,0.4-0.2c1.2-0.1,2.3-0.2,3.5-0.3
			c1.1-0.2,2.3-0.3,3.3-1.2c0-0.1,0.2-0.1,0.3-0.1c0.8,0.5,1.4-0.2,2.1-0.4c0.6-0.2,0.9,0,0.7,0.7c-0.1,0.7-0.3,1.4-0.3,2.1
			c-0.1,0.4,0.2,0.8,0.2,1.1c0,0.1,0.1,0.3,0.1,0.4c-0.2,0.6-0.3,1.2-0.5,1.6c-1.3,2-0.8,4.1-0.4,6.2c0.2,1.1,0.5,2.1,0.7,3.1
			c0,0.1,0.1,0.4,0.2,0.4c0.6,0.2,0.4,0.7,0.5,1c0.4,2.7,0.5,5.4,1,8.2c0.1,0,0.2-0.1,0.3-0.1h0.1c0.2-0.2,0.3-0.6,0.5-0.8
			c-0.2-0.9-0.4-1.7-0.5-2.6c-0.3-1.8-0.8-3.7-0.8-5.5c0-1.8-0.8-3.4-1.1-5.1c-0.2-1.4-0.1-2.5,0.4-3.7c0.2-0.8,0.3-1.6,0.4-2.4v0.4
			c1-1,0.8-2.3,1.3-3.7c0.1,0.3,0.2,0.4,0.2,0.5c-0.1,0.6,0,1.1,0.6,1.4c0.1,0,0.2,0.5,0.1,0.6c-1.3,2-1.1,4-0.5,6.1s1.4,4,2.9,5.6
			c1.1,1.2,2,2.2,3.5,2.5c1.1,0.3,2.1,0.2,3.2-0.4c4.1-2,5.5-6,3.8-9.8c-0.7-1.5-1.3-2.9-2.7-3.9c-0.1,0-0.2-0.2-0.2-0.3
			c-1.1-1.9-2.9-2.6-5-2.7c-0.9,0-1.6,0.4-2.6,0.7c0.4-0.6,0.9-1,1.3-1.5c0-0.1,0.2-0.1,0.3-0.1c0.9,0.4,1.3-0.5,1.7-0.9
			c0.4-0.4,0.8-0.9,1.1-1.3c0.6-0.9,1.5-1,2.3-1.3c0.1,0,0.4,0.1,0.5,0.2c1.8,1,3.6,1.8,5.4,2.7c0,0.1-0.1,0.4-0.1,0.5
			c0.3-0.1,0.5-0.2,0.9-0.2c0.3,0.1,0.5,0.1,0.6,0.2c0.7,0.7,1.3,1.4,1.9,2c0.7,0.6,1.3,1,2.1,1.4c0.8,0.4,1.6,0.6,2.5,0.8
			c0.4,0.1,0.7-0.1,1.1,0c0.3,0.1,0.5,0.2,0.7,0.3c0.2-0.1,0.3-0.3,0.4-0.6l0.1-0.5C1520.8,330.7,1520.7,330.4,1520.7,330.4z
			 M1489.6,314.4c0.6-0.6,1.3-1.1,1.8-1.7c0.5-0.8-0.1-1.7-0.7-2.6c0.6,0.3,1,0.5,1.4,0.7c0.1,0,0.4,0.2,0.3,0.3
			c0.3,1,0.4,2,0.6,2.9c0.1,0.6,0.1,1.2,0,1.8C1491.7,315.4,1490.5,314.9,1489.6,314.4z"/>
	</g>
	<g id="roaches">
		<path d="M1319.1,322.1c-0.3-0.1-0.4-0.1-0.6,0.2C1318.8,322.4,1318.9,322.4,1319.1,322.1z M1303.2,378.8c4.2-0.7,8.5-1.6,12.3-3.8
			c1.2-1.2,2.3-1.7,3.4-2.3c0.3-0.2,0.8-0.4,1.3-0.6c0.3-0.1,0.6-0.2,0.7-0.3c0.6-0.2,1-0.4,1.5-0.6c1.5-0.6,2.7-1.9,3.3-2.7
			c0.8-0.8,1.3-1.7,2-2.6c-0.2,0.6,0.3,1.2-0.5,2c-0.1,0.4,0.4-0.2,0.5-0.4c0.2,0.7,0.1,1.3,0,2.1c0.5,0.5,0.8,0.9,1,1.4
			c0,0,0.1,0.2,0.1,0.3c0.2,0.6,0.4,1.2,0.7,1.8l0,0c0.1,0.2,0.2,0.4,0.3,0.6l0,0c0.2,0,0.1,0.2,0.2,0.3c-0.1,0.3,0.1,0.5,0.3,0.7
			c0.2,0,0.1,0.2,0.1,0.2l0,0c0.1,0.2,0.2,0.4,0.3,0.7c0.1,0.3,0.2,0.6,0.3,0.7c0.1,0.3,0.2,0.6,0.3,0.8c0.2,0.6,0.6,0.9,0.9,1.2
			h0.2c0.4,0.2,0.8,0.2,0.4-0.1c0.2,0,0.2,0,0.3,0.2c0.1,0.3-0.1-0.4-0.5-0.5c-0.5-0.7-1.4-2.4-1.9-3.7c0-0.2,0.1-0.3-0.1-0.4
			c-0.1-0.2-0.1-0.4-0.2-0.6c-0.3-0.7-0.7-1.8-1-2.5c-0.2-0.6-0.5-1.4-0.7-1.9c0.4-1.9,0.9-3.8,0.6-5.5c1.9-3.1,3.6-6,4.9-9.4
			c4,1.3,9.1,3.7,13.2,7.3c-0.1,0.5,0.2,0.9,0.9,1.3c-0.1-0.3-0.3-0.7-0.4-1c0.5-0.5,0.7,0.1,1.1,0.4c0.4-0.6-1.1-1.1-1.3-1
			c-1.1-0.9-2-1.8-3.3-2.7c0,0.2,0.1,0.3-0.1,0.4c-0.6-0.2-0.8-0.6-1.2-0.9c0.3-0.2,0.7,0.5,1,0.5c-1-1.2-3.2-2.3-5.4-3.5
			c-0.8-0.4-2-0.7-2.5-1c-0.2,0-0.1-0.4-0.1-0.4c-0.4-0.2-1.2,0-1.4-0.5c0.3-0.9,0.9-1.8,1-2.7c0.1-0.4,0.5-0.6,0.6-0.8
			c0.6-1.2,0.6-2.8,1-4c0.1-0.3,0.5-0.5,0.5-0.7c0.1-0.5,0-1.2,0.2-1.7c0.4-0.8,1.1-1.3,1.4-1.9c0.2-0.3-0.1-0.5-0.1-0.8
			c0.1-0.7,0.6-1.2,0.5-1.8c-0.1-0.8-0.7-1.7-0.6-2.5c-0.5-0.5-0.9-0.9-1.5-1.2c-0.3,0.2-0.1,0.4-0.2,0.5c0,0.2-0.6-0.7-0.6-0.6
			c0-0.2,0.1-0.3,0.1-0.3l0,0c-0.3-0.1-0.4-0.5-0.3-0.6c0.1-0.3,0.1-0.4-0.1-0.5c-0.1-0.4-0.3-0.8-0.4-1.2c1-0.4,1.8-1,2.7-1.6
			c0.5-0.4,0.1-0.5,0.2-0.8c1.5-1.3,2.7-2.8,3.7-4.5c0.8-1.1,1.6-2.3,1.9-2.9c0.3-0.2,0.5-0.5,0.7-0.6c-0.2,0-0.3,0.2-0.6,0.2
			c0.3-1,0-2.1-0.2-0.9l0,0c0,0.2-0.2,0.1-0.2,0.5l0.2-0.1c-0.1,0.3-0.2,0.6-0.3,0.9c-0.2,0.1-0.3,0.1-0.5,0.5
			c0.2-0.1,0.2-0.1,0.3-0.1c-0.2,0.1-0.3,0.4-0.3,0.5c-0.6,0.3-1.1,1.1-1,1.6c-0.4,0.2-1.6,1.2-1.3,1.9c-0.2,0.5-0.6,0.3-0.9,0.6
			c-1.5,2.3-3.1,3.4-5,3.6c-0.6-0.7-1-1.4-1.6-2c-0.1-0.2-0.4-0.5-0.6-0.7l0,0l0,0c-1-1.3-3.2-3.6-5.8-5.1c-0.2,0-0.3-0.2-0.4-0.2
			c-0.2,0-0.2,0-0.2,0c-1-0.5-2-0.9-3.1-1c-1.5-0.3-3.2,0.1-4.7,0.2c-0.1-0.2-0.2,0-0.3,0.1c1.7-0.1,3.3-0.5,4.9-0.2
			c1.1,0.4,3.3,1.3,5.6,2.9c0.2,0.4,0.7,0.6,1,0.8c0.1,0.2,0.2,0.3,0.4,0.5c0.1,0.2,0.5,0.3,0.6,0.6c0-0.2,0-0.2,0-0.2
			c0.2,0,0.1,0.2,0.3,0.2c-0.2,0.4,0.2,0.7,0.5,0.6c-0.1,0.3,0.4,1.1,0.8,0.9V328c0.1,0.2,0.1,0.2,0.2,0.3l-0.2,0.3l0.4,0.2v-0.2
			l0.1,0.2c0,0,0,0-0.2,0c-0.1,0.4,0.8,1.4,1.1,0.9c-0.3,0.5,0.2,0.9,0.9,1.2c-0.4,0.1-0.7,0.2-0.2,0.5c-0.5,0.4-1,0.3-1.5,0.5
			c-0.6,0.2-1.1,0.7-1.4,1.1c-1.4-0.2-2.7,0.1-4,0.2l0,0c-0.4,0.1-1.6,0.2-2.9,0.3c0-0.9-0.3-1.7-1.5-2.4l0,0
			c-0.6-0.4-1.9-1.2-3.4-1.6c-2-0.8-4.2-1.2-5.7-1.6c-0.9-0.5-1.3-1.1-1.8-1.3c-0.6-0.5-1.5-1.4-2.1-1.8c-0.8-0.8-2.1-2.9-2.5-2.6
			c-0.2,0-0.2,0.1-0.2,0.1l0,0c0,0.2,0.1,0.2,0.1,0.2c0.1,0.2,0.3,0.2,0.4,0.3c-0.1,0.9,1.6,0.9,1,1.8c0.3,0.1,0.4-0.1,0.6-0.2
			c0.1,0.5,0.8,1,1.4,1.5c0.3,0.2,0.4,0.5,0.6,0.6c0.5,1,2.9,1.7,2.9,2.7c3.2,1.6,5.4,1.3,8.8,3.3c-0.1,0.5-0.1,0.9-0.2,1.4
			c-1.5,0.2-2.5,0.5-3.3,0.8c-0.8,0.2-1.8,0.7-2.6,0.9c-0.5-0.7-0.4-1.4-0.7-2l0,0c0,0-1.1-2.7-4,0l0,0c-0.3,0.1-0.3,0.5-0.6,0.5
			c-0.3,0.1-0.2,0-0.6,0.3c-0.5,0.4-1.1,0.5-1.7,0.8c-0.7,0.6-1.2,1.4-2.1,1.4c-0.1,0.7-1.5,1.3-2.2,1.7c-0.6,0.3-0.9,0.8-1.5,0.2
			c0.6,0.7-0.5,1-1.1,0.5c0,0.2,0.4,0.3,0.5,0.5c-1.9,0.4-4.6-0.5-7-1.4c-1-0.4-1.9-1.4-2.9-1.7c-0.7-0.1-0.9-0.5-1.6-0.9
			c-0.4,0.1,0.6,0.2,0.7,0.6c-0.5,0.7-1,0.8-1.5,0.6c0.2,0.6,1.1,0.3,1.6-0.2c2,1.3,4.1,1.6,6,2.9c1.5,0.2,3.1,0.4,4.4,0.6
			c0.1,0.2-0.1,0.4-0.2,0.3c-0.1,0.5,0.6-0.3,0.9,0c-0.1,0.4-0.2,0.5-0.5,0.4c-0.2,0.4,0.6,0.2,0.7-0.2c0.1,0.2-0.1,0.3-0.1,0.4
			c0.7-0.3,1.3-1.3,2.2-0.9c-0.2-0.4,0.4-1,0.9-0.8c0.9-0.7,1.5-1.8,2.5-1.4c-0.4-0.5,0.3-0.9,0.7-1c-0.1,0.3-0.2,0.6-0.1,0.9
			c0.7-1.6,3-3,4.8-3.4c0.4,0.5,0.2,0.8,0.4,1.2c-0.3,0.2-0.1-0.3-0.5-0.2c-0.2,0.3,0.6,0.5,0.6,0.7c-0.3,0.4-0.6,0.7-1,0.4
			c-0.4,0.8-2.6,1.4-3.7,1.8c-1.9,0.8-3.5,2.3-5.3,3c-0.3,0.9-1.3,0.6-1.8,1.1c-0.4,0.2-0.8,0.8-1.2,1.2c-1.3,0.9-2.5,1.6-3.7,2.8
			c-1,0.9-2,1.8-2.8,2.9c-0.6-0.2-0.8-0.6-1.4-0.5c0.2-0.3-0.5-1-0.5-0.3c-0.6-0.6-0.8-0.4-1.2-0.8c0.4,1.1,1.6,1.5,2.8,2.4
			c-0.1,0.4-0.1,0.9,0,1.2c-0.4,0.6-0.7,1.2-0.7,1.2l0,0c-0.9,1.6-0.8,3.4,1.1,4.7l0,0c0.3,0.2,0.5,0.2,0.8,0.4
			c-0.9,0.6-2.2,1.9-2.6,2.5c-0.6,0.5-1.3,0.8-1.8,0.7c0,1.1,1.2-0.1,1.8,0.4c1-0.8,2.2-1.3,3.1-2.1c0.4-0.2,0.9-0.6,1.3-0.8
			c1.7,0.7,2.6,0.9,3,0.9c1.5,0.5,3.3,0.2,4.6,0.2c1.1,0,1.9,0.1,2.7,0.1c1.2,0,2.1,0.1,4.5-0.9c1.7-0.7,2.5-1.1,2.9-1.5l0.2-0.1
			c0.1,0.7,0.5,1.2,0.7,1.9c0.2,1.3,0.2,2.7,0.4,4.1c-0.3,0.4-0.6,0.3-0.8,0.3c-0.1,0.4,0.7,0.1,0.9,0.1c0.4-0.6-0.2-0.9,0.1-1.4
			c0.5,0.3-0.1,1.7,0.4,2.4c-2.1,0.5-4.8-0.1-6.8-0.3c-0.2,0-0.6,0.5-0.7-0.1c-1.3,0.6-2.7-0.4-3.9,0.1c-0.3-0.2,0.5-0.6-0.1-0.7
			c-0.5,0.7-1.8,0.6-1.9-0.1c-0.5,1.1-1.4-0.1-2.2-0.2c-0.2,0.3,0.6,0.5,0.7,0.6c-2.3,1-4.7,2.1-6.8,4.5c-0.3,0.4-0.8,0.3-1.1,0.5
			c-0.4,0.8-0.8,1.1-1.3,1.1c-0.6,0.8-0.6,1.5-1.3,1.7c0.9,0.3,1.9-0.3,2.3-1.5c0.6-0.2,1.4-0.6,1.5-1.4c0.7-0.1,1.5-0.7,1.7-1.4
			c1.7-1,3.4-2.3,5.2-2.6c0.1,0.7-1.1,0.4-1.5,0.7c0.6,0.4,1.2-0.3,1.9-0.4c1.4,0.1,2.2-0.1,3.7,0.2c0.1,0.2-0.2,0.4-0.2,0.5
			c0.5,0.1,0.3-0.2,0.6-0.6c0.5,0.7,1.7-0.5,2.4,0.7c1.4-0.5,3.9,0.5,5.6,0.3c0,0.2-0.1,0.4-0.1,0.5c0.3,0.1,0.4-0.2,0.3-0.4
			c1.1-0.2,2.7-0.6,2.8-2c0.1-0.3,0.3-0.2,0.4-0.1c0.4-0.9,0.4-1.8,0.4-2.7c0.1-1.3-0.1-2.6-0.3-3.3c-0.2-0.9-0.3-2-0.7-2.8
			c0-0.2,0-0.2,0-0.2c0.7-0.6,1.6-1.2,2.2-1.7c0.3,0.1,0.5-0.1,0.7-0.3c0.3,0.2,0.1,0.4-0.1,0.7c0.3,0.2,0.3-0.2,0.5-0.4l0,0l0,0
			c0,0.2,0.9,0.4,1,0.8l-0.3,0.4c0.3,0.2,0.3-0.4,0.5-0.4c0.1,0.2,0.3,0.6,0.7,0.9c0.4,0.3,0.9,0.4,1.1,0.5c0.7,0.6,1.2,1.6,1.8,2
			c-0.4,0.1-1-0.8-1.1-1.1c-0.5,0.5,1.3,1.3,0.9,2.2c0.2,0,0.3-0.2,0.4-0.1c0.2,0.3-0.1,0.8-0.2,1.2c0.1,0.5,0.2-0.3,0.3-0.4
			c0.1,0.7,0.5,1.4-0.2,2.2c0.6,0.4,0.4,1.5-0.1,2.3c0.2,0,0.2-0.1,0.3-0.2c0.2,0.4,0.2,0.8-0.1,1.3c-1,1.3-1.8,2.8-3.5,4.2
			c-1.9,1.6-3.3,1.8-4.4,2.3c-0.4,0.1-0.7,0.3-1,0.5l0,0c-0.2,0.1-0.2,0.1-0.2,0.1c-0.2,0.1-0.2,0.1-0.3,0.2c-2.6,2-5.1,3.4-7.8,4.3
			C1308.7,377,1305.8,377.3,1303.2,378.8z M1324.4,331.5L1324.4,331.5C1324.3,331.5,1324.3,331.5,1324.4,331.5
			C1324.4,331.5,1324.3,331.5,1324.4,331.5z M1334,333.2c0.3-0.2,0.6-0.5,0.9-0.7c0.4,0.1,0.8-0.1,1.1-0.4c0.1,0.5,0.3,0.8,0.7,1.1
			c-0.4,0.2-0.3,0.5-0.2,0.6c-0.5-0.1-0.9-0.3-1.4-0.1C1334.6,333.5,1334.3,333.5,1334,333.2z M1332.3,350.4
			c-0.7,0.1-1.6-0.9-1.7-1.3c0.1,0.2,0.8,0.4,0.5,0.1c-0.4-0.1-1.2-0.2-1.5-0.6c1.1,0.3,2.2,0.2,2.2,0.2s0,0,0.2-0.1
			c1.5-0.2,3.3-1.4,2.7-2.8c-0.7,0.2-0.1,0.8-0.5,1.1c-0.7,0.5-1.5,0.4-2.2,0.8c-0.3-0.2-0.5-0.2-0.8-0.4c0.3,0.1,0.4,0.1,0.7-0.1
			c1-0.7,2.8-1.4,2.9-2.4c-1,0.8-1.9,1.8-3.1,1.7c0.3-0.5,0.7-1.1,1.2-1c0,0.2-0.2,0.3-0.1,0.4c1.3-1.1,2.9-2.9,4.4-1.9
			c0.3,1.1-0.7,2-1,3.4l0.3,0.2c0,0-0.3,0.1-0.3-0.1c-0.2,1.5-1.3,3.3-1.9,4.7C1333.6,352.2,1331.5,351,1332.3,350.4z M1329.1,362.6
			c0.1-1.4-0.2-2.7-0.2-4.1c0.2,0,0.3,0.2,0.4,0.1c-0.4-0.2-0.5-0.7-0.5-1c-0.3-2.2-1.5-3.4-1.9-3.7l-0.1-0.2
			c-0.2-0.3-0.4-0.5-0.5-0.6c-0.5-0.6-0.9-1.2-1.5-1.7c-0.5-0.2-0.9,0.6-1.3,0.2c0.6-0.5,1.6-1.1,2.3-1.7c0.6,0.2,1.1-0.3,1.6-0.5
			c0.6,0.5,0.8,0.9,1.1,1.3c0.4-0.6,1.2,0.9,1.5,1.2c0.1-0.3-0.1-0.4,0.3-0.2c1.2,0.8,1.9,1.3,3.3,2
			C1332.3,356.5,1330.9,360,1329.1,362.6z M1337.2,334.4C1337.6,334.4,1337.2,334.2,1337.2,334.4L1337.2,334.4z"/>
	</g>
</g>
<g>
	<g>
		<path class="st14" d="M1172.5,496.9c0-1.9-0.7-3.3-2-4.3s-3.6-2.1-6.9-3.2s-6-2.2-8.1-3.2c-6.8-3.3-10.2-7.9-10.2-13.8
			c0-2.9,0.8-5.5,2.5-7.7c1.7-2.2,4.1-4,7.2-5.2s6.6-1.9,10.5-1.9c3.8,0,7.2,0.7,10.2,2s5.3,3.3,7,5.8s2.5,5.3,2.5,8.5h-12.6
			c0-2.1-0.7-3.8-2-5s-3.1-1.8-5.3-1.8c-2.3,0-4.1,0.5-5.4,1.5s-2,2.3-2,3.8c0,1.3,0.7,2.6,2.2,3.7c1.4,1.1,4,2.2,7.6,3.4
			c3.6,1.2,6.6,2.4,9,3.8c5.7,3.3,8.5,7.8,8.5,13.5c0,4.6-1.7,8.2-5.2,10.8c-3.5,2.6-8.2,3.9-14.3,3.9c-4.3,0-8.1-0.8-11.6-2.3
			s-6.1-3.6-7.8-6.3c-1.7-2.7-2.6-5.7-2.6-9.2h12.7c0,2.8,0.7,4.9,2.2,6.2c1.5,1.3,3.8,2,7.1,2c2.1,0,3.8-0.5,5-1.4
			C1171.9,499.8,1172.5,498.5,1172.5,496.9z"/>
		<path class="st14" d="M1209.6,491.3l-5.2,5.7v13.9h-12.7v-52.6h12.7v23.2l4.4-6.7l11.3-16.5h15.7l-17.8,23.3l17.8,29.3h-15
			L1209.6,491.3z"/>
		<path class="st14" d="M1268.9,501h-17.4l-3,9.8H1235l19.3-52.6h11.9l19.4,52.6H1272L1268.9,501z M1254.6,491.2h11.3l-5.7-18.2
			L1254.6,491.2z"/>
		<path class="st14" d="M1289.5,510.9v-52.6h16.9c4.6,0,8.8,1.1,12.5,3.2c3.7,2.1,6.6,5.1,8.7,8.9c2.1,3.8,3.1,8.1,3.2,12.9v2.4
			c0,4.8-1,9.1-3.1,13c-2,3.8-4.9,6.8-8.6,9s-7.8,3.2-12.4,3.3L1289.5,510.9L1289.5,510.9z M1302.1,468v33.1h4.4
			c3.6,0,6.4-1.3,8.4-3.9s2.9-6.4,2.9-11.5v-2.3c0-5.1-1-8.9-2.9-11.5c-2-2.6-4.8-3.9-8.5-3.9L1302.1,468L1302.1,468z"/>
		<path class="st14" d="M1369.9,488.5H1350v12.6h23.6v9.8h-36.2v-52.6h36.3v9.8H1350v11.1h19.9V488.5z"/>
		<path class="st14" d="M1378.7,510.9v-52.6h16.9c4.6,0,8.8,1.1,12.5,3.2c3.7,2.1,6.6,5.1,8.7,8.9c2.1,3.8,3.1,8.1,3.2,12.9v2.4
			c0,4.8-1,9.1-3.1,13c-2,3.8-4.9,6.8-8.6,9s-7.8,3.2-12.4,3.3L1378.7,510.9L1378.7,510.9z M1391.4,468v33.1h4.4
			c3.6,0,6.4-1.3,8.4-3.9s2.9-6.4,2.9-11.5v-2.3c0-5.1-1-8.9-2.9-11.5c-2-2.6-4.8-3.9-8.5-3.9L1391.4,468L1391.4,468z"/>
		<path class="st14" d="M1444.3,481.1l9.7-22.8h13.7l-16.9,33.7v18.9h-12.9V492l-16.9-33.7h13.6L1444.3,481.1z"/>
		<path class="st14" d="M1491,492.3h-6.9v18.6h-12.7v-52.6h20.7c6.2,0,11.1,1.4,14.6,4.2c3.5,2.8,5.3,6.7,5.3,11.7
			c0,3.7-0.7,6.7-2.2,9.1s-3.8,4.4-7,5.8l11,21.2v0.5h-13.6L1491,492.3z M1484.1,482.5h8c2.4,0,4.2-0.6,5.4-1.9
			c1.2-1.3,1.8-3,1.8-5.3s-0.6-4.1-1.8-5.3c-1.2-1.3-3-1.9-5.4-1.9h-8V482.5z"/>
		<path class="st14" d="M1559.2,468h-15.8v42.8h-12.7V468h-15.5v-9.8h44V468z"/>
		<path class="st14" d="M1597.2,488.5h-19.9v12.6h23.6v9.8h-36.2v-52.6h36.3v9.8h-23.6v11.1h19.9v9.3H1597.2z"/>
		<path class="st14" d="M1635.9,501h-17.4l-3,9.8H1602l19.3-52.6h11.9l19.4,52.6H1639L1635.9,501z M1621.5,491.2h11.3l-5.7-18.2
			L1621.5,491.2z"/>
		<path class="st14" d="M1673,458.3l11.7,36.6l11.7-36.6h16.7v52.6h-12.7v-12.3l1.2-25.1l-12.7,37.4h-8.4l-12.8-37.5l1.2,25.2v12.3
			h-12.7v-52.6H1673L1673,458.3z"/>
	</g>
</g>
<g>
	<path class="st14" d="M1403.4,597.9c-2.3,2.1-4.9,3.1-7.8,3.1c-4.2,0-7.6-1.4-10-4.3s-3.7-6.7-3.7-11.5c0-3,0.7-5.8,2.1-8.3
		c1.4-2.6,3.3-4.6,5.8-6.1s5.3-2.2,8.3-2.2c3.1,0,5.8,0.8,8.3,2.3s4.4,3.7,5.8,6.6c1.4,2.8,2.1,6.1,2.1,9.8v4.1c0,5.1-1,9.6-3,13.4
		s-4.9,6.7-8.6,8.7s-8.1,3-13.1,3h-0.7v-8.6h2C1398.4,607.5,1402.6,604.2,1403.4,597.9z M1398.5,593.2c2.3,0,4-1,5.1-3v-4.5
		c0-3-0.5-5.2-1.5-6.6c-1-1.4-2.4-2.1-4.1-2.1c-1.5,0-2.8,0.8-3.8,2.4c-1,1.6-1.5,3.6-1.5,5.9c0,2.4,0.5,4.4,1.6,5.8
		S1396.7,593.2,1398.5,593.2z"/>
	<path class="st14" d="M1448.6,597.7h4.7v8.3h-4.7v9.9h-10.8V606h-18l-0.6-6.6l18.6-30v-0.1h10.8V597.7z M1429.4,597.7h8.4v-14.3
		l-0.7,1.1L1429.4,597.7z"/>
	<path class="st14" d="M1481.9,615.9h-10.8v-34.4l-10.6,3.1v-8.2l20.4-7.1h1V615.9z"/>
	<path class="st14" d="M1533.5,597.9c-2.3,2.1-4.9,3.1-7.8,3.1c-4.2,0-7.6-1.4-10-4.3c-2.5-2.9-3.7-6.7-3.7-11.5
		c0-3,0.7-5.8,2.1-8.3c1.4-2.6,3.3-4.6,5.8-6.1s5.3-2.2,8.3-2.2c3.1,0,5.8,0.8,8.3,2.3s4.4,3.7,5.8,6.6c1.4,2.8,2.1,6.1,2.1,9.8v4.1
		c0,5.1-1,9.6-3,13.4s-4.9,6.7-8.6,8.7s-8.1,3-13.1,3h-0.7v-8.6h2C1528.6,607.5,1532.7,604.2,1533.5,597.9z M1528.6,593.2
		c2.3,0,4-1,5.1-3v-4.5c0-3-0.5-5.2-1.5-6.6c-1-1.4-2.4-2.1-4.1-2.1c-1.5,0-2.8,0.8-3.8,2.4c-1,1.6-1.5,3.6-1.5,5.9
		c0,2.4,0.5,4.4,1.6,5.8S1526.8,593.2,1528.6,593.2z"/>
	<path class="st14" d="M1560.1,588.1h5.1c4,0,6-2,6-5.9c0-1.5-0.5-2.8-1.4-3.8s-2.3-1.5-4.1-1.5c-1.4,0-2.7,0.4-3.7,1.2
		c-1.1,0.8-1.6,1.9-1.6,3.1h-10.8c0-2.5,0.7-4.6,2-6.6c1.4-1.9,3.3-3.4,5.7-4.5s5.1-1.6,8-1.6c5.2,0,9.3,1.2,12.2,3.6
		s4.4,5.6,4.4,9.8c0,2-0.6,3.9-1.8,5.7c-1.2,1.8-3,3.2-5.4,4.3c2.5,0.9,4.4,2.3,5.8,4.1c1.4,1.8,2.1,4.1,2.1,6.8
		c0,4.2-1.6,7.5-4.8,10s-7.4,3.7-12.6,3.7c-3,0-5.9-0.6-8.5-1.7c-2.6-1.1-4.6-2.8-5.9-4.8c-1.3-2.1-2-4.4-2-7h10.8
		c0,1.4,0.6,2.7,1.7,3.7c1.2,1,2.6,1.6,4.3,1.6c1.9,0,3.4-0.5,4.5-1.6c1.1-1.1,1.7-2.4,1.7-4c0-2.3-0.6-4-1.8-5
		c-1.2-1-2.8-1.5-4.9-1.5h-5.2v-8.1H1560.1z"/>
	<path class="st14" d="M1633,597.7h4.7v8.3h-4.7v9.9h-10.8V606h-18l-0.6-6.6l18.6-30v-0.1h10.8V597.7z M1613.8,597.7h8.4v-14.3
		l-0.7,1.1L1613.8,597.7z"/>
	<path class="st14" d="M1674.8,596.8c0,6.3-1.4,11.1-4.2,14.6c-2.8,3.4-6.8,5.1-11.9,5.1c-5.2,0-9.2-1.7-12-5.2
		c-2.8-3.4-4.3-8.3-4.3-14.5v-8.5c0-6.3,1.4-11.1,4.2-14.6c2.8-3.4,6.8-5.1,12-5.1s9.2,1.7,12,5.2c2.8,3.4,4.3,8.3,4.3,14.6
		L1674.8,596.8L1674.8,596.8z M1664,587c0-3.3-0.4-5.8-1.3-7.5s-2.3-2.5-4.2-2.5c-1.9,0-3.2,0.8-4,2.3s-1.3,3.9-1.4,7v11.9
		c0,3.5,0.4,6,1.3,7.6s2.3,2.4,4.2,2.4c1.8,0,3.2-0.8,4.1-2.4s1.3-4,1.3-7.4V587z"/>
	<path class="st14" d="M1712.7,596.8c0,6.3-1.4,11.1-4.2,14.6c-2.8,3.4-6.8,5.1-11.9,5.1c-5.2,0-9.2-1.7-12-5.2
		c-2.8-3.4-4.3-8.3-4.3-14.5v-8.5c0-6.3,1.4-11.1,4.2-14.6c2.8-3.4,6.8-5.1,12-5.1s9.2,1.7,12,5.2c2.8,3.4,4.3,8.3,4.3,14.6
		L1712.7,596.8L1712.7,596.8z M1701.9,587c0-3.3-0.4-5.8-1.3-7.5s-2.3-2.5-4.2-2.5c-1.9,0-3.2,0.8-4,2.3s-1.3,3.9-1.4,7v11.9
		c0,3.5,0.4,6,1.3,7.6s2.3,2.4,4.2,2.4c1.8,0,3.2-0.8,4.1-2.4s1.3-4,1.3-7.4V587z"/>
</g>
<path class="st14" d="M1340.6,565.8c-4.1-0.4-8.7-0.2-14.2,4.7s-9.3,19.1,1.3,40.8c10.4,21.3,21.6,26.9,31.5,26.7
	c8.1-0.1,13.4-4.5,14-5.7s1.4-2.3-0.5-4.4c-1.9-2.1-7.4-8.3-8.4-9.3s-2.2-3.2-4.8-1.9c-2.6,1.2-4.9,2.2-6.2,2.7
	c-1.3,0.5-6.1,2.6-13.7-12.5c-7.5-15-5-16.1-2.7-17s4.2-1.7,5.1-2.3c0.9-0.7,1.9-1.3,1.9-3.2s-0.2-15.6-0.2-16.4
	C1343.8,567.4,1343,566.1,1340.6,565.8z"/>
</svg>
