<?xml version="1.0" encoding="utf-8"?>
<!-- Generator: Adobe Illustrator 22.1.0, SVG Export Plug-In . SVG Version: 6.00 Build 0)  -->
<svg version="1.1" id="Layer_1" xmlns="http://www.w3.org/2000/svg" xmlns:xlink="http://www.w3.org/1999/xlink" x="0px" y="0px"
	 viewBox="0 0 170 235" style="enable-background:new 0 0 170 235;" xml:space="preserve">
<style type="text/css">
	.st0{fill:#C97528;}
	.st1{fill:#A5601C;}
	.st2{fill:#704516;}
	.st3{fill:#595150;}
	.st4{fill:#352826;}
	.st5{fill:#050303;}
	.st6{fill:#F4B822;}
	.st7{fill:#DBC9A5;}
	.st8{fill:#D1C1A3;}
	.st9{fill:#F7EACD;}
</style>
<g>
	<polygon class="st0" points="79.3,139.8 77.5,137.8 77.5,135.4 79.2,134.8 80.1,140.3 	"/>
	<polygon class="st0" points="78.3,136 77.5,133.3 77.9,131.6 80,131.6 80.5,133.6 78.7,136.8 	"/>
	<polygon class="st0" points="78.6,132.5 77.8,129.3 78.8,127.6 80.3,128.4 79.4,132.8 	"/>
	<polygon class="st0" points="79.2,128.1 78.8,125.1 80.3,123.9 79.2,128.9 	"/>
	<polygon class="st1" points="85.1,150.9 80.6,145.5 77.2,140 79.6,138.1 82.5,138.5 85.1,144.2 87.2,150.2 	"/>
	<polygon class="st2" points="82.6,143.8 87.1,150.2 87.2,150.2 85.1,144.2 82.5,138.5 80.8,138.3 	"/>
	<path class="st0" d="M97.1,126.9c-0.2,0.7-0.8,4.3-0.8,4.3l3.5,0.7l1.5-0.9v-3.6L97.1,126.9z"/>
	<polygon class="st1" points="98.4,130.5 94.5,133.9 90,139.2 85.9,145.6 84.5,148.4 86.4,150.9 88.4,152 91,147.9 94.6,141 
		97,135.9 99,132.3 99.4,130.8 	"/>
	<path class="st2" d="M89.7,145.3l3.5-6.1c0,0,2.6-4,3.1-4.6c0.3-0.4,1.8-2,3-3.3l-0.3,1.1l-2,3.6l-2.4,5.1l-3.5,6.8l-2.7,4.1
		l-1.9-1L89.7,145.3z"/>
</g>
<g>
	<polygon class="st0" points="87.9,95.2 85.5,96.3 84.5,98.4 85.8,99.7 88.9,95 	"/>
	<polygon class="st0" points="85.5,98.2 83.7,100.4 83.4,102.1 85.3,102.9 86.6,101.3 86.2,97.6 	"/>
	<polygon class="st0" points="84.3,101.5 82.4,104.2 82.7,106.1 84.3,106 85.2,101.6 	"/>
	<polygon class="st0" points="83.2,105.8 81.6,108.4 82.5,110.1 83.5,105.1 	"/>
	<polygon class="st1" points="97.6,87.2 91.4,90.4 86.1,94.1 87.5,96.8 90.3,97.6 95,93.4 99.3,88.7 	"/>
	<polygon class="st2" points="92.6,92.8 99.2,88.7 99.3,88.7 95,93.4 90.3,97.6 88.6,97.1 	"/>
	<path class="st0" d="M99.1,114.1c0.1-0.8,1-4.3,1-4.3l3.5,0.7l1,1.4l-1.4,3.3L99.1,114.1z"/>
	<polygon class="st1" points="101.7,111.2 99.5,106.6 97.6,99.9 96.3,92.4 96.1,89.3 98.8,87.7 101.1,87.5 101.9,92.4 102.4,100.1 
		102.6,105.7 103,109.8 102.8,111.4 	"/>
	<path class="st2" d="M99.7,94.3l0.7,7c0,0,0.8,4.6,1,5.4c0.1,0.5,0.9,2.6,1.5,4.2l0.2-1.1l-0.4-4.1l-0.2-5.6l-0.5-7.7l-0.8-4.8
		L99,87.7L99.7,94.3z"/>
</g>
<g>
	<polygon class="st0" points="70.3,82.2 67.6,82.1 65.8,83.6 66.4,85.3 71.2,82.5 	"/>
	<polygon class="st0" points="66.7,83.8 64.2,85 63.2,86.3 64.5,88 66.3,87.1 67.6,83.6 	"/>
	<polygon class="st0" points="64.2,86.3 61.3,87.8 60.8,89.6 62.3,90.3 65,86.8 	"/>
	<polygon class="st0" points="61.4,89.6 58.8,91.2 58.9,93.2 62,89.1 	"/>
	<polygon class="st1" points="82.4,79.5 75.4,79.5 69,80.4 69.2,83.5 71.3,85.5 77.4,83.8 83.2,81.6 	"/>
	<polygon class="st2" points="75.4,82.2 83.2,81.5 83.2,81.6 77.4,83.8 71.3,85.5 70,84.3 	"/>
	<path class="st0" d="M71.9,104.2c0.4-0.7,2.8-3.4,2.8-3.4l2.8,2.3l0.3,1.7l-2.7,2.4L71.9,104.2z"/>
	<polygon class="st1" points="75.5,102.9 75.6,97.7 76.8,90.8 78.9,83.5 80.1,80.6 83.2,80.4 85.3,81.3 83.9,86 81,93.2 78.7,98.3 
		77.3,102.2 76.4,103.5 	"/>
	<path class="st2" d="M81.1,86.7l-2.4,6.6c0,0-1.3,4.5-1.5,5.3c-0.1,0.5-0.3,2.7-0.5,4.5l0.6-0.9l1.4-3.9l2.3-5.2l2.9-7.1l1.4-4.7
		l-2-0.8L81.1,86.7z"/>
</g>
<g>
	<polygon class="st0" points="54.9,144.8 52.4,143.8 51.4,141.8 52.6,140.4 55.9,144.9 	"/>
	<polygon class="st0" points="52.3,141.9 50.5,139.8 50.1,138.2 51.9,137.2 53.3,138.7 53.1,142.5 	"/>
	<polygon class="st0" points="51.1,138.7 49,136.1 49.2,134.2 50.8,134.2 51.9,138.5 	"/>
	<polygon class="st0" points="49.7,134.5 48,132 48.9,130.2 50.1,135.1 	"/>
	<polygon class="st1" points="65,152.1 58.6,149.3 53.1,145.9 54.4,143.2 57.2,142.2 62.1,146.2 66.6,150.6 	"/>
	<polygon class="st2" points="59.7,146.9 66.5,150.6 66.6,150.6 62.1,146.2 57.2,142.2 55.6,142.8 	"/>
	<path class="st0" d="M65.2,125.3c0.1,0.8,1.2,4.2,1.2,4.2l3.5-0.9l0.9-1.5l-1.6-3.3L65.2,125.3z"/>
	<polygon class="st1" points="68,127.9 65.9,132.7 64.3,139.5 63.4,147 63.4,150.2 66.2,151.6 68.4,151.6 69,146.7 69.2,139 
		69.1,133.4 69.3,129.2 69,127.7 	"/>
	<path class="st2" d="M66.7,145l0.4-7c0,0,0.6-4.7,0.7-5.5c0.1-0.5,0.8-2.6,1.3-4.3l0.2,1.1l-0.2,4.1l0.1,5.7l-0.2,7.7l-0.6,4.9
		h-2.1L66.7,145z"/>
</g>
<g>
	<polygon class="st0" points="33.1,134.3 30.6,133 28.2,133.6 27.9,135.4 33.8,134.9 	"/>
	<polygon class="st0" points="29,134.2 26,134.1 24.4,134.9 24.9,136.9 27.1,136.9 29.9,134.4 	"/>
	<polygon class="st0" points="25.5,135.3 22,135.4 20.6,136.7 21.7,138 26,136 	"/>
	<polygon class="st0" points="21.2,137 18.1,137.3 17.2,139 22,136.8 	"/>
	<polygon class="st1" points="59.1,119.3 62.2,120.5 62.5,124.7 59.5,130.6 56.9,133.7 52,137 51.5,135.6 51.4,134 53.8,131.1 
		56.1,126.8 58,121.6 	"/>
	<polygon class="st2" points="59.9,125.5 61.7,120.4 62.2,120.5 62.5,124.7 59.5,130.6 56.9,133.7 52,137 51.5,135.6 51.5,135.5 
		56.3,131.3 	"/>
	<polygon class="st1" points="52.1,135.2 47.8,133.3 40.6,131.3 35.3,131.6 32.1,133.5 31.9,135.3 40.5,136.1 47.9,136.9 
		52.7,136.2 	"/>
	<polygon class="st2" points="52.7,136.2 49.5,136.7 47.4,135.3 42.9,134.4 37,133.8 32,134.2 32.1,133.5 35.3,131.6 40.6,131.3 
		47.8,133.3 52.1,135.2 	"/>
</g>
<g>
	<polygon class="st0" points="44.1,81.1 41.3,81.3 39.3,79.9 39.8,78.1 45,80.9 	"/>
	<polygon class="st0" points="40.3,79.6 37.5,78.5 36.4,77.2 37.6,75.5 39.6,76.4 41.2,79.8 	"/>
	<polygon class="st0" points="37.5,77.2 34.3,75.8 33.6,74 35.1,73.3 38.2,76.7 	"/>
	<polygon class="st0" points="34.3,74 31.5,72.4 31.4,70.5 34.9,74.5 	"/>
	<polygon class="st1" points="62,105.3 65.3,105.3 67.3,101.6 66.9,95 65.7,91.1 62.6,86.2 61.5,87.3 60.7,88.7 61.8,92.3 
		62.2,97.2 62,102.7 	"/>
	<polygon class="st2" points="65.2,99.9 64.9,105.3 65.3,105.3 67.3,101.6 66.9,95 65.7,91.1 62.6,86.2 61.5,87.3 61.4,87.4 
		64.3,93.1 	"/>
	<polygon class="st1" points="61.9,87.8 57.2,87.9 49.8,86.9 45.1,84.5 42.9,81.5 43.4,79.8 51.6,82.4 58.7,84.6 62.8,87.1 	"/>
	<polygon class="st2" points="62.8,87.1 60.1,85.5 57.6,85.9 53.1,85 47.5,83.2 43.1,80.8 42.9,81.5 45.1,84.5 49.8,86.9 57.2,87.9 
		61.9,87.8 	"/>
</g>
<path class="st3" d="M28.1,117.7l-5.2,3.9l-7.8,3.5l-8.2,6.2l-4.2,7.1l-0.1,6.3l2.3,0.5l0.8-4.4c0,0,1.7-5.5,2.4-6
	c0.7-0.6,5-4.8,5-4.8l7.8-5.2l4.9-2.9l3.7-3.6L28.1,117.7z"/>
<polygon class="st4" points="41,110 34.2,111.6 26.9,117.5 29.1,120.3 31.5,118.1 34.7,113.8 41.7,111 "/>
<polygon class="st5" points="89.2,124.7 95.3,122 98.4,122.3 99.7,117.6 96.2,116.2 91.8,112.1 "/>
<path class="st3" d="M35.9,90.6l-2.4-6.1l-4.8-7.1l-3.8-9.6l0.1-8.2l3.2-5.4l2.2,0.7l-1.6,4.2c0,0-1.4,5.6-1.1,6.4
	c0.3,0.9,1.7,6.7,1.7,6.7l4,8.5l2.6,5.1l1.3,5.1L35.9,90.6z"/>
<polygon class="st4" points="42.8,104 37.8,99 34.7,90.1 38,88.9 39,92 39.4,97.4 43.9,103.4 "/>
<polygon class="st3" points="45.7,116.5 40.7,116.3 39.5,112.3 39.8,106.8 42.1,102 47.4,101.7 46.4,109 "/>
<polygon class="st4" points="53.6,109.8 53.5,115.5 54.9,121.8 52.8,125.6 46.4,124.3 43.6,117.7 43.1,109.8 46,100.8 51.4,96.6 
	56.5,97.3 59.6,99.4 59.4,103.6 55.4,106.3 "/>
<polygon class="st6" points="48.8,102.6 48,105.3 51.6,106.6 57.6,101.7 59.6,99.9 59.6,99.4 56.5,97.3 52.4,96.8 50.7,98.7 "/>
<path class="st6" d="M46.3,119.8c0,0,0.4,2.4,0.8,4.6l5.7,1.2l0.9-1.6l-2.4-5.5l-2.3-2.6l-3.3,0.7L46.3,119.8z"/>
<polygon class="st5" points="53.2,101.6 48.6,108.8 48.3,118.7 51.7,125.4 52.8,125.6 54.9,121.8 53.5,115.5 53.6,109.8 55.4,106.3 
	59.4,103.6 59.6,99.4 57.3,97.9 "/>
<polygon class="st4" points="60.6,101 56.3,103.6 53.7,109.5 52.3,117.6 54.3,123.3 62.7,130 72.3,133.9 80.9,133 89.4,128.7 
	93.6,118.5 93,108.1 83.3,101.2 72.4,98.1 "/>
<polygon class="st5" points="74.3,119.1 73.9,126.4 75.7,133.6 80.9,133 89.4,128.7 93.6,118.5 93,108.1 83.3,101.2 82.5,100.9 
	77.4,109.5 "/>
<path class="st6" d="M75.2,131.6l4.3-0.3l2.3-4.8l-2.2-4.7c0,0-2.2-1.8-3-2c-0.3-0.1-1.3-0.2-2.3-0.4l-0.5,7.1L75.2,131.6z"/>
<polygon class="st6" points="81.8,102.1 77.4,109.5 76.9,111 78.6,111.4 82.4,111.1 85,109.8 86.8,107.5 84,103 "/>
<path class="st6" d="M84.2,128.5c0,0-1,2-2.1,3.9l5.4-2.7l1.7-10.2l-1.9-0.9l-1.1,4L84.2,128.5z"/>
<polygon class="st6" points="88.4,104.8 88.7,105.5 88.5,113.2 87.9,116 89.8,116.6 91.2,110.3 91.3,106.9 "/>
<path class="st6" d="M54.7,113.3l1.1,5.8l2.7,4.8l3.7,3.7l4.3,2l1.7-0.5l-0.8-2.6c0,0-3.4-1.5-4.1-1.9c-0.7-0.4-4.3-3.3-4.3-3.3
	l-2.7-4.8l-0.5-2.8L54.7,113.3z"/>
<polygon class="st6" points="55.1,110 57.3,110.7 58.4,108 62,104.5 67.5,103.5 73.1,103.9 75.1,103 74.4,100.4 70.2,100.4 
	63.3,102.1 58.9,104.6 "/>
<polygon class="st3" points="61.6,110.5 60.4,117.2 64.1,120.9 69.4,120.6 71.7,116.9 71.8,112.6 69.6,109.5 65.4,108.4 "/>
<path class="st4" d="M95.2,132.7l0.1-6.6l1.9-9.1l3.1-8.9l3.5-4.4l10.2-1.6l16.7,3.5l13.1,3.4l11.3,7.1l8,10.4l3.8,5.2l-2.5,4.2
	c0,0-4.1,3.9-5.1,4.1c-1,0.2-18.2,6.9-18.2,6.9l-11.8,0.1l-12.8-0.1l-10.8-3.3l-6.7-4L95.2,132.7z"/>
<path class="st5" d="M100.2,108.1l-3.1,8.9l-1.9,9.1l-0.1,6.6l1.2,2.1l1.8-2.6c0,0,2.4-8.4,2.7-9.7c0.3-1.4,1.9-10.9,1.9-10.9
	l0.5-5.6l-0.4-1L100.2,108.1z"/>
<polygon class="st6" points="109.3,139.1 112.2,128 114.8,117.6 115.2,107 113.5,102.2 107.6,103.1 108,114.7 109.8,121.5 
	106.9,130.4 102.8,138.5 101.9,141.4 105.7,143.6 106.5,143.9 "/>
<path class="st6" d="M120.4,109c1.6,0.5,3.7,1.4,4.8,2.2l1,3.4l-2.1,1.7h-2.6l0.6,2.8l3.9,6.5l-6.6,5l-0.2,0.4l3.2,2l-0.6,2.7
	l-3.2,1.8l-3.3-0.7l-1.6,2.5l-2.3,6.1l5,1.6h7.2l7.5-11.2l2.7-9.7l0.5-14.4l-1.7-5.6l-2.1-0.6l-10.1-2.1V109z"/>
<polygon class="st6" points="137.4,112.7 137.7,119.8 138.7,125 142.9,128.3 138.1,129.5 136.1,134 133.4,140.2 130.4,144.5 
	128.5,147 129.3,147 138,147 140.1,143.4 145.2,137.3 147.3,128.9 148.2,120.9 147.5,111.4 143.7,109 136.7,107.2 "/>
<polygon class="st4" points="137.4,136.4 135.8,140.3 138.1,141.2 139.3,138.9 139.7,136.9 "/>
<polygon class="st4" points="139.2,115.5 139.7,119.9 142.1,120 142.6,117.7 142.6,115.9 140.3,113.6 "/>
<path class="st6" d="M152,119.6l0.1,6l-1.6,9.6l-3.8,6.7l-3.6,4.3c3.2-1.2,9.5-3.7,13.2-5.1l2.6-6.3l1.1-10.4l-0.3-2.2l-4.7-6.1
	l-2.9-1.8L152,119.6z"/>
<path class="st6" d="M162.4,125.8l-0.4,4l-2.1,7l-1.5,3.5c0.4-0.1,0.7-0.2,0.8-0.3c1-0.2,5.1-4.1,5.1-4.1l2.5-4.2l-3.8-5.2
	L162.4,125.8z"/>
<polygon class="st4" points="148.9,140.2 150.8,138.1 152.3,135.9 153.5,136.7 153,139.3 150.9,141 "/>
<path class="st4" d="M153.5,125v-3.2l0.2-2.6l2.3,0.8c0,0,1.4,1,1.1,2.2c-0.2,1.2,0,3.4-0.7,3.6C155.6,126,153.5,125,153.5,125z"/>
<g>
	<g>
		<path class="st7" d="M74.9,106.1l5.9-14.2l8-32.1l8.9-38.9l6.5-13.6l6.1-1.4l6.7,14.5c0,0,2.8,7.6,2.7,9c-0.1,1.3-1,12.6-1,12.6
			l1.5,7.3c0,0-2.5,11.8-2.9,13s-4.1,12.7-5,14.3c-0.8,1.6-5.3,9.3-7.6,11.3c-2.2,2-10.5,9.4-12.4,10.5c-1.8,1.1-13.3,10-13.3,10
			L74.9,106.1z"/>
		<path class="st8" d="M100.7,23.7l1-7.4l0.1-4.2l-1.7,3.6l-1,6.6L96,35.4l-3.4,17.1l-5.5,25.7l-5,15.8l-6,12.8l1.4,0.9l1.9-4.5
			l2-4.3l1.7-0.6l3-6l7.5-18.5l6-16.8l4.7-14.2l2.5-4.9l2.6,1.4l1.3,1.9L109,44l-1.5,2.8l-1.9,3.4l-4.1,10.1l-3.8,10.5l-9.4,23.8
			c0,0-5.2,8.4-8.1,13.1c0.7-0.5,1.5-1.2,2.5-1.9l6-9.9l6.1-14.2l3.9-2.4l7.1-13.2l2.3-4.8L112,58l6.1-4.7l1.8-2.3
			c0.2-0.9,0.3-1.5,0.3-1.5l-0.1-0.3l-3.9,4.1l-4.8,3.7l-2.1,2l4.1-8.6l-0.2-0.3l0.9-1.5l3.3-4.1l1.3-1.9l-0.1-0.4
			c0,0,0-0.4,0.1-1.1l-3.6,5.1l-2.5,3.1l-0.2-0.3l-2.8-3.4l0.5-0.8l5.1-8.9l4.5-6.4c0-0.3-0.1-0.8-0.3-1.4l-3.9,5.5l-3.7,5.9
			l-0.4,0.7l-2.5-2.4l2.8-8.7l2.2-6.8l-0.9-3.2l-2.2-0.5l-5,8.1l-4.3,8.6l-2-0.5l-1-1L100.7,23.7z M110,47.3l2.4,3.3l-2.5,5.1
			l-4.7,9.7l-4.8,9.1L97.7,79l-2.3,1.3l2.9-6.7l4.1-11.3l3.7-10.5c0,0,0.2-0.7,0.5-1.6l2.5-3.7L110,47.3z M106,28.4l3.3-6.3l1.7-1.9
			l0.9,0.9l1.1,1.7l-0.9,2.8l-1.8,5.3l-2.2,6.2l-1.2-1.1l-3.8-0.2l-0.9-0.2L106,28.4z M104,36.8l2.1,0.7l0.3,0.2
			c-0.9,1.2-2.1,3.8-2.1,3.8l-2.6,5.9l-2.4,8.1l-3.6,9.9l-4.1,11.3L88.3,85l-2.7,6.9l-2.4,4.7h-0.6l0,0l3-8.4l3-10.5l2.1-10.3
			L94,53.7l3.3-15.2l0.6-2.7l1.5,1H104z"/>
	</g>
	<polygon class="st9" points="97.5,49 100.1,49.5 101.8,46.4 102.6,43 101,43 98.3,46.5 	"/>
	<polygon class="st9" points="98,45.6 99.7,43.4 100.1,42.2 99.4,41.5 97.9,42.1 97.2,44.4 97.2,45.3 	"/>
	<path class="st9" d="M95.4,52.4l0.6-2.5l2.4,0.1l1.6,1l-0.7,2.6C98.3,54.1,95.4,52.4,95.4,52.4z"/>
	<polygon class="st9" points="94.7,57.7 94.9,55.8 95.5,54.1 96.9,54.4 98.7,55.3 98.3,57.5 97,59 	"/>
	<polygon class="st9" points="99.5,33.8 101.8,34.6 103.2,32.3 102.5,31 100.1,30.7 	"/>
	<polygon class="st9" points="100.8,29.7 103.1,30 104.4,29.6 104.9,27.7 103.9,26.5 102.4,26.4 101,27.7 	"/>
</g>
<g>
	<g>
		<path class="st7" d="M66.4,124.6l4.3,14.8l4.3,32.8l4.4,39.6l4.9,14.2l5.9,2l8.3-13.7c0,0,3.6-7.3,3.7-8.6s0.4-12.6,0.4-12.6
			l2.3-7.1c0,0-1.1-12-1.4-13.3c-0.3-1.2-2.7-13.1-3.3-14.8c-0.6-1.7-4.2-9.9-6.2-12.1c-2-2.2-9.4-10.5-11.1-11.9
			c-1.7-1.3-12.1-11.5-12.1-11.5L66.4,124.6z"/>
		<path class="st8" d="M81.5,199l1.1-0.8l2.1-0.3l3.3,9l4,8.6l2.3-0.2l1.2-3.1l-1.4-7l-1.8-9l2.8-2.1l0.4,0.8l3,6.3l3.3,6
			c0.2-0.6,0.4-1,0.4-1.3l-3.7-6.8l-4-9.4l-0.4-0.9l3.2-3l0.2-0.3l2.2,3.3l3,5.4c0-0.7,0-1.1,0-1.1l0.1-0.4l-1.1-2.1l-2.8-4.4
			l-0.8-1.6l0.2-0.3l-3.1-9l1.9,2.2l4.3,4.3l3.5,4.5l0.1-0.2c0,0-0.1-0.6-0.1-1.6l-1.5-2.5l-5.5-5.3l-3.5-3.7l-1.7-5l-5.6-14
			l-3.6-2.8L79,136.4l-4.8-10.6c-0.9-0.9-1.7-1.6-2.3-2.2c2.4,5,6.6,14,6.6,14l6.6,24.7l2.6,10.8l3,10.5l1.5,3.6l1.2,3l1.4,3
			l-1.5,1.8l-2.8,1l-1.9-5.2l-3-14.6L81.8,159l-5.4-19.3l-2.3-6.3l-1.6-0.8l-1.5-4.5l-1.4-4.7l-1.5,0.7l4.5,13.4l3.1,16.3l2.6,26.1
			l1.4,17.4l1.6,13.4l0.2,6.7l1.3,3.8l0.4-4.2l-0.2-7.5L81.5,199z M93.5,187.8l-2-4c-0.2-1-0.3-1.6-0.3-1.6l-2.5-10.9l-2.8-11.7
			l-2.1-6.9l2.2,1.5l2.2,4.7l3.7,9.6l3.6,10.1l1.9,5.4l-2.7,3L93.5,187.8z M85.5,197.8l0.9-0.1l3.8,0.2l1.3-1l1.5,6.4l1.2,5.4
			l0.5,2.9l-1.3,1.6l-1,0.8l-1.4-2.1l-2.6-6.7L85.5,197.8z M82.9,196.1l-1.6,0.9l-0.3-2.8l-1.6-15.5l-1.6-13.8l-0.9-10.5l-1.8-10.8
			l-2-8.7l0,0l0.6,0.1l1.8,4.9l1.9,7.2l2.4,8.6l2.8,11.7l2.4,10.2l1.5,8.3l1.9,6.2c0,0,0.9,2.7,1.6,4l-0.3,0.1l-2.2,0.5L82.9,196.1z
			"/>
	</g>
	<polygon class="st9" points="82,192.9 83.4,194.3 86.3,194.6 87.6,193.3 87.3,191.3 84.5,190.2 82.1,190 	"/>
	<polygon class="st9" points="81.5,188.9 83.7,189.1 85.7,188.8 86.3,187.7 85.7,185.9 84,184.5 81.9,184.7 81,185.9 	"/>
	<path class="st9" d="M80.5,179.8c0,0,0.2,2.7,0.6,3.1c0.5,0.3,2.2,0.9,2.2,0.9l1.5-0.4v-1.5l-0.3-1.7l-2-1.2L80.5,179.8z"/>
	<polygon class="st9" points="83.1,206.7 85.8,206.1 87,207 87.8,208.7 86.6,210.1 84.5,210.6 83.1,209.3 	"/>
	<polygon class="st9" points="86.1,211.6 88.1,211 89.2,212.2 89,213.5 88.4,214.5 86.7,214.4 85.2,213.1 	"/>
	<polygon class="st9" points="87.5,199.9 88.9,202.7 90.2,203 91.2,202.8 91.2,200.3 90.1,199.1 	"/>
</g>
</svg>
